<svg width="29" height="29" viewBox="0 0 29 29" fill="none" xmlns="http://www.w3.org/2000/svg">
<rect y="1.52588e-05" width="29" height="29" rx="4" fill="#03C27C"/>
<path d="M6.35449 20.25V9.70835C6.35449 5.87502 7.31283 4.91669 11.1462 4.91669H17.8545C21.6878 4.91669 22.6462 5.87502 22.6462 9.70835V19.2917C22.6462 19.4259 22.6462 19.56 22.6366 19.6942" stroke="white" stroke-width="1.5" stroke-linecap="round" stroke-linejoin="round"/>
<path d="M9.08574 17.375H22.6462V20.7292C22.6462 22.5788 21.1416 24.0833 19.292 24.0833H9.70866C7.85908 24.0833 6.35449 22.5788 6.35449 20.7292V20.1063C6.35449 18.6017 7.58116 17.375 9.08574 17.375Z" stroke="white" stroke-width="1.5" stroke-linecap="round" stroke-linejoin="round"/>
<path d="M10.667 9.70834H18.3337" stroke="white" stroke-width="1.5" stroke-linecap="round" stroke-linejoin="round"/>
<path d="M10.667 13.0625H15.4587" stroke="white" stroke-width="1.5" stroke-linecap="round" stroke-linejoin="round"/>
</svg>
