<svg width="21" height="21" viewBox="0 0 21 21" fill="none" xmlns="http://www.w3.org/2000/svg">
<path d="M20.0549 16.5662C20.0549 16.9112 19.9782 17.2658 19.8153 17.6108C19.6524 17.9558 19.4416 18.2817 19.1637 18.5883C18.6941 19.1058 18.1766 19.4796 17.592 19.7192C17.017 19.9587 16.3941 20.0833 15.7232 20.0833C14.7457 20.0833 13.7012 19.8533 12.5991 19.3837C11.497 18.9142 10.3949 18.2817 9.30241 17.4862C8.20033 16.6812 7.15574 15.79 6.15908 14.8029C5.17199 13.8062 4.28074 12.7617 3.48533 11.6692C2.69949 10.5767 2.06699 9.48416 1.60699 8.40125C1.14699 7.30875 0.916992 6.26416 0.916992 5.2675C0.916992 4.61583 1.03199 3.99291 1.26199 3.41791C1.49199 2.83333 1.85616 2.29666 2.36408 1.8175C2.97741 1.21375 3.64824 0.916664 4.35741 0.916664C4.62574 0.916664 4.89408 0.974164 5.13366 1.08916C5.38283 1.20416 5.60324 1.37666 5.77574 1.62583L7.99908 4.75958C8.17158 4.99916 8.29616 5.21958 8.38241 5.43041C8.46866 5.63166 8.51658 5.83291 8.51658 6.015C8.51658 6.245 8.44949 6.475 8.31533 6.69541C8.19074 6.91583 8.00866 7.14583 7.77866 7.37583L7.05033 8.13291C6.94491 8.23833 6.89699 8.36291 6.89699 8.51625C6.89699 8.59291 6.90658 8.66 6.92574 8.73666C6.95449 8.81333 6.98324 8.87083 7.00241 8.92833C7.17491 9.24458 7.47199 9.65666 7.89366 10.155C8.32491 10.6533 8.78491 11.1612 9.28324 11.6692C9.80074 12.1771 10.2991 12.6467 10.807 13.0779C11.3053 13.4996 11.7174 13.7871 12.0432 13.9596C12.0912 13.9787 12.1487 14.0075 12.2157 14.0362C12.2924 14.065 12.3691 14.0746 12.4553 14.0746C12.6182 14.0746 12.7428 14.0171 12.8482 13.9117L13.5766 13.1929C13.8162 12.9533 14.0462 12.7712 14.2666 12.6562C14.487 12.5221 14.7074 12.455 14.947 12.455C15.1291 12.455 15.3207 12.4933 15.5316 12.5796C15.7424 12.6658 15.9628 12.7904 16.2024 12.9533L19.3745 15.2054C19.6237 15.3779 19.7962 15.5792 19.9016 15.8187C19.9974 16.0583 20.0549 16.2979 20.0549 16.5662Z" stroke="white" stroke-width="1.5" stroke-miterlimit="10"/>
<path d="M16.7292 7.62499C16.7292 7.04999 16.2787 6.16833 15.6079 5.44958C14.9946 4.78833 14.18 4.27083 13.375 4.27083" stroke="white" stroke-width="1.5" stroke-linecap="round" stroke-linejoin="round"/>
<path d="M20.0833 7.625C20.0833 3.91625 17.0838 0.916664 13.375 0.916664" stroke="white" stroke-width="1.5" stroke-linecap="round" stroke-linejoin="round"/>
</svg>
