<svg width="256" height="244" viewBox="0 0 256 244" fill="none" xmlns="http://www.w3.org/2000/svg">
<path d="M117.74 41.3354C117.74 41.3354 83.2974 42.8483 65.0454 78.8704C46.7934 114.892 27.968 103.644 16.835 136.14C5.70201 168.636 28.1449 205.573 43.1821 209.581C58.2192 213.589 230.021 209.581 230.021 209.581C230.021 209.581 252.714 194.062 254.495 153.751C256.277 113.441 222.451 99.9773 208.432 94.2491C194.414 88.521 172.807 40.4448 117.74 41.3354Z" fill="#F3F5F4"/>
<path d="M167.099 139.836C206.781 113.141 214.473 99.4279 234.061 96.8841C281.759 90.6741 246.811 214.009 137.573 240.332C85.6724 252.85 21.3816 218.707 12.1885 192.176C3.3004 166.525 27.2318 156.88 62.5706 170.661C97.9095 184.441 146.882 153.44 167.099 139.836Z" stroke="#BBBFBD" stroke-miterlimit="10"/>
<path d="M213.675 113.483C215.927 111.023 215.758 107.203 213.297 104.951C210.836 102.699 207.016 102.869 204.764 105.329C202.513 107.79 202.682 111.61 205.143 113.862C207.604 116.114 211.424 115.944 213.675 113.483Z" fill="#D9D9D9"/>
<path d="M211.05 232.378C213.409 230.019 213.409 226.195 211.05 223.837C208.692 221.478 204.868 221.478 202.51 223.837C200.151 226.195 200.151 230.019 202.51 232.378C204.868 234.736 208.692 234.736 211.05 232.378Z" stroke="#BBBFBD" stroke-miterlimit="10"/>
<path d="M128.089 96.7139C131.424 96.7139 134.128 94.01 134.128 90.6746C134.128 87.3392 131.424 84.6353 128.089 84.6353C124.754 84.6353 122.05 87.3392 122.05 90.6746C122.05 94.01 124.754 96.7139 128.089 96.7139Z" stroke="#BBBFBD" stroke-miterlimit="10"/>
<path d="M110.994 114.813L104.863 123.341H116.509L110.994 114.813Z" stroke="#BBBFBD" stroke-linecap="round" stroke-linejoin="round"/>
<path d="M82.1933 223.179L78.3379 230.591H89.9833L82.1933 223.179Z" fill="#D9D9D9"/>
<path d="M25.0776 131.959C26.5395 125.765 22.7034 119.558 16.5094 118.096C10.3153 116.635 4.10896 120.471 2.64704 126.665C1.18512 132.859 5.02125 139.065 11.2153 140.527C17.4093 141.989 23.6157 138.153 25.0776 131.959Z" stroke="#BBBFBD" stroke-linecap="round" stroke-linejoin="round"/>
<path d="M13.7807 143.306C13.6144 142.439 13.5313 141.668 13.5313 140.991C13.5313 139.887 13.6857 138.99 13.9944 138.301C14.3031 137.601 14.6949 137.031 15.1699 136.592C15.6448 136.14 16.1316 135.731 16.6303 135.363C17.2952 134.876 17.8829 134.359 18.3935 133.813C18.904 133.255 19.1593 132.454 19.1593 131.409C19.1593 130.388 18.8565 129.616 18.251 129.094C17.6454 128.571 16.8677 128.31 15.9179 128.31C14.8018 128.31 13.8757 128.607 13.1395 129.201C12.4034 129.794 11.8809 130.388 11.5722 130.982L9.04321 127.526C9.64875 126.778 10.5511 126.066 11.7503 125.389C12.9614 124.701 14.3862 124.356 16.0247 124.356C18.6606 124.356 20.6138 124.932 21.8842 126.084C23.1547 127.235 23.7899 128.856 23.7899 130.946C23.7899 131.86 23.6474 132.626 23.3625 133.243C23.0894 133.849 22.7272 134.377 22.276 134.828C21.8249 135.268 21.344 135.695 20.8334 136.111C20.2873 136.55 19.7589 137.025 19.2483 137.536C18.7378 138.046 18.3163 138.675 17.9838 139.423C17.6514 140.16 17.4852 141.098 17.4852 142.237V143.306H13.7807ZM13.7451 152.033V146.726H17.7701V152.033H13.7451Z" fill="#B3EDD8"/>
<path d="M140.702 53.2043C145.202 48.7042 145.202 41.4079 140.702 36.9078C136.202 32.4076 128.905 32.4076 124.405 36.9078C119.905 41.4079 119.905 48.7042 124.405 53.2043C128.905 57.7045 136.202 57.7045 140.702 53.2043Z" fill="#B3EDD8"/>
<path d="M132.468 59.0491C132.302 58.1824 132.219 57.4106 132.219 56.7338C132.219 55.6296 132.373 54.7332 132.682 54.0445C132.991 53.344 133.382 52.7741 133.857 52.3348C134.332 51.8836 134.819 51.4739 135.318 51.1059C135.983 50.6191 136.57 50.1026 137.081 49.5564C137.592 48.9984 137.847 48.1969 137.847 47.1521C137.847 46.1309 137.544 45.3592 136.938 44.8368C136.333 44.3143 135.555 44.0531 134.605 44.0531C133.489 44.0531 132.563 44.3499 131.827 44.9436C131.091 45.5373 130.568 46.1309 130.26 46.7246L127.731 43.2695C128.336 42.5215 129.239 41.8091 130.438 41.1323C131.649 40.4436 133.074 40.0993 134.712 40.0993C137.348 40.0993 139.301 40.6752 140.572 41.8269C141.842 42.9786 142.477 44.5993 142.477 46.689C142.477 47.6032 142.335 48.3691 142.05 48.9865C141.777 49.592 141.415 50.1204 140.964 50.5716C140.512 51.0109 140.031 51.4383 139.521 51.8539C138.975 52.2932 138.446 52.7681 137.936 53.2787C137.425 53.7892 137.004 54.4185 136.671 55.1666C136.339 55.9027 136.173 56.8407 136.173 57.9805V59.0491H132.468ZM132.433 67.776V62.4687H136.458V67.776H132.433Z" fill="white"/>
<path d="M49.4805 135.476C50.2145 132.354 48.2785 129.228 45.1562 128.494C42.034 127.76 38.9079 129.696 38.1738 132.818C37.4398 135.94 39.3758 139.066 42.498 139.8C45.6203 140.534 48.7464 138.598 49.4805 135.476Z" fill="#D9D9D9"/>
<path d="M249.47 30.3915H197.521C196.097 30.3915 194.731 30.9571 193.725 31.9639C192.718 32.9706 192.152 34.336 192.152 35.7598V67.0237C192.152 68.4474 192.718 69.8129 193.725 70.8196C194.731 71.8263 196.097 72.3919 197.521 72.3919H208.098L206 77.815C205.867 78.1542 205.849 78.5273 205.947 78.8779C206.045 79.2286 206.254 79.5379 206.544 79.759C206.833 79.9801 207.186 80.1011 207.55 80.1037C207.915 80.1062 208.27 79.9903 208.562 79.7732L218.603 72.3919H249.47C250.894 72.3919 252.26 71.8263 253.266 70.8196C254.273 69.8129 254.839 68.4474 254.839 67.0237V35.7598C254.839 34.336 254.273 32.9706 253.266 31.9639C252.26 30.9571 250.894 30.3915 249.47 30.3915Z" fill="#03C27C"/>
<path d="M198.284 39.1578H247.971" stroke="white" stroke-linecap="round" stroke-linejoin="round"/>
<path d="M198.284 43.6722H247.971" stroke="white" stroke-linecap="round" stroke-linejoin="round"/>
<path d="M198.284 48.1863H247.971" stroke="white" stroke-linecap="round" stroke-linejoin="round"/>
<path d="M198.284 52.6941H247.971" stroke="white" stroke-linecap="round" stroke-linejoin="round"/>
<path d="M198.284 57.2085H247.971" stroke="white" stroke-linecap="round" stroke-linejoin="round"/>
<path d="M198.284 61.7226H247.971" stroke="white" stroke-linecap="round" stroke-linejoin="round"/>
<path d="M87.0431 129.776C86.7874 127.567 86.3797 125.378 85.8231 123.225C85.1337 121.108 82.23 117.088 82.23 117.088C82.23 117.088 81.0649 119.577 82.7546 121.639C82.6979 123.119 82.7163 124.601 82.8095 126.08C82.8095 126.08 77.3193 121.383 76.2579 120.907L73.7689 118.924C70.1088 116.014 67.6687 116.917 68.0042 117.125C68.2238 117.271 72.3964 120.644 74.9768 122.737L74.6413 123.219L70.7554 120.12C67.0953 117.216 64.6551 118.113 64.9968 118.326C65.3384 118.54 71.3654 123.444 73.3541 125.037L72.7441 125.878L68.7545 122.718C65.0944 119.809 62.6543 120.711 62.9898 120.888C63.3253 121.065 69.6574 126.257 71.4874 127.739L70.8774 128.63C69.487 127.357 68.0224 126.167 66.4913 125.067C64.222 123.481 62.5811 124.219 62.5811 124.219L63.5876 125.122C64.588 126.019 69.8221 130.143 69.8221 130.143C69.8221 130.143 77.8012 137.286 79.8204 137.969L81.7725 139.836L88.9708 132.052L87.0431 129.776Z" fill="#FF996A"/>
<path d="M144.567 179.074C140.297 185.259 134.276 189.078 126.303 187.455C104.952 183.112 79.7148 141.642 79.7148 141.642L80.9837 140.27L90.3964 130.088L123.137 159.858L133.373 145.046L143.365 130.582L148.306 123.439C148.306 123.439 151.198 128.008 153.016 142.551C154.181 151.665 151.808 168.697 144.567 179.074Z" fill="#9D9D50"/>
<path d="M144.567 179.074C140.297 185.259 134.276 189.078 126.303 187.455C104.952 183.112 79.7148 141.642 79.7148 141.642L80.9837 140.27L81.7645 139.837C81.7645 139.837 111.827 181.19 124.466 175.035C132.299 171.235 133.556 156.076 133.373 145.046L143.365 130.583L144.567 179.074Z" fill="#74732B"/>
<path d="M224.806 175.035L222.854 209.313H215.308L218.272 175.035H224.806Z" fill="#03C27C"/>
<path d="M178.605 175.035L176.659 209.313H169.113L172.078 175.035H178.605Z" fill="#03C27C"/>
<path d="M225.583 125.995H165.776C159.832 125.995 155.015 130.813 155.015 136.756V170.21C155.015 176.153 159.832 180.971 165.776 180.971H225.583C231.526 180.971 236.343 176.153 236.343 170.21V136.756C236.343 130.813 231.526 125.995 225.583 125.995Z" fill="#03C27C"/>
<path d="M220.537 125.995H160.73C154.787 125.995 149.969 130.813 149.969 136.756V170.21C149.969 176.153 154.787 180.971 160.73 180.971H220.537C226.48 180.971 231.298 176.153 231.298 170.21V136.756C231.298 130.813 226.48 125.995 220.537 125.995Z" fill="#B3EDD8"/>
<path d="M175.455 110.561C175.455 110.561 187.253 108.67 203.12 125.08L206.78 209.312H140.464C140.464 209.312 133.223 152.488 141.684 132.278C150.145 112.068 165.262 109.658 175.455 110.561Z" fill="#B3EDD8"/>
<path d="M152.324 64.8768L155.234 60.8933L180.056 69.2019L179.867 78.5292H181.502C182.294 78.5284 183.078 78.6837 183.81 78.9862C184.542 79.2888 185.207 79.7326 185.767 80.2923C186.328 80.8521 186.772 81.5168 187.075 82.2484C187.379 82.98 187.535 83.7643 187.535 84.5563C187.535 85.3483 187.379 86.1325 187.075 86.8641C186.772 87.5958 186.328 88.2605 185.767 88.8202C185.207 89.38 184.542 89.8238 183.81 90.1263C183.078 90.4288 182.294 90.5842 181.502 90.5833H179.562L179.257 103.241V114.362L161.285 116.802L160.846 109.36L160.614 105.456L158.003 104.236C154.349 102.487 151.265 99.7407 149.106 96.3134C146.947 92.8862 145.802 88.918 145.803 84.8674C145.803 77.6812 148.087 70.6809 152.324 64.8768Z" fill="#FF996A"/>
<path d="M160.625 105.486L160.857 109.39C161.516 109.317 162.211 109.213 162.925 109.079C174.027 107.06 178.371 97.0248 177.919 91.8578C177.919 91.8578 174.18 104.284 160.625 105.486Z" fill="#D37A57"/>
<path d="M181.698 82.83C181.204 83.1676 180.835 83.6586 180.648 84.2269C180.927 84.3337 181.17 84.5168 181.349 84.7553C181.528 84.9938 181.636 85.2779 181.661 85.5751C181.659 85.8956 181.561 86.2083 181.381 86.4733C181.201 86.7384 180.946 86.9438 180.648 87.0636C180.866 87.4424 181.223 87.7217 181.643 87.8424C182.063 87.9631 182.514 87.9157 182.899 87.7102C184.303 86.9538 184.071 84.3062 182.674 83.7511C182.674 83.7511 184.888 83.501 185.724 84.3123C185.756 84.0122 185.703 83.7091 185.571 83.4374C185.44 83.1657 185.235 82.9363 184.98 82.7751C184.504 82.4198 183.923 82.2324 183.329 82.2424C182.735 82.2523 182.162 82.459 181.698 82.83Z" fill="#D37A57"/>
<path d="M152.322 64.876C152.322 64.876 155.683 70.6651 160.026 72.5379C164.37 74.4107 169.012 71.6839 173.355 74.1667C177.699 76.6495 174.923 81.3162 175.899 83.555C176.875 85.7938 177.949 86.0927 177.949 86.0927C177.949 86.0927 178.559 79.724 179.84 78.5284C179.84 78.5284 183.738 78.4918 184.952 79.6325C184.952 79.6325 187.13 75.2342 187.508 71.7876C187.886 68.3409 184.061 67.2185 184.061 67.2185C184.061 67.2185 183.165 58.9831 173.05 55.9147C162.936 52.8462 155.231 57.7081 151.187 55.9147C147.142 54.1212 143.476 56.8114 143.257 60.8925C143.037 64.9736 145.8 66.4681 145.8 66.4681C145.254 66.9637 144.859 67.6033 144.661 68.3134C144.462 69.0235 144.468 69.7752 144.678 70.4821C144.91 71.1959 145.315 71.8417 145.855 72.3628C146.395 72.884 147.055 73.2646 147.777 73.4712C147.777 73.4712 150.54 67.31 152.322 64.876Z" fill="#3F2D1F"/>
<path d="M154.338 94.4868L164.629 93.9805C164.629 93.9805 162.244 97.6894 158.852 97.6406C155.729 97.6162 154.338 94.4868 154.338 94.4868Z" fill="white"/>
<path d="M166.165 77.7242C166.031 77.7251 165.901 77.6775 165.799 77.59C165.203 77.081 164.458 76.781 163.675 76.7359C162.893 76.6907 162.118 76.9028 161.468 77.3398C161.411 77.4174 161.337 77.4805 161.251 77.5239C161.165 77.5674 161.071 77.59 160.975 77.5899C160.878 77.5897 160.784 77.5669 160.698 77.5233C160.612 77.4796 160.538 77.4163 160.482 77.3386C160.425 77.2609 160.388 77.171 160.373 77.0761C160.358 76.9812 160.365 76.884 160.395 76.7926C160.424 76.7011 160.475 76.6179 160.543 76.5498C160.61 76.4816 160.693 76.4305 160.785 76.4004C161.641 75.8067 162.67 75.5134 163.711 75.5664C164.751 75.6194 165.745 76.0156 166.537 76.6932C166.649 76.796 166.718 76.9366 166.732 77.0878C166.745 77.2389 166.702 77.3897 166.61 77.5106C166.557 77.5775 166.489 77.6314 166.412 77.6684C166.335 77.7054 166.25 77.7244 166.165 77.7242Z" fill="#3F2D1F"/>
<path d="M153.366 77.7232C153.239 77.7137 153.119 77.6622 153.025 77.5768C152.43 77.0674 151.686 76.7671 150.904 76.7219C150.123 76.6768 149.348 76.8892 148.7 77.3267C148.576 77.3692 148.443 77.3711 148.319 77.3323C148.194 77.2935 148.086 77.2159 148.009 77.1109C147.932 77.0059 147.89 76.8791 147.891 76.7489C147.891 76.6187 147.933 76.492 148.01 76.3873C148.867 75.7936 149.896 75.5003 150.936 75.5533C151.977 75.6063 152.971 76.0025 153.763 76.6801C153.842 76.7617 153.897 76.8639 153.921 76.9751C153.946 77.0863 153.938 77.2021 153.9 77.3093C153.862 77.4166 153.795 77.511 153.706 77.582C153.617 77.653 153.51 77.6977 153.397 77.711L153.366 77.7232Z" fill="#3F2D1F"/>
<path d="M182.561 111.44L179.304 107.206L166.371 111.739L164.273 115.399L162.857 112.135L160.893 109.988L158.85 113.916C158.85 113.916 158.911 117.863 163.907 118.913C168.903 119.962 179.798 115.893 182.561 111.44Z" fill="#9C897A"/>
<path d="M184.955 79.633C184.273 79.4286 183.548 79.4125 182.857 79.5864C182.167 79.7604 181.536 80.118 181.032 80.6213C179.123 82.372 179.769 84.0984 179.769 84.0984C179.769 84.0984 180.654 82.0182 182.545 82.2683C184.436 82.5185 185.809 87.6061 183.283 88.5577C180.758 89.5094 177.531 88.0575 177.647 84.1228C177.762 80.1881 179.202 77.9616 181.581 77.626C182.291 77.4958 183.024 77.6274 183.645 77.9965C184.265 78.3655 184.73 78.947 184.955 79.633Z" fill="#027C4F"/>
<path d="M167.095 99.4157C166.963 99.4211 166.833 99.3755 166.733 99.2882C166.633 99.2009 166.57 99.0786 166.558 98.9465C166.545 98.8144 166.584 98.6825 166.666 98.578C166.748 98.4735 166.866 98.4044 166.998 98.3848C176.758 96.4998 180.101 87.2884 180.132 87.1969C180.154 87.1324 180.188 87.0729 180.233 87.0217C180.278 86.9706 180.333 86.9288 180.394 86.8988C180.455 86.8688 180.522 86.8511 180.59 86.8468C180.658 86.8424 180.726 86.8515 180.79 86.8736C180.855 86.8956 180.914 86.9301 180.966 86.9751C181.017 87.0202 181.059 87.0748 181.089 87.136C181.119 87.1972 181.136 87.2637 181.141 87.3317C181.145 87.3997 181.136 87.4679 181.114 87.5324C181.077 87.63 177.582 97.4087 167.193 99.4035L167.095 99.4157Z" fill="#027C4F"/>
<path d="M164.912 99.0746C164.912 99.5078 165.041 99.9312 165.281 100.291C165.522 100.651 165.864 100.932 166.264 101.098C166.664 101.264 167.105 101.307 167.529 101.223C167.954 101.138 168.344 100.929 168.651 100.623C168.957 100.317 169.166 99.9267 169.25 99.5019C169.335 99.0771 169.291 98.6367 169.125 98.2366C168.96 97.8364 168.679 97.4944 168.319 97.2537C167.959 97.0131 167.535 96.8846 167.102 96.8846C166.521 96.8846 165.964 97.1154 165.554 97.5261C165.143 97.9368 164.912 98.4938 164.912 99.0746Z" fill="#03C27C"/>
<path d="M182.308 83.1893C182.308 83.1893 182.034 85.6294 182.564 86.9043C183.095 88.1793 183.925 87.5144 184.09 85.9527C184.254 84.391 182.668 82.1827 182.308 83.1893Z" fill="#03C27C"/>
<path d="M161.475 82.3783C161.475 82.3783 161.475 84.6354 164.433 85.0075C167.392 85.3796 167.929 82.3783 167.929 82.3783C166.858 81.4299 165.506 80.8598 164.079 80.7556C161.914 80.7129 161.475 82.3783 161.475 82.3783Z" fill="white"/>
<path d="M147.974 82.3779C147.974 82.3779 147.974 84.635 150.871 85.0071C153.769 85.3792 154.147 82.3779 154.147 82.3779C153.172 81.4209 151.887 80.8452 150.524 80.7552C149.977 80.693 149.426 80.8202 148.962 81.1156C148.498 81.4109 148.149 81.8564 147.974 82.3779Z" fill="white"/>
<path d="M154.147 82.378C154.147 82.378 152.598 80.676 150.938 80.371C149.279 80.066 148.144 80.8773 147.974 82.378C148.124 81.9712 148.395 81.62 148.75 81.3714C149.106 81.1229 149.529 80.9888 149.962 80.9871C151.616 80.8346 154.147 82.378 154.147 82.378Z" fill="#3F2D1F"/>
<path d="M167.929 82.3784C167.929 82.3784 166.312 80.6033 164.58 80.28C162.847 79.9566 161.658 80.8046 161.475 82.3784C161.631 81.9523 161.915 81.5843 162.286 81.3237C162.658 81.0631 163.101 80.9224 163.555 80.9205C165.287 80.7619 167.929 82.3784 167.929 82.3784Z" fill="#3F2D1F"/>
<path d="M156.983 82.4578L155.623 90.6809C154.733 90.6923 153.851 90.5134 153.036 90.1563C153.036 90.1563 156.599 83.3667 156.983 82.4578Z" fill="#D37A57"/>
<path d="M116.425 209.343C116.425 209.343 116.205 202.773 123.605 200.717C131.004 198.661 140.014 204.676 141.46 209.343H116.425Z" fill="#03C27C"/>
<path d="M164.311 85.2999C165.335 85.2999 166.165 84.2511 166.165 82.9574C166.165 81.6637 165.335 80.6149 164.311 80.6149C163.286 80.6149 162.456 81.6637 162.456 82.9574C162.456 84.2511 163.286 85.2999 164.311 85.2999Z" fill="#3F2D1F"/>
<path d="M153.165 83.0308C153.165 84.2814 152.36 85.3001 151.335 85.3001C150.31 85.3001 149.505 84.2814 149.505 83.0308C149.505 81.7803 150.316 80.7554 151.335 80.7554C152.354 80.7554 153.165 81.7742 153.165 83.0308Z" fill="#3F2D1F"/>
<path d="M172.511 88.82C172.511 89.8449 171.29 90.6501 169.808 90.6501C168.326 90.6501 167.1 89.8205 167.1 88.82C167.1 87.8196 168.32 86.99 169.808 86.99C171.297 86.99 172.511 87.8013 172.511 88.82Z" fill="#D37A57"/>
<path d="M150.42 87.9473C150.42 88.9661 149.2 89.7774 147.718 89.7774C146.236 89.7774 145.016 88.9478 145.016 87.9473C145.016 86.9469 146.236 86.1172 147.718 86.1172C149.2 86.1172 150.42 86.9103 150.42 87.9473Z" fill="#D37A57"/>
<path d="M221.345 188.401C219.645 193.572 216.374 198.085 211.987 201.309C209.307 203.285 206.307 204.785 203.118 205.744C190.38 209.605 143.262 209.343 143.262 209.343L145.037 195.099L197.835 183.228C197.835 183.228 191.002 161.566 191.307 144.064C191.576 127.776 196.438 121.06 201.91 124.232C202.34 124.49 202.748 124.784 203.13 125.11C203.13 125.11 211.469 137.537 220.07 163.048C223.572 173.455 223.511 181.849 221.345 188.401Z" fill="#9D9D50"/>
<path d="M139.644 196.959L128.444 194.916C127.048 194.732 125.629 194.917 124.326 195.453C122.271 196.343 119.934 200.687 119.934 200.687C121.093 200.686 122.219 200.297 123.131 199.583C123.824 199.032 124.33 198.279 124.577 197.429L128.682 197.746L128.755 198.698C126.316 199.2 123.914 199.872 121.569 200.711C119.233 201.712 118.013 204.768 118.013 204.768C118.013 204.768 121.063 204.322 122.624 202.431L128.987 201.712L129.036 202.322C127.024 202.444 125.047 202.902 123.186 203.676C119.904 205.122 118.916 207.068 118.916 207.068C118.916 207.068 122.204 207.068 124.509 205.286L126.065 205.158C124.528 206.146 123.204 208.513 123.204 208.513C123.204 208.513 123.869 208.684 125.37 208.013C126.87 207.342 127.261 206.586 127.261 206.586L131.641 206.915C133.916 207.238 137.351 207.556 139.315 206.915L143.506 207.556L144.817 197.014L139.644 196.959Z" fill="#FF996A"/>
<path d="M232.89 216.206H22.2782C21.8245 216.207 21.375 216.119 20.9555 215.947C20.5359 215.775 20.1545 215.521 19.8331 215.201C19.5118 214.88 19.2568 214.5 19.0829 214.081C18.9089 213.662 18.8193 213.213 18.8193 212.759C18.8274 211.848 19.1957 210.978 19.8439 210.337C20.492 209.697 21.3672 209.34 22.2782 209.343H232.89C233.804 209.343 234.681 209.706 235.327 210.353C235.974 210.999 236.337 211.876 236.337 212.79C236.329 213.699 235.962 214.567 235.316 215.207C234.671 215.847 233.799 216.206 232.89 216.206Z" fill="#03C27C"/>
<path d="M152.16 216.206H20.9C19.7593 216.206 18.832 214.663 18.832 212.76C18.832 210.856 19.7593 209.313 20.9 209.313H152.16C153.3 209.313 154.228 210.856 154.228 212.76C154.246 214.663 153.3 216.206 152.16 216.206Z" fill="#B3EDD8"/>
<path d="M112.463 196.032H39.9307C38.7431 196.032 37.5913 195.626 36.666 194.882C35.7407 194.137 35.0975 193.099 34.8431 191.939L25.4669 149.359C25.3593 148.87 25.3627 148.363 25.477 147.875C25.5912 147.388 25.8134 146.932 26.1271 146.541C26.4409 146.151 26.8382 145.836 27.2898 145.619C27.7414 145.403 28.2358 145.29 28.7367 145.29H102.086C103.139 145.291 104.16 145.651 104.98 146.311C105.799 146.971 106.369 147.892 106.594 148.92L116.001 191.622C116.112 192.151 116.104 192.698 115.978 193.224C115.853 193.749 115.612 194.241 115.274 194.663C114.935 195.084 114.508 195.426 114.022 195.663C113.536 195.899 113.003 196.026 112.463 196.032Z" fill="#B3EDD8"/>
<path d="M51.8299 188.816C51.2199 191.866 47.6634 193.732 43.8996 192.982C40.1357 192.232 37.537 189.145 38.1409 186.095C38.7448 183.045 42.3074 181.178 46.0713 181.935C49.8351 182.691 52.4338 185.766 51.8299 188.816Z" fill="#B3EDD8"/>
<path d="M116.005 191.652L106.598 148.95C106.379 147.916 105.812 146.989 104.991 146.323C104.171 145.657 103.147 145.292 102.09 145.29H97.8623C98.9233 145.287 99.9531 145.649 100.779 146.315C101.604 146.982 102.175 147.912 102.395 148.95L111.801 191.652C111.911 192.181 111.903 192.727 111.777 193.252C111.65 193.777 111.409 194.268 111.071 194.689C110.733 195.11 110.306 195.451 109.82 195.687C109.335 195.924 108.803 196.05 108.263 196.057H112.491C113.029 196.046 113.558 195.918 114.04 195.68C114.523 195.442 114.947 195.1 115.282 194.68C115.618 194.259 115.856 193.77 115.981 193.247C116.106 192.723 116.114 192.179 116.005 191.652Z" fill="#03C27C"/>
<path d="M103.448 207.604C103.448 208.057 103.268 208.492 102.947 208.812C102.627 209.133 102.193 209.313 101.74 209.313H41.5299C40.8953 209.313 40.2724 209.142 39.7278 208.816C39.1832 208.49 38.7373 208.023 38.4379 207.463C38.1384 206.904 37.9966 206.274 38.0276 205.64C38.0586 205.006 38.2613 204.393 38.614 203.865L53.5169 181.538C53.7261 181.229 54.0077 180.975 54.3374 180.8C54.667 180.624 55.0346 180.532 55.408 180.531H81.4623C81.6758 180.533 81.8853 180.59 82.0697 180.698C82.2542 180.805 82.4072 180.959 82.5134 181.145C82.6196 181.33 82.6753 181.54 82.675 181.753C82.6747 181.967 82.6183 182.177 82.5115 182.361L69.9328 204.097C69.8265 204.281 69.7701 204.489 69.7692 204.702C69.7684 204.914 69.823 205.124 69.9278 205.308C70.0326 205.493 70.1838 205.648 70.3666 205.756C70.5494 205.865 70.7573 205.923 70.9698 205.927H101.74C102.193 205.927 102.627 206.107 102.947 206.427C103.268 206.747 103.448 207.182 103.448 207.635V207.604Z" fill="#03C27C"/>
<path d="M85.5764 170.362H48.6332C48.4277 170.362 48.2306 170.281 48.0853 170.135C47.94 169.99 47.8584 169.793 47.8584 169.588C47.8576 169.485 47.8771 169.384 47.9156 169.289C47.9542 169.194 48.0111 169.108 48.0832 169.036C48.1552 168.963 48.2409 168.906 48.3353 168.866C48.4297 168.827 48.5309 168.807 48.6332 168.807H85.5764C85.6786 168.807 85.7799 168.827 85.8743 168.866C85.9687 168.906 86.0544 168.963 86.1264 169.036C86.1984 169.108 86.2553 169.194 86.2939 169.289C86.3325 169.384 86.3519 169.485 86.3511 169.588C86.3511 169.793 86.2695 169.99 86.1242 170.135C85.9789 170.281 85.7819 170.362 85.5764 170.362Z" fill="#03C27C"/>
<path d="M87.3559 175.036H50.4127C50.2066 175.036 50.0089 174.954 49.8627 174.809C49.7164 174.664 49.6334 174.467 49.6318 174.261C49.6318 174.054 49.7141 173.855 49.8605 173.709C50.007 173.562 50.2056 173.48 50.4127 173.48H87.3559C87.4582 173.48 87.5594 173.5 87.6538 173.54C87.7482 173.579 87.8339 173.637 87.9059 173.709C87.9779 173.782 88.0349 173.868 88.0734 173.963C88.112 174.057 88.1314 174.159 88.1306 174.261C88.1306 174.466 88.049 174.663 87.9037 174.809C87.7584 174.954 87.5614 175.036 87.3559 175.036Z" fill="#03C27C"/>
<path d="M26.2286 147.816H104.452C105.077 147.813 105.697 147.922 106.282 148.139C105.932 147.295 105.339 146.575 104.579 146.068C103.819 145.561 102.926 145.29 102.012 145.29H28.6504C27.8901 145.291 27.1528 145.551 26.5597 146.026C25.9666 146.502 25.5529 147.165 25.3867 147.907C25.663 147.845 25.9454 147.815 26.2286 147.816Z" fill="#B3EDD8"/>
<path d="M106.598 188.824C107.203 185.774 104.624 182.692 100.837 181.94C97.0502 181.188 93.4892 183.051 92.8836 186.101C92.278 189.152 94.8571 192.234 98.6442 192.986C102.431 193.738 105.992 191.874 106.598 188.824Z" fill="#B3EDD8"/>
<path d="M103.443 207.726C103.397 208.167 103.187 208.575 102.855 208.869C102.523 209.163 102.093 209.321 101.649 209.313H67.3842C66.7192 209.313 66.0815 209.048 65.6113 208.578C65.1411 208.108 64.877 207.47 64.877 206.805C64.8747 206.332 65.0103 205.867 65.2674 205.469L81.0061 180.531H81.4636C81.6772 180.533 81.8866 180.59 82.0711 180.698C82.2555 180.805 82.4085 180.959 82.5147 181.145C82.6209 181.33 82.6767 181.54 82.6763 181.753C82.676 181.967 82.6196 182.177 82.5129 182.361L69.9341 204.097C69.8278 204.281 69.7714 204.489 69.7706 204.702C69.7697 204.914 69.8244 205.124 69.9291 205.308C70.0339 205.493 70.1852 205.648 70.368 205.756C70.5507 205.865 70.7587 205.923 70.9712 205.927H101.741C101.975 205.927 102.207 205.976 102.422 206.069C102.637 206.163 102.83 206.3 102.99 206.472C103.15 206.643 103.272 206.846 103.35 207.067C103.428 207.288 103.46 207.523 103.443 207.757V207.726Z" fill="#342B65"/>
<path d="M203.111 205.743C190.38 209.605 143.262 209.342 143.262 209.342L204.185 193.128C207.263 192.318 209.93 190.392 211.666 187.724C213.401 185.056 214.081 181.837 213.573 178.695C210.895 161.864 205.716 131.668 201.91 124.232C202.34 124.49 202.748 124.784 203.13 125.11C203.13 125.11 211.469 137.536 220.07 163.048C228.672 188.559 215.855 201.888 203.111 205.743Z" fill="#74732B"/>
<path d="M199.523 183.796C205.364 184.005 210.947 186.247 215.311 190.134" stroke="#9C897A" stroke-linecap="round" stroke-linejoin="round"/>
<path d="M181.298 112.958C181.298 112.958 192.76 116.856 198.379 123.542" stroke="#E5BC89" stroke-linecap="round" stroke-linejoin="round"/>
<path d="M124.243 161.81C124.243 161.81 130.569 170.009 131.38 179.452" stroke="#9C897A" stroke-linecap="round" stroke-linejoin="round"/>
<path d="M156.985 113.978C156.985 113.978 154.575 120.731 164.616 121.56C174.657 122.39 185.687 112.526 185.687 112.526" stroke="#E5BC89" stroke-linecap="round" stroke-linejoin="round"/>
<path d="M143.235 196.96L140.887 207.105L143.467 207.507L144.779 196.96H143.235Z" fill="#D37A57"/>
<path d="M163.907 118.912C163.907 118.912 160.924 127.404 158.85 149.365" stroke="#E5BC89" stroke-linecap="round" stroke-linejoin="round"/>
<path d="M183.152 67.3163C183.152 67.3163 178.455 66.2 174.209 67.8348" stroke="#543E2F" stroke-linecap="round" stroke-linejoin="round"/>
<path d="M152.322 64.8769C152.322 64.8769 151.846 71.7519 160.545 72.7341" stroke="#543E2F" stroke-linecap="round" stroke-linejoin="round"/>
<path d="M183.929 62.7843C183.929 62.7843 184.941 65.5172 184.063 67.2192" stroke="#543E2F" stroke-linecap="round" stroke-linejoin="round"/>
<path d="M144.537 59.9959C144.468 61.2674 144.813 62.5269 145.519 63.5866C146.224 64.6464 147.254 65.4496 148.453 65.8766" stroke="#543E2F" stroke-linecap="round" stroke-linejoin="round"/>
<path d="M146.109 67.8167C146.109 67.8167 145.304 70.9766 148.287 72.337" stroke="#543E2F" stroke-linecap="round" stroke-linejoin="round"/>
<path d="M160.028 57.0502C160.028 57.0502 165.592 54.6101 173.492 58.1665C180.617 61.3692 181.3 65.3527 181.3 65.3527" stroke="#543E2F" stroke-linecap="round" stroke-linejoin="round"/>
<path d="M183.929 69.0366C184.439 69.3371 184.856 69.7734 185.133 70.2969C185.409 70.8204 185.535 71.4105 185.496 72.0014C185.427 73.5533 185.061 75.0775 184.417 76.4912" stroke="#543E2F" stroke-linecap="round" stroke-linejoin="round"/>
<path d="M157.808 68.232C157.808 68.232 158.912 71.1723 165.384 71.4956C171.857 71.8189 173.925 71.825 175.712 73.9357C176.226 74.5294 176.6 75.2319 176.804 75.9905C177.007 76.7492 177.037 77.5441 176.889 78.3157" stroke="#543E2F" stroke-linecap="round" stroke-linejoin="round"/>
<path d="M155.38 3.05903e-06H96.4882C95.6746 -3.28358e-06 94.8691 0.160639 94.1177 0.472717C93.3664 0.784794 92.6841 1.24216 92.1099 1.81858C91.5358 2.39499 91.0811 3.0791 90.772 3.83166C90.4629 4.58422 90.3054 5.39041 90.3086 6.20398V16.2572C90.3103 17.8951 90.962 19.4653 92.1207 20.6229C93.2795 21.7805 94.8504 22.4307 96.4882 22.4307H104.29L102.46 28.7018C102.388 28.9591 102.394 29.2325 102.48 29.4859C102.566 29.7393 102.726 29.9609 102.94 30.1213C103.154 30.2818 103.411 30.3737 103.679 30.3849C103.946 30.3961 104.21 30.3261 104.437 30.1841L116.637 22.4307H155.356C156.169 22.4347 156.976 22.278 157.729 21.9697C158.481 21.6613 159.166 21.2073 159.743 20.6337C160.32 20.0601 160.778 19.3783 161.091 18.6272C161.404 17.8762 161.565 17.0708 161.566 16.2572V6.20398C161.569 5.3899 161.411 4.58321 161.102 3.83025C160.792 3.07729 160.337 2.39291 159.762 1.81641C159.188 1.23992 158.505 0.78268 157.753 0.470962C157.001 0.159244 156.194 -0.000806926 155.38 3.05903e-06Z" fill="#D9D9D9"/>
<path d="M98.3193 6.03378H153.893" stroke="white" stroke-linecap="round" stroke-linejoin="round"/>
<path d="M98.3193 10.7487H153.893" stroke="white" stroke-linecap="round" stroke-linejoin="round"/>
<path d="M98.3193 15.4645H153.893" stroke="white" stroke-linecap="round" stroke-linejoin="round"/>
<path d="M59.4343 111.287C87.1282 111.287 109.578 88.8369 109.578 61.143C109.578 33.4491 87.1282 10.9988 59.4343 10.9988C31.7404 10.9988 9.29004 33.4491 9.29004 61.143C9.29004 88.8369 31.7404 111.287 59.4343 111.287Z" stroke="#BBBFBD" stroke-miterlimit="10"/>
<path d="M106.395 61.1428C106.401 67.3128 105.19 73.4234 102.831 79.1249C100.472 84.8263 97.0127 90.0067 92.6499 94.3696C88.287 98.7325 83.1066 102.192 77.4052 104.551C71.7037 106.909 65.5931 108.12 59.4231 108.115C58.996 108.115 58.569 108.115 58.1481 108.115C57.8858 108.115 57.6235 108.115 57.3673 108.078C57.1111 108.042 57.0013 108.078 56.8121 108.078C56.623 108.078 56.257 108.078 55.9825 108.023C55.8662 108.019 55.7501 108.009 55.6348 107.993C55.3054 107.993 54.9821 107.944 54.6588 107.914C54.3354 107.883 53.9084 107.834 53.5363 107.785L65.1268 90.9914L34.3144 57.5009L14.1835 73.7581C13.976 73.0078 13.7808 72.2514 13.61 71.4827C13.5429 71.1899 13.4819 70.8727 13.4209 70.6043C13.3599 70.3359 13.2684 69.8357 13.2013 69.4513C13.1586 69.1951 13.1098 68.945 13.0732 68.6888C13.0122 68.3228 12.9573 67.9507 12.9085 67.5786C12.9085 67.3712 12.8475 67.1698 12.8231 66.9685C12.7865 66.6452 12.7438 66.3219 12.7133 65.9986V65.8095C12.7133 65.4618 12.6462 65.1141 12.6218 64.7602C12.5974 64.4064 12.5669 63.9794 12.5486 63.589C12.5486 63.1864 12.5059 62.7899 12.4998 62.3689C12.4937 61.948 12.4998 61.5637 12.4998 61.1489C12.5008 49.6828 16.6957 38.6129 24.294 30.0258C31.8923 21.4387 42.3691 15.9274 53.7498 14.5306C55.6466 14.3026 57.5553 14.1885 59.4658 14.189C67.0776 14.1775 74.5769 16.0267 81.3108 19.5755L60.8261 36.0951L74.4785 77.4915L100.954 39.2123C104.536 45.9665 106.405 53.4973 106.395 61.1428Z" fill="#B3EDD8"/>
<path d="M17.5983 39.4813L34.1911 57.4466L14.0602 73.7099C13.8528 72.9534 13.6636 72.197 13.4867 71.4284C13.4257 71.1417 13.3586 70.8183 13.3037 70.556C13.2244 70.1717 13.1451 69.7813 13.0841 69.397C13.0353 69.1469 12.9926 68.8907 12.956 68.6344C12.8889 68.2684 12.8401 67.8963 12.7852 67.5303C12.7852 67.3168 12.7303 67.1155 12.7059 66.9203C12.6632 66.6031 12.6266 66.2736 12.5961 65.9503V65.7612C12.5595 65.4135 12.529 65.0658 12.5046 64.712C12.4802 64.3582 12.4436 63.9311 12.4314 63.5407C12.4314 63.1381 12.3887 62.7416 12.3826 62.3207C12.3765 61.8998 12.3826 61.5154 12.3826 61.1006C12.3576 53.5796 14.1468 46.1635 17.5983 39.4813Z" fill="#B3EDD8"/>
<path d="M77.4974 104.418C71.7401 106.837 65.5574 108.081 59.3125 108.078C58.8794 108.078 58.4585 108.078 58.0376 108.078C57.7753 108.078 57.513 108.078 57.2506 108.048C56.9883 108.017 56.8846 108.048 56.7016 108.048C56.421 108.048 56.1465 108.048 55.872 107.993H55.5243C55.1949 107.993 54.8715 107.938 54.5421 107.907L53.4258 107.779L65.0163 90.9851L77.4974 104.418Z" fill="#B3EDD8"/>
<path d="M81.1518 19.5268L60.7037 36.0403L53.5908 14.4819C55.4876 14.2537 57.3963 14.1396 59.3068 14.1403C66.9187 14.1278 74.4183 15.977 81.1518 19.5268Z" fill="#B3EDD8"/>
<path d="M106.269 61.1066C106.273 69.4192 104.07 77.5839 99.8831 84.7652C95.6965 91.9466 89.6772 97.8869 82.4412 101.978L74.334 77.4431L100.834 39.1456C104.418 45.9099 106.284 53.4515 106.269 61.1066Z" fill="#B3EDD8"/>
<path d="M65.0432 90.9L53.4527 107.694C53.1599 107.664 52.8427 107.621 52.5682 107.572C52.2937 107.523 52.0802 107.505 51.8361 107.462C51.5921 107.42 51.2993 107.377 51.0248 107.328C50.7503 107.279 50.305 107.2 49.9451 107.121L49.03 106.925L48.4566 106.791C48.2004 106.736 47.9503 106.669 47.6941 106.608C46.8705 106.401 46.0531 106.163 45.2539 105.907L44.3755 105.62L43.2104 105.211C42.8504 105.083 42.4905 104.943 42.1367 104.803C41.7829 104.662 41.423 104.522 41.0753 104.369L40.0382 103.918L39.0073 103.436C37.9641 102.936 36.9515 102.399 35.9571 101.826L35.0238 101.271C34.3772 100.88 33.7366 100.465 33.1205 100.05C32.8033 99.843 32.5105 99.6295 32.1933 99.4404C31.8761 99.2513 31.5832 98.9951 31.2721 98.7694H31.2355L30.3815 98.1167L29.6434 97.5066C29.2834 97.2199 28.9357 96.8966 28.5819 96.616L27.734 95.8779L26.9531 95.1519L26.8738 95.0787L26.1052 94.3223L25.4464 93.6513C25.1414 93.3402 24.8363 93.0412 24.5557 92.6935C24.2751 92.3458 24.0494 92.1323 23.8054 91.8456C23.5614 91.5589 23.4211 91.4003 23.2381 91.1746C23.1222 91.0464 23.0185 90.9183 22.9148 90.7841C22.7256 90.5584 22.5487 90.3327 22.3657 90.107C22.1827 89.8813 21.9692 89.6007 21.7557 89.3384C21.5422 89.0761 21.2433 88.6551 20.9993 88.3013L20.3709 87.3375C20.2245 87.1179 20.0781 86.8983 19.9317 86.6665C19.8402 86.5383 19.7548 86.398 19.6633 86.2577C19.2729 85.6477 18.8886 85.0377 18.5226 84.3728L18.0223 83.4638C17.638 82.7623 17.272 82.0486 16.9304 81.3226C16.7779 81.0237 16.6376 80.7126 16.5034 80.4076C16.3692 80.1026 16.2106 79.7609 16.0702 79.4315C16.0702 79.4315 16.0702 79.3827 16.0702 79.3583C15.9299 79.0167 15.7835 78.669 15.6432 78.3213C15.6452 78.3071 15.6452 78.2927 15.6432 78.2786C15.5029 77.9309 15.3748 77.5771 15.2467 77.2232C15.1186 76.8694 14.9966 76.5461 14.8807 76.1984C14.7648 75.8507 14.6733 75.5884 14.5696 75.2651C14.4659 74.9417 14.4293 74.7953 14.3561 74.5635C14.3541 74.5494 14.3541 74.535 14.3561 74.5208L14.1182 73.7034L34.1942 57.4462L65.0432 90.9Z" fill="#03C27C"/>
<path d="M100.832 39.1446L74.3321 77.4421L60.6797 36.0396L81.1278 19.5261C89.5235 23.9294 96.3919 30.7681 100.832 39.1446Z" fill="#03C27C"/>
<path d="M74.3585 77.4426L65.0434 90.8998L34.1943 57.4581L60.7061 36.04L74.3585 77.4426Z" fill="#B3EDD8"/>
<path d="M68.0038 54.5671L68.1502 52.0964L69.7973 51.3034C72.1129 50.2002 74.0684 48.4635 75.4374 46.2945C76.8064 44.1254 77.5328 41.6129 77.5325 39.048C77.5322 34.5013 76.0858 30.0726 73.4026 26.4021L71.5725 23.8766L55.8643 29.135L56.0046 35.034H54.9676C53.9548 35.034 52.9834 35.4363 52.2673 36.1525C51.5511 36.8686 51.1488 37.84 51.1488 38.8528C51.1488 39.354 51.2476 39.8502 51.4396 40.3132C51.6316 40.7762 51.913 41.1968 52.2677 41.5509C52.6223 41.905 53.0434 42.1857 53.5066 42.377C53.9699 42.5682 54.4664 42.6662 54.9676 42.6654H56.1876L56.3706 50.6751V53.4812C53.9245 55.6051 51.1465 57.3135 48.1475 58.5383C48.1475 58.5383 54.1501 66.0722 64.0692 66.5663C73.9882 67.0604 74.3298 61.1065 74.3298 61.1065C72.0718 59.7559 69.9093 58.2517 67.8574 56.6045L68.0038 54.5671Z" fill="#FF996A"/>
<path d="M68.153 52.0956L68.0066 54.5662C67.5856 54.5174 67.1464 54.4503 66.695 54.371C59.6736 53.09 56.9346 46.7396 57.2091 43.4698C57.2091 43.4698 59.576 51.3453 68.153 52.0956Z" fill="#D37A57"/>
<path d="M54.8106 37.7606C55.1266 37.9711 55.3612 38.2832 55.4755 38.6452C55.3047 38.7171 55.1572 38.835 55.0495 38.9858C54.9418 39.1366 54.8781 39.3143 54.8655 39.4992C54.8643 39.6983 54.9214 39.8934 55.0298 40.0603C55.1382 40.2273 55.2932 40.3588 55.4755 40.4387C55.3394 40.6795 55.1142 40.8572 54.8484 40.9336C54.5826 41.0101 54.2974 40.9791 54.0542 40.8474C53.1635 40.3655 53.3099 38.694 54.1945 38.3402C54.1945 38.3402 52.7914 38.1816 52.279 38.694C52.2573 38.5044 52.2899 38.3126 52.3731 38.1409C52.4563 37.9691 52.5865 37.8246 52.7487 37.724C53.0486 37.5027 53.4131 37.3863 53.7859 37.3929C54.1586 37.3995 54.5187 37.5288 54.8106 37.7606Z" fill="#D37A57"/>
<path d="M67.8092 33.1125C67.7252 33.1136 67.6446 33.1463 67.5835 33.204C67.2168 33.5374 66.7509 33.7412 66.2572 33.7842C65.7635 33.8272 65.2693 33.7069 64.8506 33.4419C64.7697 33.3861 64.6699 33.3647 64.5732 33.3824C64.4766 33.4001 64.3909 33.4556 64.3351 33.5364C64.2793 33.6173 64.2579 33.7171 64.2756 33.8138C64.2933 33.9104 64.3488 33.9961 64.4296 34.0519C64.985 34.4183 65.6469 34.5885 66.3101 34.5354C66.9733 34.4823 67.5997 34.2091 68.0898 33.7591C68.1624 33.6946 68.2068 33.6042 68.2137 33.5073C68.2205 33.4104 68.1892 33.3147 68.1264 33.2406C68.088 33.195 68.039 33.1595 67.9837 33.1372C67.9284 33.1149 67.8685 33.1064 67.8092 33.1125Z" fill="#3F2D1F"/>
<path d="M76.0628 34.0152C75.9889 33.9731 75.9026 33.958 75.8188 33.9725C75.3333 34.0739 74.828 34.0129 74.3806 33.7991C73.9331 33.5853 73.5682 33.2304 73.3421 32.7891C73.3217 32.7454 73.2928 32.7062 73.2573 32.6737C73.2217 32.6412 73.18 32.616 73.1347 32.5995C73.0894 32.5831 73.0413 32.5758 72.9931 32.5779C72.945 32.5801 72.8977 32.5917 72.8541 32.6122C72.8104 32.6326 72.7712 32.6614 72.7387 32.697C72.7062 32.7326 72.681 32.7742 72.6646 32.8195C72.6481 32.8648 72.6408 32.913 72.6429 32.9611C72.6451 33.0093 72.6567 33.0565 72.6772 33.1002C72.9707 33.6901 73.4513 34.1662 74.0439 34.4543C74.6365 34.7423 75.3078 34.826 75.953 34.6923C76.0003 34.6835 76.0454 34.6655 76.0857 34.6393C76.126 34.6131 76.1607 34.5792 76.1879 34.5395C76.2151 34.4998 76.2342 34.4552 76.2441 34.4082C76.2541 34.3611 76.2547 34.3126 76.2458 34.2653C76.2363 34.2125 76.2149 34.1625 76.1832 34.1192C76.1515 34.0758 76.1103 34.0403 76.0628 34.0152Z" fill="#3F2D1F"/>
<path d="M67.6194 37.4742C67.6194 37.4742 67.6194 38.9016 65.7466 39.1395C65.2337 39.2029 64.7162 39.0647 64.3031 38.7541C63.89 38.4434 63.6137 37.9846 63.5322 37.4742C64.2109 36.8737 65.0685 36.5136 65.9723 36.4493C66.3224 36.4083 66.676 36.4874 66.9752 36.6736C67.2744 36.8598 67.5016 37.142 67.6194 37.4742Z" fill="white"/>
<path d="M76.16 37.4738C76.16 37.4738 76.16 38.9012 74.3299 39.1391C72.4999 39.3771 72.2559 37.4738 72.2559 37.4738C72.8738 36.8696 73.6872 36.5061 74.5496 36.4489C74.8949 36.4087 75.2435 36.4886 75.5368 36.6753C75.8301 36.8619 76.0502 37.1439 76.16 37.4738Z" fill="white"/>
<path d="M72.251 37.4738C72.7986 36.8752 73.4987 36.4366 74.2763 36.205C74.4842 36.1365 74.7049 36.1166 74.9217 36.1467C75.1385 36.1768 75.3455 36.2561 75.5269 36.3786C75.7083 36.5011 75.8592 36.6635 75.9681 36.8533C76.077 37.0432 76.141 37.2554 76.1552 37.4738C76.0607 37.216 75.8898 36.9931 75.6652 36.835C75.4406 36.6769 75.1731 36.5912 74.8985 36.5893C73.8492 36.4917 72.251 37.4738 72.251 37.4738Z" fill="#3F2D1F"/>
<path d="M63.5273 37.4733C64.101 36.8453 64.8349 36.3856 65.6502 36.1435C66.7483 35.9421 67.4803 36.479 67.6145 37.4733C67.515 37.2037 67.3355 36.971 67.1 36.8064C66.8644 36.6418 66.5842 36.5531 66.2969 36.5522C65.1805 36.4485 63.5273 37.4733 63.5273 37.4733Z" fill="#3F2D1F"/>
<path d="M70.4521 37.5163L71.3184 42.7198C71.8811 42.727 72.4388 42.6125 72.9533 42.3843C72.9533 42.3843 70.7023 38.0958 70.4521 37.5163Z" fill="#D37A57"/>
<path d="M64.6439 37.8398C64.6936 38.0653 64.8063 38.2721 64.9688 38.4361C65.1313 38.6001 65.3371 38.7146 65.5621 38.7664C65.7872 38.8181 66.0223 38.8049 66.2401 38.7283C66.4579 38.6517 66.6496 38.5149 66.7927 38.3337C66.9359 38.1525 67.0247 37.9344 67.0488 37.7048C67.0729 37.4751 67.0314 37.2434 66.929 37.0364C66.8266 36.8294 66.6676 36.6557 66.4705 36.5356C66.2733 36.4154 66.0461 36.3536 65.8152 36.3574C65.4653 36.4032 65.1471 36.5838 64.9284 36.8606C64.7096 37.1375 64.6076 37.4888 64.6439 37.8398Z" fill="#3F2D1F"/>
<path d="M72.8684 37.8826C72.9177 38.0972 73.0265 38.2935 73.1823 38.4491C73.3381 38.6047 73.5346 38.7132 73.7492 38.7622C73.9639 38.8112 74.188 38.7987 74.3958 38.7261C74.6037 38.6536 74.7869 38.5239 74.9245 38.352C75.062 38.1801 75.1483 37.9728 75.1734 37.7541C75.1986 37.5354 75.1616 37.314 75.0667 37.1153C74.9718 36.9167 74.8228 36.7488 74.6368 36.631C74.4508 36.5131 74.2354 36.4501 74.0152 36.4491C73.6751 36.4919 73.3652 36.6656 73.151 36.9333C72.9369 37.2009 72.8355 37.5414 72.8684 37.8826Z" fill="#3F2D1F"/>
<path d="M62.347 42.7205C63.2937 42.7205 64.0612 42.1961 64.0612 41.5493C64.0612 40.9024 63.2937 40.378 62.347 40.378C61.4003 40.378 60.6328 40.9024 60.6328 41.5493C60.6328 42.1961 61.4003 42.7205 62.347 42.7205Z" fill="#D37A57"/>
<path d="M76.3206 42.1591C77.2673 42.1591 78.0348 41.6347 78.0348 40.9879C78.0348 40.341 77.2673 39.8166 76.3206 39.8166C75.3739 39.8166 74.6064 40.341 74.6064 40.9879C74.6064 41.6347 75.3739 42.1591 76.3206 42.1591Z" fill="#D37A57"/>
<path d="M71.0749 44.7273C71.0749 44.7273 68.3115 44.8188 67.1951 45.8436C66.0788 46.8685 70.2026 47.1796 71.0749 46.777C71.9472 46.3743 72.3316 44.5931 71.0749 44.7273Z" fill="white"/>
<path d="M64.3385 36.9127C64.1513 36.9896 63.9479 37.0187 63.7466 36.9974C63.5453 36.9761 63.3525 36.905 63.1855 36.7907C63.1855 36.7907 63.2404 37.3519 63.5272 37.4739L64.3385 36.9127Z" fill="#3F2D1F"/>
<path d="M75.5527 36.5287C75.5527 36.5287 76.2055 37.0655 76.6996 36.9008C76.8826 36.8398 76.1872 37.4742 76.1872 37.4742C76.0761 37.1022 75.8549 36.7725 75.5527 36.5287Z" fill="#3F2D1F"/>
<path d="M79.2969 64.1135C79.2969 64.1135 88.0935 80.1877 91.4487 93.6693L82.3776 98.9277C82.3776 98.9277 78.7723 91.7233 77.5339 80.6635C76.2956 69.6037 79.2969 64.1135 79.2969 64.1135Z" fill="#847062"/>
<path d="M74.3311 27.8174C74.3311 27.8174 65.5406 36.1321 57.5066 35.2232C57.5066 35.2232 56.6403 41.0611 58.0861 43.2999C58.0861 43.2999 57.4761 43.91 56.5976 41.5735C55.7192 39.2371 56.4146 36.0101 55.9876 35.0341C55.1214 34.8842 54.23 35.0053 53.4352 35.3809C52.6403 35.7564 51.9808 36.3682 51.5466 37.1325C49.7836 39.8594 53.639 43.1901 56.1645 42.6655L56.2804 47.686C55.3786 47.9808 54.4172 48.0443 53.4846 47.8705C52.5519 47.6968 51.6778 47.2914 50.9427 46.6917C48.5026 44.6237 49.7226 42.513 49.7226 42.513C49.7226 42.513 46.0625 38.8528 45.8733 33.8201C45.6842 28.7874 49.9117 25.5969 49.9117 25.5969C49.9117 25.5969 51.2965 18.118 60.5323 18.0387C69.7681 17.9594 72.4583 20.7289 72.4583 20.7289C74.2822 21.1271 75.9606 22.0214 77.3083 23.3132C78.656 24.6049 79.6207 26.2439 80.0959 28.0492C81.7795 34.3874 77.552 37.7731 77.552 37.7731C77.552 37.7731 76.3076 29.6841 74.3311 27.8174Z" fill="#3F2D1F"/>
<path d="M51.4429 24.7248C51.4429 24.7248 51.0037 19.2956 45.849 19.5274C40.6942 19.7592 39.706 25.6277 41.9448 28.3911C44.1836 31.1545 47.0995 30.5018 49.2651 28.3911C51.4307 26.2804 51.4429 24.7248 51.4429 24.7248Z" fill="#3F2D1F"/>
<path d="M58.1635 46.0813L54.9182 52.8404C54.8914 52.8937 54.8534 52.9406 54.8068 52.9779C54.7601 53.0152 54.706 53.042 54.6481 53.0565C54.5902 53.071 54.5299 53.0728 54.4712 53.0618C54.4125 53.0508 54.3569 53.0273 54.3081 52.9929L54.1739 52.8892L43.5351 44.6721C43.4552 44.6095 43.3999 44.5209 43.3787 44.4217C43.3575 44.3224 43.3718 44.2189 43.4192 44.1292L47.0793 37.4189L47.1647 37.2603C47.1942 37.2094 47.2342 37.1653 47.2821 37.1311C47.3299 37.0968 47.3845 37.0732 47.4422 37.0616C47.4999 37.0501 47.5594 37.0509 47.6167 37.0642C47.6741 37.0774 47.7279 37.1026 47.7748 37.1383L58.0476 45.5871C58.1189 45.645 58.169 45.725 58.1899 45.8144C58.2109 45.9038 58.2016 45.9977 58.1635 46.0813Z" fill="white"/>
<path d="M80.5593 103.046C74.5738 106.052 68.0156 107.746 61.3229 108.016C54.6302 108.285 47.9571 107.123 41.7494 104.607L38.2783 64.8336C38.2783 64.8336 38.9921 62.0884 43.2439 60.5268C48.0815 58.7394 48.1242 58.5381 48.1242 58.5381C66.5592 67.8105 74.3553 61.1002 74.3553 61.1002L78.412 63.1621C78.8133 63.3604 79.128 63.699 79.2965 64.1137C80.2543 66.4013 83.4264 74.3439 83.7436 79.8158C83.9937 84.1775 81.9319 95.8778 80.5593 103.046Z" fill="#9C897A"/>
<path d="M40.3082 62.1311C40.3082 62.1311 35.8184 63.9184 34.2079 75.6798C32.5974 87.4411 34.3177 93.6695 34.3177 93.6695L43.218 83.0672C43.218 83.0672 46.3047 66.7673 40.3082 62.1311Z" fill="#9C897A"/>
<path d="M53.6705 44.9346C52.8104 45.4287 50.5777 46.9904 50.1812 47.6492C50.0145 47.9484 49.9107 48.2785 49.8762 48.6192L49.3149 48.3386C49.5214 47.506 49.7905 46.6903 50.1202 45.8984C50.6569 45.6016 51.1296 45.2015 51.511 44.7211C51.6536 44.5459 51.7555 44.3411 51.8093 44.1217C51.8631 43.9022 51.8675 43.6736 51.8221 43.4522C51.4805 43.6474 50.9315 44.0074 50.3642 44.41V44.3734C50.5082 44.2002 50.611 43.9965 50.6649 43.7778C50.7188 43.559 50.7224 43.3309 50.6753 43.1106C49.7846 43.623 47.4665 45.2457 47.0517 45.929C46.8615 46.2699 46.751 46.6495 46.7284 47.0392L46.5698 46.9599C46.7793 46.0549 47.065 45.1692 47.4238 44.3124C47.9606 44.0155 48.4333 43.6154 48.8147 43.135C48.9573 42.9598 49.0592 42.755 49.113 42.5356C49.1668 42.3162 49.1712 42.0875 49.1258 41.8662C48.2352 42.3847 45.9171 44.0013 45.5023 44.6845C45.2459 45.1676 45.1297 45.7127 45.1667 46.2584L45.5023 52.0963L45.8256 58.5199C45.8256 58.5199 34.0703 85.5075 34.1923 92.1202C34.3144 98.7329 38.2795 101.313 38.2795 101.313C39.6905 101.054 41.0327 100.507 42.2221 99.7048C43.4114 98.9028 44.4222 97.8637 45.1911 96.6527C47.8875 92.4984 50.3703 60.8136 50.3703 60.8136C51.1913 59.5293 51.7548 58.0977 52.0295 56.5983C52.2736 54.5425 51.328 49.3451 51.328 49.3451C51.5184 48.645 51.7547 47.9582 52.0356 47.2893C52.5527 47.0047 53.007 46.6188 53.3716 46.1547C53.5088 45.9862 53.6069 45.7893 53.6586 45.5783C53.7103 45.3673 53.7143 45.1474 53.6705 44.9346Z" fill="#FF996A"/>
<path d="M58.166 46.0816L54.9206 52.8407C54.8938 52.894 54.8558 52.9409 54.8092 52.9782C54.7626 53.0155 54.7085 53.0423 54.6506 53.0568C54.5927 53.0713 54.5323 53.0731 54.4736 53.0621C54.415 53.0511 54.3593 53.0276 54.3106 52.9932L54.1764 52.8895L57.4339 45.8558L47.0635 37.4314L47.1489 37.2728C47.1784 37.2219 47.2184 37.1778 47.2662 37.1436C47.3141 37.1093 47.3687 37.0856 47.4264 37.0741C47.4841 37.0626 47.5435 37.0634 47.6009 37.0767C47.6582 37.0899 47.7121 37.1151 47.7589 37.1508L58.0318 45.5996C58.1035 45.6544 58.1555 45.7311 58.1797 45.8181C58.2039 45.9051 58.1991 45.9976 58.166 46.0816Z" fill="#D9D9D9"/>
<path d="M47.0706 38.7612L46.6191 39.6458L48.8518 41.4514L49.3643 40.5974L47.0706 38.7612Z" fill="#D9D9D9"/>
<path d="M111.738 65.4132L109.23 65.883L109.163 65.6573C109.889 65.4133 111.603 64.7422 112.28 63.7052C112.823 62.9052 113.235 62.0239 113.501 61.0943C112.558 61.6232 111.811 62.4427 111.372 63.4307L110.188 63.6503C110.655 63.3823 111.061 63.0185 111.378 62.5827C111.922 61.7834 112.334 60.9019 112.598 59.9718C111.655 60.5007 110.908 61.3203 110.469 62.3082L108.974 62.5888C109.632 62.1172 110.16 61.4879 110.511 60.7587C110.863 59.862 111.069 58.9146 111.121 57.9526C110.31 58.6674 109.754 59.6266 109.535 60.6855L107.888 61.3688L100.684 63.6198L100.739 62.5827C101.096 62.3469 101.44 62.0923 101.77 61.8202C102.532 61.2102 103.484 58.7701 103.484 58.7701C103.484 58.7701 99.7078 60.5452 98.7867 62.5034C97.8655 64.4616 96.9932 69.293 96.9932 69.293C96.9932 69.293 88.3003 90.1132 86.763 95.878C86.763 95.878 83.7922 97.0249 82.377 98.9769C82.377 98.9769 85.4271 104.522 87.8001 105.077C87.8001 105.077 94.7605 103.753 98.0729 95.6401C101.385 87.5267 102.721 71.1292 102.721 71.1292L109.676 67.3226C109.676 67.3226 111.774 66.7126 112.5 65.639C112.935 64.9824 113.264 64.262 113.476 63.5039C112.706 63.9361 112.096 64.6059 111.738 65.4132Z" fill="#FF996A"/>
<path d="M80.768 89.0578C77.1149 88.4786 73.4187 88.2153 69.7204 88.2709C65.0462 88.3301 60.3845 88.7687 55.7812 89.5824" stroke="#847062" stroke-linecap="round" stroke-linejoin="round"/>
<path d="M73.4219 22.9121C73.4219 22.9121 74.5443 24.9801 74.4467 26.3953" stroke="#543E2F" stroke-linecap="round" stroke-linejoin="round"/>
<path d="M71.7025 21.3452C71.7025 21.3452 67.1517 22.8276 64.6445 26.3963" stroke="#543E2F" stroke-linecap="round" stroke-linejoin="round"/>
<path d="M50.5943 23.6505C50.2547 24.3779 49.991 25.1384 49.8074 25.9198C49.8074 25.9198 47.3673 28.183 47.0684 29.4946" stroke="#543E2F" stroke-linecap="round" stroke-linejoin="round"/>
<path d="M41.4434 29.7999C41.6142 29.928 44.0238 31.7519 46.4883 30.2147" stroke="#543E2F" stroke-linecap="round" stroke-linejoin="round"/>
<path d="M53.5908 22.9127C53.5908 22.9127 59.2336 17.7031 68.5853 20.4726" stroke="#543E2F" stroke-linecap="round" stroke-linejoin="round"/>
<path d="M54.7324 33.6547C54.7324 33.6547 57.1725 34.6307 62.3456 33.6547C67.5186 32.6786 72.2524 27.3653 72.2524 27.3653" stroke="#543E2F" stroke-linecap="round" stroke-linejoin="round"/>
<path d="M52.6396 62.1311C52.6396 62.1311 59.7282 65.0897 66.9936 64.6566C74.259 64.2235 75.1557 62.9363 75.1557 62.9363" stroke="#847062" stroke-linecap="round" stroke-linejoin="round"/>
</svg>
