<svg width="23" height="23" viewBox="0 0 23 23" fill="none" xmlns="http://www.w3.org/2000/svg">
<path d="M20.125 15.0729H14.375C14.2582 15.0729 14.1562 14.971 14.1562 14.8542C14.1562 14.7374 14.2582 14.6354 14.375 14.6354H20.125C20.2418 14.6354 20.3438 14.7374 20.3438 14.8542C20.3438 14.971 20.2418 15.0729 20.125 15.0729Z" stroke="white"/>
<path d="M20.125 18.9062H14.375C14.2582 18.9062 14.1562 18.8043 14.1562 18.6875C14.1562 18.5707 14.2582 18.4688 14.375 18.4688H20.125C20.2418 18.4688 20.3438 18.5707 20.3438 18.6875C20.3438 18.8043 20.2418 18.9062 20.125 18.9062Z" stroke="white"/>
<path d="M18.9494 9.55295V9.55294H18.9463H15.0746C14.35 9.55294 13.9703 9.42088 13.766 9.24008C13.5774 9.07319 13.4375 8.77254 13.4375 8.15544V3.81419C13.4375 3.20291 13.577 2.90111 13.7667 2.73249C13.9716 2.55048 14.3517 2.41669 15.0746 2.41669H18.9463C19.6691 2.41669 20.0492 2.55048 20.2541 2.73249C20.4439 2.90111 20.5833 3.20291 20.5833 3.81419V8.16502C20.5833 8.77667 20.4437 9.0777 20.2548 9.24487C20.0511 9.4252 19.672 9.55749 18.9494 9.55295Z" fill="white" stroke="white"/>
<path d="M7.92889 9.55295V9.55294H7.92574H4.05408C3.32945 9.55294 2.94979 9.42088 2.7455 9.24008C2.55693 9.07319 2.41699 8.77254 2.41699 8.15544V3.81419C2.41699 3.20291 2.55645 2.90111 2.74623 2.73249C2.95108 2.55048 3.33123 2.41669 4.05408 2.41669H7.92574C8.64858 2.41669 9.02873 2.55048 9.23359 2.73249C9.42337 2.90111 9.56283 3.20291 9.56283 3.81419V8.16502C9.56283 8.77667 9.4232 9.0777 9.23432 9.24487C9.03055 9.4252 8.65145 9.55749 7.92889 9.55295Z" fill="white" stroke="white"/>
<path d="M9.56283 15.0746V18.9463C9.56283 19.658 9.41662 20.0282 9.21214 20.2326C9.00766 20.4371 8.63754 20.5833 7.92574 20.5833H4.05408C3.34228 20.5833 2.97216 20.4371 2.76768 20.2326C2.5632 20.0282 2.41699 19.658 2.41699 18.9463V15.0746C2.41699 14.3628 2.5632 13.9927 2.76768 13.7882C2.97216 13.5837 3.34228 13.4375 4.05408 13.4375H7.92574C8.63754 13.4375 9.00766 13.5837 9.21214 13.7882C9.41662 13.9927 9.56283 14.3628 9.56283 15.0746Z" fill="white" stroke="white"/>
</svg>
