<svg width="23" height="23" viewBox="0 0 23 23" fill="none" xmlns="http://www.w3.org/2000/svg">
<path d="M21.0833 7.92544V4.05377C21.0833 2.53002 20.47 1.91669 18.9463 1.91669H15.0746C13.5508 1.91669 12.9375 2.53002 12.9375 4.05377V7.92544C12.9375 9.44919 13.5508 10.0625 15.0746 10.0625H18.9463C20.47 10.0625 21.0833 9.44919 21.0833 7.92544Z" stroke="white" stroke-width="1.5" stroke-linecap="round" stroke-linejoin="round"/>
<path d="M10.0626 8.16502V3.81419C10.0626 2.46294 9.44925 1.91669 7.9255 1.91669H4.05383C2.53008 1.91669 1.91675 2.46294 1.91675 3.81419V8.15544C1.91675 9.51627 2.53008 10.0529 4.05383 10.0529H7.9255C9.44925 10.0625 10.0626 9.51627 10.0626 8.16502Z" stroke="white" stroke-width="1.5" stroke-linecap="round" stroke-linejoin="round"/>
<path d="M10.0626 18.9463V15.0746C10.0626 13.5508 9.44925 12.9375 7.9255 12.9375H4.05383C2.53008 12.9375 1.91675 13.5508 1.91675 15.0746V18.9463C1.91675 20.47 2.53008 21.0833 4.05383 21.0833H7.9255C9.44925 21.0833 10.0626 20.47 10.0626 18.9463Z" stroke="white" stroke-width="1.5" stroke-linecap="round" stroke-linejoin="round"/>
<path d="M14.375 14.8542H20.125" stroke="white" stroke-width="1.5" stroke-linecap="round"/>
<path d="M14.375 18.6875H20.125" stroke="white" stroke-width="1.5" stroke-linecap="round"/>
</svg>
