<svg width="44" height="44" viewBox="0 0 44 44" fill="none" xmlns="http://www.w3.org/2000/svg">
<path fill-rule="evenodd" clip-rule="evenodd"
    d="M22 0C34.1503 0 44 9.84973 44 22C44 34.1503 34.1503 44 22 44C9.84973 44 0 34.1503 0 22C0 9.84973 9.84973 0 22 0ZM35.9648 30.5285V14.1778L27.789 22.3531L35.9648 30.5285ZM9.78175 30.8616H34.2188L26.7501 23.393L23.9036 26.239C23.7656 26.3767 23.5786 26.454 23.3837 26.4539H20.6165C20.52 26.454 20.4243 26.435 20.3351 26.3982C20.2459 26.3613 20.1648 26.3072 20.0965 26.239L17.2501 23.393L9.78141 30.8616H9.78175ZM8.03516 14.1773V30.529L16.211 22.3531L8.03516 14.1773ZM34.9255 13.1384H9.075L20.921 24.9844H23.0795L34.9255 13.1384Z"
    fill="#03C27C"/>
</svg>
