<svg width="275" height="180" viewBox="0 0 275 180" fill="none" xmlns="http://www.w3.org/2000/svg">
<path d="M269.907 42.2726L265.612 62.9955L262.847 60.3123L258.143 63.6529L254.548 59.2078L246.486 65.0481L239.596 53.5687L231.912 58.054L228.864 53.8638L219.106 59.3419L216.171 53.0812L223.011 20.074L259.682 27.6181L269.907 42.2726Z" fill="#EBEBEB"/>
<path d="M259.683 27.6181L269.907 42.2726L257.187 39.6565L259.683 27.6181Z" fill="#DBDBDB"/>
<path d="M264.696 67.1409L258.398 97.5455L209.002 87.3898L215.255 57.2222L218.19 63.4874L227.953 58.0093L230.996 62.195L238.685 57.7097L245.57 69.1891L253.636 63.3488L257.227 67.7938L261.935 64.4533L264.696 67.1409Z" fill="#EBEBEB"/>
<path d="M193.998 63.5768L143.659 66.6804L139.66 2.29813L177.04 -0.00491333L190.762 11.4611L193.998 63.5768Z" fill="#EBEBEB"/>
<path d="M177.04 -0.00491333L190.761 11.4611L177.799 12.2616L177.04 -0.00491333Z" fill="#DBDBDB"/>
<path d="M163.103 43.3146L162.906 41.8612C162.399 38.8516 163.225 35.4842 165.85 31.9648C168.22 28.8345 169.504 26.5985 169.36 24.0585C169.199 21.1965 167.291 19.3898 163.741 19.5329C161.712 19.6379 159.763 20.3553 158.153 21.59L156.604 18.1332C158.399 16.6798 161.541 15.6066 164.526 15.45C171.003 15.0923 174.154 18.9113 174.401 23.173C174.616 26.9876 172.632 29.8541 170.11 33.2036C167.794 36.2579 167.035 38.7756 167.363 41.6242L167.502 43.082L163.103 43.3146ZM162.304 51.2343C162.188 49.1594 163.512 47.621 165.482 47.5137C167.453 47.4064 168.889 48.7837 169.006 50.8632C169.113 52.8264 167.906 54.4094 165.823 54.5257C163.835 54.6375 162.399 53.1975 162.286 51.2343H162.304Z" fill="#DBDBDB"/>
<path d="M37.1917 32.3628L32.1287 30.0777L31.424 31.6205C31.32 31.841 31.1576 32.0291 30.9544 32.1646C30.7512 32.3001 30.5147 32.3779 30.2705 32.3897C29.9922 32.3988 29.7149 32.4257 29.4401 32.4702C29.1989 32.5059 28.9525 32.4756 28.7272 32.3827C28.5019 32.2897 28.3062 32.1376 28.1609 31.9425L27.1689 30.5607L22.649 33.7894L23.641 35.1712C23.7789 35.3707 23.8601 35.6036 23.8759 35.8453C23.8917 36.087 23.8416 36.3285 23.7307 36.5441C23.6027 36.79 23.4874 37.0423 23.3851 37.2998C23.2962 37.527 23.1468 37.7257 22.9531 37.8746C22.7593 38.0235 22.5285 38.117 22.2854 38.145L20.5933 38.3105L21.1364 43.8244L22.8375 43.6544C23.0815 43.635 23.3261 43.6822 23.5452 43.791C23.7643 43.8997 23.9494 44.0659 24.0808 44.2716C24.1526 44.3878 24.2289 44.4996 24.3097 44.6114C24.3905 44.7232 24.4713 44.8306 24.5566 44.9379C24.7115 45.1257 24.8111 45.3525 24.8444 45.5933C24.8777 45.8341 24.8433 46.0793 24.7451 46.3018L24.0359 47.8581L29.1035 50.1477L29.8082 48.5959C29.9132 48.3756 30.0765 48.188 30.2805 48.0533C30.4846 47.9186 30.7216 47.8418 30.9662 47.8312C31.2413 47.8199 31.5155 47.793 31.7876 47.7507C32.0288 47.715 32.2752 47.7453 32.5005 47.8382C32.7258 47.9312 32.9215 48.0833 33.0668 48.2784L34.0588 49.6602L38.5832 46.4315L37.5912 45.0497C37.449 44.8521 37.3652 44.6187 37.3494 44.376C37.3335 44.1334 37.3862 43.8911 37.5015 43.6768C37.6265 43.4323 37.7388 43.1815 37.8381 42.9255C37.9244 42.6967 38.073 42.4964 38.2673 42.3471C38.4616 42.1978 38.6937 42.1054 38.9378 42.0803L40.6389 41.9104L40.0913 36.3965L38.3902 36.562C38.1477 36.5832 37.9041 36.5372 37.6863 36.4291C37.4685 36.321 37.2849 36.1549 37.1558 35.9493C37.0795 35.8331 37.0032 35.7213 36.9224 35.6095C36.8416 35.4977 36.7609 35.3859 36.6756 35.283C36.5217 35.0929 36.4229 34.8646 36.3896 34.6227C36.3564 34.3808 36.3901 34.1344 36.4871 33.9101L37.1917 32.3628ZM34.3191 37.4653C34.844 38.1951 35.1399 39.0635 35.1693 39.9608C35.1988 40.8581 34.9605 41.744 34.4846 42.5064C34.0087 43.2687 33.3165 43.8734 32.4957 44.2438C31.6749 44.6142 30.7622 44.7338 29.8731 44.5875C28.9841 44.4411 28.1585 44.0353 27.501 43.4215C26.8434 42.8076 26.3833 42.0133 26.1789 41.1389C25.9745 40.2645 26.0349 39.3494 26.3525 38.5092C26.6702 37.669 27.2308 36.9416 27.9634 36.4189C28.9455 35.7181 30.1669 35.4347 31.3587 35.6309C32.5506 35.8272 33.6154 36.487 34.3191 37.4653Z" fill="#EBEBEB"/>
<path d="M266.061 105.523L262.685 107.464L263.282 108.493C263.371 108.64 263.416 108.81 263.41 108.983C263.405 109.155 263.349 109.322 263.251 109.463C263.148 109.624 263.049 109.79 262.959 109.964C262.885 110.118 262.769 110.248 262.623 110.339C262.478 110.429 262.309 110.476 262.138 110.474H260.953V114.36H262.147C262.318 114.358 262.487 114.405 262.632 114.495C262.778 114.585 262.894 114.715 262.968 114.87C263.058 115.044 263.156 115.21 263.26 115.371C263.358 115.512 263.414 115.679 263.419 115.851C263.425 116.023 263.38 116.193 263.291 116.341L262.694 117.37L266.07 119.31L266.671 118.277C266.758 118.131 266.884 118.011 267.036 117.932C267.187 117.853 267.358 117.818 267.528 117.83H268.103C268.273 117.819 268.444 117.854 268.595 117.933C268.746 118.012 268.873 118.131 268.96 118.277L269.562 119.315L272.932 117.374L272.335 116.341C272.251 116.193 272.209 116.024 272.215 115.853C272.222 115.682 272.276 115.517 272.371 115.375C272.475 115.214 272.573 115.044 272.663 114.874C272.737 114.72 272.853 114.59 272.999 114.5C273.145 114.409 273.313 114.362 273.485 114.364H274.678V110.478H273.476C273.304 110.48 273.136 110.433 272.99 110.343C272.844 110.253 272.728 110.123 272.654 109.969C272.564 109.799 272.466 109.629 272.362 109.468C272.267 109.326 272.213 109.16 272.206 108.99C272.2 108.819 272.242 108.65 272.327 108.502L272.923 107.469L269.553 105.528L268.951 106.548C268.864 106.694 268.738 106.813 268.586 106.892C268.435 106.971 268.264 107.007 268.094 106.995H267.807H267.519C267.348 107.006 267.177 106.97 267.025 106.892C266.873 106.813 266.746 106.694 266.658 106.548L266.061 105.523ZM267.807 109.235C268.439 109.234 269.058 109.42 269.584 109.77C270.11 110.119 270.52 110.617 270.763 111.199C271.005 111.781 271.069 112.421 270.946 113.039C270.823 113.657 270.518 114.225 270.071 114.671C269.624 115.116 269.054 115.419 268.433 115.542C267.813 115.665 267.17 115.601 266.586 115.36C266.002 115.118 265.503 114.71 265.152 114.185C264.801 113.661 264.614 113.045 264.615 112.415C264.615 111.997 264.697 111.583 264.857 111.197C265.017 110.81 265.252 110.459 265.548 110.164C265.845 109.868 266.197 109.633 266.584 109.473C266.972 109.313 267.387 109.231 267.807 109.231V109.235Z" fill="#EBEBEB"/>
<path d="M47.4348 15.8391L44.3423 18.2003L45.0559 19.1438C45.1624 19.2783 45.2278 19.4404 45.2446 19.6108C45.2613 19.7812 45.2285 19.9529 45.1502 20.1053C45.0643 20.2794 44.9893 20.4586 44.9258 20.6419C44.8704 20.8034 44.771 20.9463 44.6385 21.0546C44.5061 21.1628 44.346 21.2321 44.1762 21.2546L42.9912 21.4066L43.4939 25.2569L44.6789 25.1049C44.8514 25.0809 45.0272 25.106 45.186 25.1772C45.3448 25.2484 45.4802 25.3629 45.5766 25.5074C45.6847 25.6629 45.8016 25.8122 45.9267 25.9546C46.0423 26.0813 46.119 26.2384 46.1477 26.4072C46.1763 26.5761 46.1557 26.7496 46.0883 26.9071L45.6394 28.0072L49.2302 29.4963L49.6791 28.3962C49.7459 28.2384 49.8557 28.1024 49.9961 28.0036C50.1365 27.9048 50.3019 27.8472 50.4736 27.8372L50.7608 27.8059L51.0436 27.7612C51.2097 27.73 51.3812 27.7448 51.5395 27.8039C51.6977 27.8631 51.8367 27.9643 51.9413 28.0966L52.6729 29.0491L55.7655 26.688L55.0428 25.7444C54.9385 25.6081 54.8743 25.4454 54.8577 25.2748C54.841 25.1041 54.8725 24.9322 54.9486 24.7784C55.0337 24.6055 55.1086 24.4279 55.173 24.2463C55.2283 24.0848 55.3278 23.9419 55.4602 23.8336C55.5927 23.7254 55.7528 23.6561 55.9226 23.6336L57.1076 23.4816L56.6048 19.6313L55.4199 19.7833C55.2478 19.8077 55.0723 19.7833 54.9136 19.7129C54.7548 19.6426 54.6191 19.529 54.5222 19.3853C54.41 19.2243 54.2933 19.0723 54.1676 18.9381C54.063 18.8087 53.9954 18.6536 53.9717 18.4892C53.948 18.3247 53.9691 18.157 54.0329 18.0035L54.4818 16.9034L50.891 15.4142L50.4421 16.5143C50.3745 16.6715 50.2644 16.807 50.1242 16.9057C49.9839 17.0044 49.819 17.0624 49.6477 17.0733L49.3604 17.1002L49.0956 17.1091C48.9295 17.1403 48.758 17.1255 48.5997 17.0664C48.4414 17.0073 48.3024 16.906 48.1979 16.7737L47.4348 15.8391ZM49.6477 19.2959C50.2729 19.2158 50.9079 19.322 51.4727 19.6011C52.0374 19.8802 52.5065 20.3196 52.8208 20.864C53.1352 21.4085 53.2806 22.0334 53.2389 22.6601C53.1971 23.2868 52.97 23.8871 52.5862 24.3853C52.2024 24.8835 51.6791 25.2574 51.0823 25.4596C50.4855 25.6619 49.8419 25.6835 49.2328 25.5218C48.6237 25.36 48.0762 25.0222 47.6596 24.5509C47.243 24.0796 46.9758 23.4959 46.8917 22.8734C46.8356 22.458 46.8625 22.0357 46.9708 21.6307C47.0792 21.2257 47.2668 20.8461 47.5229 20.5136C47.779 20.1811 48.0986 19.9024 48.4633 19.6934C48.8279 19.4844 49.2304 19.3493 49.6477 19.2959Z" fill="#EBEBEB"/>
<path d="M24.3277 116.735C24.4963 112.412 24.4364 108.083 24.1481 103.766C23.5059 94.8522 22.1415 86.0048 20.0681 77.3101C18.928 72.4178 17.5276 67.6061 16.0643 62.7987C16.0195 62.6512 15.7861 62.6914 15.8265 62.8435C20.3464 79.792 24.0539 97.2773 23.798 114.897C23.7262 119.816 23.1517 124.668 22.6849 129.569C22.6849 129.699 22.8869 129.752 22.9183 129.618C23.8474 125.41 24.1526 121.019 24.3277 116.735Z" fill="#EBEBEB"/>
<path d="M15.8266 62.83C15.8266 62.83 8.98614 80.1364 10.5167 84.1879C12.0473 88.2395 15.2072 89.107 15.2072 89.107C15.2072 89.107 11.0194 95.0636 13.9459 100.649C16.8724 106.235 23.3718 105.971 23.8206 112.303C23.8072 112.334 24.1663 85.856 15.8266 62.83Z" fill="#EBEBEB"/>
<path d="M23.0616 101.4C23.0726 101.372 23.0726 101.34 23.0616 101.311C22.1638 89.4956 19.9386 77.818 16.4276 66.497C16.4276 66.4657 16.3603 66.4746 16.3692 66.497C17.7248 71.5652 18.9217 76.6542 19.96 81.7641C19.0404 80.8962 17.9169 80.2719 16.6924 79.9485C16.6924 79.9485 16.6565 79.9754 16.6924 79.9843C17.9788 80.454 19.1354 81.2202 20.0678 82.2203C20.2653 83.2265 20.4628 84.2282 20.6468 85.2344C19.1162 83.5305 16.9976 82.6854 14.8746 81.8804C14.8698 81.8825 14.8657 81.8859 14.8628 81.8903C14.8599 81.8947 14.8584 81.8998 14.8584 81.905C14.8584 81.9102 14.8599 81.9153 14.8628 81.9197C14.8657 81.9241 14.8698 81.9275 14.8746 81.9296C17.0874 82.824 19.2868 83.9777 20.7859 85.8783C21.3066 88.7493 21.7644 91.6307 22.1594 94.5225C21.0543 93.369 19.637 92.5597 18.0794 92.1927C18.03 92.1927 18.0031 92.2508 18.0524 92.2642C19.6525 92.7337 21.081 93.6566 22.1639 94.9205H22.1908C22.3255 95.9342 22.4542 96.9523 22.5768 97.9748C21.7219 97.254 20.7566 96.6743 19.7177 96.2576C19.6907 96.2576 19.6728 96.2889 19.7177 96.2979C20.7779 96.7555 21.7488 97.3958 22.5858 98.1895C22.5858 98.1895 22.6083 98.1895 22.6217 98.1895C22.7339 99.1599 22.8461 100.13 22.9449 101.101C21.4036 99.2443 19.4033 97.8202 17.1413 96.9687C17.1317 96.9687 17.1226 96.9724 17.1159 96.9791C17.1091 96.9859 17.1054 96.995 17.1054 97.0044C17.1054 97.0139 17.1091 97.023 17.1159 97.0298C17.1226 97.0365 17.1317 97.0402 17.1413 97.0402C19.3749 98.0211 21.337 99.5263 22.8596 101.427C22.8764 101.448 22.899 101.463 22.9246 101.471C22.9502 101.479 22.9776 101.48 23.0032 101.472C23.1514 102.961 23.286 104.45 23.3937 105.944C23.3937 105.966 23.4297 105.966 23.4297 105.944C23.313 104.444 23.1903 102.93 23.0616 101.4Z" fill="white"/>
<path d="M17.5637 78.2447C16.3249 77.4766 14.9097 77.0363 13.4522 76.9658C13.4451 76.9658 13.4382 76.9686 13.4332 76.9736C13.4281 76.9786 13.4253 76.9855 13.4253 76.9926C13.4253 76.9997 13.4281 77.0065 13.4332 77.0116C13.4382 77.0166 13.4451 77.0194 13.4522 77.0194C14.8613 77.2856 16.2287 77.7368 17.5188 78.361C17.5727 78.3744 17.6131 78.2805 17.5637 78.2447Z" fill="white"/>
<path d="M18.3941 96.5662C17.4419 96.0217 16.3935 95.6649 15.306 95.5153C15.2701 95.5153 15.2656 95.5645 15.306 95.5734C16.3679 95.7856 17.3952 96.1438 18.3582 96.6377C18.3986 96.6601 18.4345 96.5886 18.3941 96.5662Z" fill="white"/>
<path d="M42.3178 84.4876C39.424 86.4805 36.7663 88.7938 34.3956 91.3833C31.9507 94.125 30.0648 97.3146 28.8433 100.774C26.2435 107.982 24.8455 115.565 24.7049 123.223C24.6177 127.464 25.0259 131.701 25.9213 135.848C25.9285 135.878 25.9471 135.904 25.9733 135.921C25.9994 135.938 26.031 135.944 26.0616 135.938C26.0921 135.932 26.1193 135.915 26.1375 135.89C26.1557 135.865 26.1634 135.834 26.1591 135.803C25.045 128.485 25.0874 121.039 26.2848 113.734C27.4608 106.579 29.3056 98.7888 33.8749 92.9708C36.3615 89.8002 39.4631 87.3093 42.5287 84.7335C42.6903 84.5904 42.4838 84.3713 42.3178 84.4876Z" fill="#EBEBEB"/>
<path d="M25.7104 118.063C27.3577 115.408 29.2934 112.943 31.4827 110.711C34.9074 107.299 37.789 104.875 38.2379 102.621C38.6867 100.367 34.8086 98.7038 34.8086 98.7038C34.8086 98.7038 39.544 99.5534 40.8412 97.5724C42.1384 95.5913 42.7623 84.1164 42.7623 84.1164C42.7623 84.1164 34.1443 90.2474 30.1271 98.8424C26.1099 107.437 25.7104 118.063 25.7104 118.063Z" fill="#EBEBEB"/>
<path d="M39.6692 94.8803C39.1017 94.7962 38.5265 94.7766 37.9546 94.8222C37.8873 94.8222 37.8917 94.9384 37.9546 94.9429C38.5201 94.9429 39.0902 94.9161 39.6557 94.9429C39.6622 94.9412 39.6681 94.9378 39.6727 94.933C39.6773 94.9282 39.6805 94.9223 39.6819 94.9158C39.6833 94.9093 39.6829 94.9025 39.6806 94.8962C39.6784 94.89 39.6744 94.8844 39.6692 94.8803Z" fill="white"/>
<path d="M33.48 106.011C32.5699 106.029 31.6703 106.208 30.8228 106.539C30.8228 106.539 30.8228 106.583 30.8228 106.579C31.7205 106.369 32.5867 106.284 33.4755 106.132C33.4871 106.127 33.497 106.118 33.5041 106.108C33.5112 106.098 33.5153 106.085 33.5157 106.073C33.5162 106.06 33.5131 106.048 33.5068 106.037C33.5004 106.026 33.4911 106.017 33.48 106.011Z" fill="white"/>
<path d="M31.6212 102.165C31.2434 102.162 30.8661 102.195 30.4946 102.263C30.4877 102.266 30.4818 102.271 30.4776 102.277C30.4734 102.283 30.4712 102.29 30.4712 102.297C30.4712 102.304 30.4734 102.311 30.4776 102.317C30.4818 102.323 30.4877 102.328 30.4946 102.331C30.8708 102.352 31.2483 102.336 31.6212 102.281C31.6367 102.281 31.6515 102.275 31.6625 102.264C31.6734 102.253 31.6796 102.239 31.6796 102.223C31.6796 102.208 31.6734 102.193 31.6625 102.182C31.6515 102.171 31.6367 102.165 31.6212 102.165Z" fill="white"/>
<path d="M0.444323 96.6601C3.24928 97.6075 5.93716 98.8692 8.4563 100.421C11.0701 102.076 13.3368 104.22 15.1307 106.735C18.9051 111.97 21.7949 117.784 23.6858 123.948C24.7404 127.361 25.3911 130.885 25.6248 134.448C25.6199 134.471 25.6072 134.492 25.5888 134.506C25.5704 134.521 25.5475 134.529 25.5238 134.529C25.5002 134.529 25.4772 134.521 25.4588 134.506C25.4405 134.492 25.4278 134.471 25.4228 134.448C24.6305 128.27 22.8706 122.253 20.2072 116.618C17.5904 111.095 14.2914 105.219 9.24628 101.561C6.49931 99.5713 3.41122 98.2655 0.33211 96.8882C0.170524 96.8345 0.282737 96.6065 0.444323 96.6601Z" fill="#EBEBEB"/>
<path d="M21.675 120.008C19.7249 118.24 17.5861 116.691 15.2968 115.388C11.7329 113.416 8.83786 112.12 7.95362 110.398C7.06939 108.676 9.82084 106.44 9.82084 106.44C9.82084 106.44 6.18516 108.229 4.67702 106.91C3.16888 105.591 0 96.4678 0 96.4678C0 96.4678 8.39799 99.4416 13.6361 105.474C18.8742 111.507 21.675 120.008 21.675 120.008Z" fill="#EBEBEB"/>
<path d="M14.7044 111.61C13.8788 111.552 13.0497 111.654 12.2627 111.909C12.2627 111.909 12.2627 111.95 12.2627 111.945C13.0656 111.808 13.8769 111.724 14.691 111.695C14.7493 111.695 14.7628 111.614 14.7044 111.61Z" fill="white"/>
<path d="M7.37916 102.04C7.00251 102.009 6.62343 102.03 6.25255 102.102C6.21215 102.102 6.22562 102.174 6.25255 102.17C6.62509 102.129 6.98866 102.143 7.35672 102.134C7.36815 102.134 7.37939 102.131 7.3885 102.124C7.39762 102.117 7.40406 102.107 7.40671 102.096C7.40936 102.085 7.40806 102.073 7.40303 102.063C7.39801 102.053 7.38957 102.045 7.37916 102.04Z" fill="white"/>
<path d="M32.5057 145.981H13.5508L16.2529 126.255L16.9441 121.198H29.1124L29.8037 126.255L32.5057 145.981Z" fill="#DBDBDB"/>
<path d="M29.8037 126.255H16.2529L16.9442 121.198H29.1125L29.8037 126.255Z" fill="#C7C7C7"/>
<path d="M30.8496 119.445H15.2026V123.729H30.8496V119.445Z" fill="#DBDBDB"/>
<path d="M1.49902 145.981L35.6161 145.869L69.7333 145.833L137.967 145.757L206.202 145.829L240.319 145.869L274.436 145.981L240.319 146.088L206.202 146.128L137.967 146.2L69.7333 146.128L35.6161 146.088L1.49902 145.981Z" fill="#263238"/>
<path d="M138.865 179.31C209.946 179.31 267.568 173.019 267.568 165.259C267.568 157.499 209.946 151.209 138.865 151.209C67.7841 151.209 10.1616 157.499 10.1616 165.259C10.1616 173.019 67.7841 179.31 138.865 179.31Z" fill="#EBEBEB"/>
<path d="M108.905 162.934C107.859 163.287 77.8714 163.381 76.7223 162.675C76.2735 162.406 76.0176 158.055 75.8246 152.787C75.7842 151.651 75.7528 150.475 75.7259 149.286L73.3335 133.348L93.3836 133.218L95.2733 149.16L95.197 152.666C95.197 152.666 106.697 157.742 107.873 158.663C109.049 159.585 109.951 162.581 108.905 162.934Z" fill="#EB9481"/>
<path d="M108.905 162.934C107.859 163.287 77.8712 163.381 76.7221 162.675C76.1925 162.344 75.9052 155.989 75.7437 149.286L95.2507 149.16L95.1744 152.666C95.1744 152.666 106.674 157.742 107.85 158.663C109.026 159.585 109.951 162.581 108.905 162.934Z" fill="white"/>
<path d="M108.904 162.934C107.859 163.287 77.871 163.381 76.7219 162.675C76.2731 162.406 76.0172 158.055 75.8242 152.787L95.1562 152.666C95.1562 152.666 106.656 157.742 107.832 158.663C109.008 159.585 109.95 162.581 108.904 162.934Z" fill="#A6A6A6"/>
<path d="M108.469 161.74C103.442 161.633 83.154 161.682 78.1763 161.959C78.1359 161.959 78.1359 161.986 78.1763 161.99C83.1585 162.201 103.447 161.99 108.469 161.82C108.577 161.816 108.577 161.74 108.469 161.74Z" fill="#263238"/>
<path d="M105.915 157.595C105.356 157.582 104.801 157.685 104.284 157.898C103.767 158.11 103.3 158.427 102.912 158.829C102.206 159.546 101.807 160.508 101.799 161.512C101.799 161.543 101.853 161.543 101.858 161.512C102.025 160.523 102.508 159.613 103.236 158.92C103.964 158.227 104.898 157.787 105.897 157.666C105.907 157.668 105.917 157.667 105.925 157.662C105.934 157.657 105.94 157.649 105.942 157.639C105.945 157.63 105.943 157.62 105.938 157.611C105.933 157.603 105.925 157.597 105.915 157.595Z" fill="#263238"/>
<path d="M97.1223 153.158C95.1115 153.136 92.7819 153.852 91.5341 155.497C91.4892 155.56 91.579 155.627 91.6374 155.596C93.3942 154.672 95.245 153.937 97.1582 153.404C97.1878 153.396 97.2134 153.378 97.2302 153.352C97.247 153.327 97.2538 153.296 97.2494 153.266C97.245 153.235 97.2296 153.208 97.2062 153.188C97.1828 153.168 97.153 153.158 97.1223 153.158Z" fill="#263238"/>
<path d="M98.6845 153.753C96.6691 153.753 94.3396 154.451 93.0963 156.092C93.0469 156.159 93.1367 156.226 93.1995 156.195C94.9538 155.268 96.8033 154.531 98.7159 153.999C98.7451 153.991 98.7704 153.973 98.7872 153.948C98.804 153.923 98.8111 153.892 98.8073 153.863C98.8035 153.833 98.789 153.805 98.7664 153.785C98.7438 153.765 98.7147 153.754 98.6845 153.753Z" fill="#263238"/>
<path d="M100.238 154.352C98.2267 154.352 95.8972 155.046 94.6493 156.691C94.6045 156.754 94.6942 156.821 94.7526 156.79C96.5094 155.866 98.3602 155.131 100.273 154.598C100.303 154.59 100.329 154.572 100.345 154.546C100.362 154.521 100.369 154.49 100.365 154.46C100.36 154.429 100.345 154.402 100.321 154.382C100.298 154.362 100.268 154.352 100.238 154.352Z" fill="#263238"/>
<path d="M101.795 154.952C99.7796 154.929 97.45 155.645 96.2067 157.29C96.1573 157.353 96.2516 157.42 96.3099 157.389C98.0664 156.464 99.9173 155.73 101.831 155.198C101.86 155.19 101.886 155.171 101.903 155.145C101.92 155.12 101.926 155.089 101.922 155.059C101.918 155.029 101.902 155.001 101.879 154.981C101.855 154.961 101.826 154.951 101.795 154.952Z" fill="#263238"/>
<path d="M79.442 157.197C77.1977 157.197 77.1977 160.707 79.442 160.694C81.6862 160.68 81.7042 157.183 79.442 157.197Z" fill="#263238"/>
<path d="M99.2815 147.801C98.2626 146.96 96.9789 147.801 96.355 148.664C95.3164 150.19 94.6974 151.96 94.5596 153.798C94.5596 153.838 94.591 153.856 94.6224 153.856C94.6304 153.894 94.6473 153.929 94.6719 153.959C94.6964 153.989 94.7279 154.013 94.7635 154.028C94.7991 154.043 94.8379 154.05 94.8766 154.047C94.9154 154.045 94.9528 154.033 94.986 154.012C96.4133 153.024 98.0651 152.139 99.1468 150.739C99.7617 149.925 100.264 148.584 99.2815 147.801ZM96.8308 152.067C96.1395 152.573 95.4258 153.042 94.7526 153.574C95.1117 152.573 95.4214 151.562 95.8792 150.596C96.0907 150.133 96.3336 149.685 96.6063 149.254C97.0552 148.588 99.0122 146.907 99.2186 149.084C99.3353 150.278 97.6521 151.468 96.8308 152.067Z" fill="#263238"/>
<path d="M89.5504 154.558C91.301 154.817 93.1098 154.317 94.8289 154.044C94.8663 154.034 94.9008 154.016 94.9297 153.99C94.9587 153.965 94.9813 153.933 94.9957 153.898C95.0101 153.862 95.0159 153.823 95.0127 153.785C95.0094 153.747 94.9972 153.71 94.977 153.677C94.9836 153.672 94.9888 153.666 94.9925 153.658C94.9961 153.651 94.998 153.643 94.998 153.635C94.998 153.626 94.9961 153.618 94.9925 153.611C94.9888 153.604 94.9836 153.597 94.977 153.592C93.5957 152.365 91.9146 151.521 90.1025 151.146C89.0432 150.945 87.5441 151.235 87.4094 152.546C87.2478 153.78 88.5271 154.397 89.5504 154.558ZM88.3296 153.422C86.983 151.705 89.5549 151.557 90.3269 151.736C90.8278 151.861 91.3197 152.02 91.7992 152.21C92.7809 152.616 93.7412 153.071 94.6763 153.574C93.8235 153.659 92.9841 153.811 92.1358 153.928C91.1214 154.062 89.0836 154.366 88.3296 153.422Z" fill="#263238"/>
<path d="M43.8525 59.6818C43.8525 59.6818 67.1344 99.1421 67.7583 101.915C68.7144 106.172 73.7819 148.212 73.7819 148.212L98.0198 147.765C98.0198 147.765 93.8455 110.697 89.8911 98.4847C87.0454 89.6884 66.497 60.5136 66.497 60.5136L43.8525 59.6818Z" fill="#37474F"/>
<path d="M95.816 144.08C92.3374 144.054 80.0075 143.915 75.3754 144.344C75.3395 144.344 75.344 144.407 75.3754 144.411C76.9688 144.639 92.3329 144.286 95.8115 144.174C95.8188 144.177 95.8266 144.178 95.8342 144.177C95.8419 144.176 95.8493 144.173 95.8557 144.169C95.8621 144.165 95.8675 144.159 95.8713 144.152C95.8751 144.146 95.8772 144.138 95.8776 144.13C95.878 144.123 95.8765 144.115 95.8734 144.108C95.8702 144.101 95.8655 144.095 95.8595 144.09C95.8535 144.085 95.8464 144.082 95.8389 144.08C95.8313 144.078 95.8235 144.078 95.816 144.08Z" fill="#263238"/>
<path d="M47.8247 63.3041C49.3508 65.6876 50.9666 68.022 52.5196 70.3876C54.0727 72.7533 55.6347 75.1189 57.1742 77.4801C60.2443 82.2501 63.2367 87.0515 66.1512 91.8841C67.5736 94.1242 68.7904 96.4875 69.7869 98.9453C70.6965 101.404 71.38 103.939 71.8292 106.521C72.305 109.11 72.6192 111.726 72.9109 114.342C73.2101 117.124 73.5228 119.907 73.849 122.691C74.4864 128.388 75.1252 134.086 75.7656 139.783C75.8419 140.48 75.9182 141.178 75.99 141.88C75.99 141.983 75.815 142.001 75.8015 141.88C75.0878 136.223 74.4953 130.544 73.849 124.887C73.5258 122.064 73.2042 119.242 72.884 116.422C72.5832 113.797 72.296 111.167 71.8875 108.56C71.5127 105.987 70.9425 103.445 70.1819 100.958C69.3438 98.382 68.2208 95.9072 66.8335 93.579C64.0282 88.7538 61.0568 84.0135 58.0854 79.2688C55.114 74.5241 52.0618 69.7392 48.9288 65.0526C48.5428 64.4757 48.1523 63.8989 47.7484 63.3309C47.7169 63.2996 47.7977 63.2594 47.8247 63.3041Z" fill="#263238"/>
<path d="M51.4832 165.259C50.379 165.192 21.859 153.682 21.0691 152.59C21.0339 152.526 21.0183 152.453 21.0242 152.38C21.0242 151.401 23.0036 147.984 24.6554 143.495C24.7586 143.208 25.4947 141.876 26.5136 140.082C29.3459 135.168 34.2832 126.702 34.2832 126.702L52.924 134.081L44.0008 147.385L42.6139 150.605C42.6139 150.605 51.362 159.616 52.0981 160.89C52.8342 162.165 52.5828 165.322 51.4832 165.259Z" fill="#EB9481"/>
<path d="M51.4832 165.259C50.379 165.192 21.859 153.682 21.0691 152.59C21.0339 152.526 21.0183 152.453 21.0242 152.38C21.0242 151.401 23.0036 147.984 24.6554 143.495C24.7586 143.208 25.4947 141.876 26.5136 140.082L44.0188 147.385L42.6318 150.605C42.6318 150.605 51.3799 159.616 52.116 160.89C52.8521 162.165 52.5828 165.322 51.4832 165.259Z" fill="white"/>
<path d="M51.4834 165.259C50.3793 165.192 21.8593 153.682 21.0693 152.59C20.7641 152.175 22.0389 148.297 24.6601 143.495L42.6142 150.609C42.6142 150.609 51.3622 159.611 52.1028 160.895C52.8435 162.178 52.5831 165.322 51.4834 165.259Z" fill="#A6A6A6"/>
<path d="M51.5281 163.989C46.9094 162.013 28.0847 154.473 23.3672 152.872C23.3268 152.872 23.3179 152.872 23.3672 152.899C27.9051 154.956 46.7883 162.344 51.5102 164.079C51.5999 164.101 51.6269 164.03 51.5281 163.989Z" fill="#263238"/>
<path d="M50.7201 159.191C50.2079 158.967 49.6546 158.851 49.0952 158.851C48.5358 158.851 47.9825 158.967 47.4704 159.191C46.5496 159.593 45.8196 160.333 45.4326 161.257C45.4326 161.284 45.473 161.306 45.4865 161.279C46.0156 160.422 46.8094 159.758 47.7489 159.388C48.6885 159.018 49.723 158.962 50.6976 159.227C50.7052 159.225 50.7117 159.22 50.7158 159.213C50.72 159.207 50.7215 159.199 50.7201 159.191Z" fill="#263238"/>
<path d="M44.2434 151.794C42.3896 151.021 39.9568 150.815 38.1839 151.875C38.1166 151.915 38.1839 152.009 38.2422 152.005C40.2187 151.805 42.2108 151.815 44.185 152.036C44.2154 152.039 44.2459 152.031 44.2709 152.014C44.2959 151.996 44.3136 151.97 44.3208 151.941C44.3279 151.911 44.324 151.88 44.3098 151.853C44.2955 151.826 44.2719 151.805 44.2434 151.794Z" fill="#263238"/>
<path d="M45.4597 152.93C43.6059 152.157 41.1731 151.951 39.4002 153.011C39.3329 153.051 39.4002 153.145 39.4585 153.141C41.4349 152.939 43.4273 152.949 45.4013 153.172C45.4317 153.175 45.4622 153.167 45.4872 153.15C45.5122 153.132 45.5299 153.106 45.5371 153.077C45.5443 153.047 45.5403 153.016 45.5261 152.989C45.5118 152.962 45.4882 152.941 45.4597 152.93Z" fill="#263238"/>
<path d="M46.6805 154.066C44.8223 153.293 42.3895 153.087 40.621 154.147C40.5492 154.187 40.621 154.281 40.6749 154.276C42.6512 154.074 44.6436 154.085 46.6177 154.308C46.6487 154.313 46.6805 154.306 46.7069 154.289C46.7332 154.272 46.7522 154.246 46.7601 154.216C46.768 154.185 46.7642 154.153 46.7495 154.125C46.7347 154.098 46.7101 154.077 46.6805 154.066Z" fill="#263238"/>
<path d="M47.8968 155.202C46.0386 154.428 43.6103 154.223 41.8373 155.278C41.7655 155.323 41.8373 155.417 41.8912 155.412C43.8675 155.21 45.8599 155.221 47.834 155.444C47.865 155.449 47.8968 155.442 47.9232 155.425C47.9495 155.408 47.9685 155.382 47.9764 155.351C47.9843 155.321 47.9805 155.289 47.9658 155.261C47.951 155.234 47.9264 155.213 47.8968 155.202Z" fill="#263238"/>
<path d="M26.3294 148.928C24.2332 148.096 22.9316 151.347 25.0367 152.179C27.1418 153.011 28.448 149.76 26.3294 148.928Z" fill="#263238"/>
<path d="M48.2606 147.636C47.6277 146.477 46.133 146.763 45.2219 147.34C43.687 148.365 42.4488 149.773 41.6311 151.423C41.6275 151.43 41.6256 151.438 41.6255 151.447C41.6254 151.455 41.6272 151.463 41.6306 151.47C41.6341 151.477 41.6391 151.484 41.6454 151.489C41.6517 151.494 41.6591 151.497 41.667 151.499C41.667 151.647 41.7657 151.821 41.9408 151.785C43.6419 151.396 45.5047 151.195 47.0307 150.301C47.906 149.782 48.8576 148.731 48.2606 147.636ZM44.378 150.672C43.5477 150.882 42.7128 151.052 41.8914 151.294C42.5708 150.478 43.2914 149.697 44.0504 148.955C44.424 148.6 44.8214 148.272 45.2398 147.971C45.8907 147.524 48.3504 146.696 47.722 148.794C47.3764 149.952 45.37 150.422 44.378 150.672Z" fill="#263238"/>
<path d="M36.6939 150.261C38.22 151.155 40.0827 151.365 41.7794 151.759C41.9544 151.799 42.0711 151.624 42.0577 151.472C42.0661 151.472 42.0741 151.468 42.081 151.464C42.0879 151.459 42.0934 151.452 42.097 151.444C42.1007 151.437 42.1022 151.428 42.1016 151.42C42.101 151.412 42.0982 151.403 42.0936 151.396C41.2771 149.743 40.0389 148.332 38.5028 147.305C37.6051 146.723 36.1014 146.433 35.4641 147.586C34.8267 148.74 35.8007 149.737 36.6939 150.261ZM35.9937 148.749C35.3698 146.652 37.825 147.483 38.4758 147.935C38.8938 148.236 39.2897 148.567 39.6608 148.923C40.4183 149.668 41.1374 150.45 41.8153 151.267C40.9939 151.025 40.159 150.851 39.3287 150.641C38.3232 150.372 36.3348 149.925 35.9937 148.749Z" fill="#263238"/>
<path d="M45.4506 146.643L24.5835 138.249C24.5835 138.249 50.4552 100.349 50.6437 97.5277C50.8143 95.0323 39.4494 73.2899 39.0051 66.9532C38.5203 60.1111 41.8238 54.8208 45.4595 51.534L66.9819 60.6522C66.9819 60.6522 64.7107 64.27 61.1468 66.2868C61.1468 66.2868 72.1841 91.419 71.5557 99.1465C70.9273 106.874 45.4506 146.643 45.4506 146.643Z" fill="#37474F"/>
<path d="M46.3749 142.69C43.3587 141.397 44.2429 141.724 41.2087 140.454C39.7275 139.837 29.9874 135.798 28.4883 135.463C28.4568 135.463 28.4344 135.508 28.4658 135.526C29.763 136.317 39.5838 140.185 41.0785 140.776C44.1352 141.974 43.2689 141.598 46.339 142.761C46.3436 142.767 46.3497 142.772 46.3567 142.775C46.3637 142.778 46.3714 142.78 46.379 142.779C46.3866 142.778 46.3939 142.776 46.4002 142.771C46.4066 142.767 46.4117 142.761 46.4151 142.754C46.4185 142.748 46.4201 142.74 46.4198 142.732C46.4194 142.725 46.4172 142.717 46.4131 142.711C46.4091 142.704 46.4035 142.699 46.3968 142.695C46.3901 142.692 46.3826 142.69 46.3749 142.69Z" fill="#263238"/>
<path d="M64.6753 65.8263C62.4346 66.3466 60.2423 67.0558 58.1221 67.9459C58.1135 67.9489 58.1057 67.9535 58.0989 67.9594C58.0921 67.9654 58.0866 67.9727 58.0826 67.9808C58.0787 67.9889 58.0764 67.9976 58.0758 68.0066C58.0753 68.0156 58.0765 68.0246 58.0794 68.0332C58.0824 68.0417 58.087 68.0495 58.093 68.0563C58.099 68.063 58.1062 68.0685 58.1144 68.0725C58.1225 68.0764 58.1313 68.0787 58.1404 68.0793C58.1494 68.0798 58.1584 68.0786 58.167 68.0756C60.3663 67.4362 62.6016 66.8369 64.7651 66.0812C64.9311 66.023 64.8459 65.7905 64.6753 65.8263Z" fill="#263238"/>
<path d="M62.1117 64.9587C61.9026 65.3293 61.7181 65.7132 61.5596 66.108C61.4047 66.4076 61.3087 66.7339 61.2769 67.0695C61.2769 67.1365 61.3666 67.15 61.407 67.1097C61.6322 66.8413 61.814 66.5396 61.9456 66.2153C62.1297 65.862 62.3182 65.5132 62.4932 65.151C62.6144 64.8872 62.2509 64.7172 62.1117 64.9587Z" fill="#263238"/>
<path d="M62.381 62.9285C62.5157 62.5975 62.6458 62.2711 62.785 61.9402C62.9241 61.6092 63.0992 61.2694 63.2338 60.9206C63.2338 60.8669 63.3416 60.9206 63.3191 60.9608C63.1845 61.2917 63.0992 61.6405 62.9959 61.9804C62.8927 62.3203 62.776 62.6601 62.6638 63C62.4528 63.6305 62.2149 64.2566 61.9232 64.8693C62.2764 64.8868 62.629 64.8257 62.9555 64.6904C63.289 64.4777 63.5454 64.1643 63.6872 63.796C63.8757 63.4293 64.0507 63.0537 64.2437 62.687C64.4813 62.2905 64.6812 61.8728 64.8407 61.4393C64.8407 61.3856 64.9484 61.4393 64.926 61.4795C64.6333 62.3961 64.2499 63.2815 63.7814 64.1225C63.5794 64.4489 63.4224 64.7932 63.0543 64.9185C62.6559 65.0295 62.2389 65.0584 61.8289 65.0034C61.7751 65.0034 61.7122 65.0034 61.7302 64.9229C61.914 64.2478 62.1312 63.5822 62.381 62.9285Z" fill="#263238"/>
<path d="M61.4656 67.1052C62.2332 68.7196 62.9065 70.3295 63.6201 71.9394C64.3338 73.5493 64.9667 75.1055 65.6085 76.7064C66.8922 79.9352 68.0413 83.2265 69.0512 86.5447C69.5494 88.1903 70.0118 89.8494 70.4247 91.5219C70.8795 93.1891 71.2126 94.8869 71.4211 96.602C71.6012 98.3143 71.4489 100.045 70.9723 101.7C70.4773 103.336 69.8421 104.926 69.0737 106.454C68.6024 107.42 68.4453 107.29 68.6697 106.802C69.3115 105.416 70.9947 101.217 70.8735 97.6887C70.7754 95.9995 70.5138 94.3237 70.0925 92.6846C69.7006 90.9942 69.2592 89.3173 68.7684 87.6537C67.8124 84.3713 66.6768 81.156 65.5098 77.9452C64.8545 76.1564 64.1632 74.3676 63.49 72.5789C62.8167 70.7901 62.1434 69.1444 61.3893 67.1678C61.3669 67.0873 61.4432 67.056 61.4656 67.1052Z" fill="#263238"/>
<path d="M45.6256 61.7702C45.9982 61.6316 46.5233 61.8597 46.9004 61.9223C47.3887 62.0048 47.8821 62.0541 48.3771 62.0698C48.8669 62.087 49.3573 62.0706 49.8448 62.0206C50.3358 62.008 50.817 61.8809 51.2497 61.6495C51.9597 61.1342 52.5684 60.4929 53.0451 59.7579C53.6132 59.0067 54.0824 58.1862 54.4411 57.3162C54.4411 57.2625 54.5353 57.3162 54.5174 57.352C54.3603 57.8483 54.2436 58.3492 54.0685 58.8366C53.875 59.2946 53.6438 59.7359 53.3773 60.1559C52.9451 61.001 52.306 61.7239 51.519 62.2577C50.6528 62.7496 49.5396 62.7049 48.5746 62.6646C48.0149 62.6321 47.4583 62.5589 46.9093 62.4455C46.5144 62.3605 45.8501 62.2979 45.5987 61.9536C45.5869 61.9404 45.5781 61.9248 45.573 61.9079C45.5679 61.8909 45.5666 61.8731 45.5691 61.8556C45.5717 61.8381 45.5781 61.8214 45.5879 61.8067C45.5976 61.7919 45.6105 61.7795 45.6256 61.7702Z" fill="#263238"/>
<path d="M30.5397 134.273C33.9689 129.098 37.3353 123.881 40.6388 118.622C43.9423 113.363 47.201 108.064 50.4148 102.724C51.1823 101.45 52.0665 100.18 52.5603 98.7664C53.0989 97.2325 52.7937 95.7434 52.3089 94.2408C51.3935 91.4997 50.3236 88.8123 49.1041 86.1913C47.9012 83.5484 46.604 80.9503 45.3293 78.3431C44.0546 75.736 42.7215 73.1602 41.7385 70.4412C40.8408 67.8431 40.4772 65.151 41.1774 62.4589C41.8776 59.7668 43.3858 57.3877 44.9612 55.1473C45.3742 54.557 45.8006 53.9712 46.218 53.3585C46.2494 53.3138 46.3168 53.3585 46.2853 53.4122C44.5483 55.7465 42.8561 58.2195 41.8372 60.9608C41.3165 62.312 41.0252 63.7402 40.9754 65.1867C40.9669 66.6551 41.1958 68.1152 41.6532 69.5111C42.497 72.23 43.8301 74.8014 45.0734 77.3593C46.3168 79.9172 47.6454 82.5646 48.8707 85.1986C50.1349 87.8495 51.2585 90.5648 52.2371 93.333C52.6545 94.5628 53.1348 95.8507 53.0989 97.1699C53.0675 98.6143 52.3762 99.9157 51.6581 101.132C48.5161 106.431 45.2979 111.668 42.0213 116.873C38.7447 122.079 35.3738 127.284 31.9625 132.435L30.6698 134.381C30.6025 134.461 30.4858 134.367 30.5397 134.273Z" fill="#263238"/>
<path d="M68.1757 36.5486C70.1193 40.7969 79.9356 46.6507 84.5319 47.2812C87.8354 47.7284 97.8807 47.8894 101.323 47.3662C105.363 46.749 102.275 35.9046 99.8915 36.1864C93.3383 36.9466 87.7726 37.7963 86.022 37.7963C83.8855 37.7963 72.3276 34.1025 70.9362 33.5792C67.5249 32.3137 67.0761 34.1382 68.1757 36.5486Z" fill="#EB9481"/>
<path d="M68.2391 37.68C70.6988 41.3067 78.8723 47.2365 78.8723 47.2365L80.0079 44.7322L83.7648 36.4502C83.7648 36.4502 76.2555 34.1024 71.3137 33.0292C70.7321 32.8973 70.1406 32.8136 69.5452 32.7788C66.3898 32.6088 66.116 34.5496 68.2391 37.68Z" fill="#B3EDD8"/>
<path d="M68.2391 37.68C70.6988 41.3067 78.8723 47.2365 78.8723 47.2365L80.0079 44.7322C76.9602 41.2039 72.2518 35.8599 69.5452 32.7877C66.3898 32.6088 66.116 34.5496 68.2391 37.68Z" fill="#263238"/>
<path d="M77.4 45.555C78.0239 44.0301 80.7978 37.8902 81.489 36.6112C81.5339 36.5218 81.6057 36.5307 81.5653 36.6112C80.3621 39.6646 78.9926 42.6503 77.4629 45.555C77.4449 45.6087 77.3731 45.5908 77.4 45.555Z" fill="#263238"/>
<path d="M98.6885 36.2981C102.674 35.7794 107.607 34.8895 111.786 36.6559C112.255 36.8393 112.649 37.1748 112.904 37.6084C114.789 38.3686 114.995 39.4821 114.995 39.4821C116.535 40.7253 116.589 41.897 116.589 41.897C116.589 41.897 118.797 42.7914 118.46 44.2313C118.092 45.8233 115.067 44.2313 112.868 44.361C107.818 44.674 100.749 46.5209 99.2899 46.7535L98.6885 36.2981Z" fill="#EB9481"/>
<path d="M107.347 40.9847C108.824 40.8841 110.305 40.8841 111.782 40.9847C113.39 41.1857 114.98 41.5071 116.54 41.9462C116.55 41.9498 116.561 41.9492 116.571 41.9446C116.58 41.9399 116.588 41.9317 116.591 41.9216C116.595 41.9115 116.594 41.9004 116.59 41.8908C116.585 41.8812 116.577 41.8737 116.567 41.8702C113.637 40.725 110.448 40.4032 107.347 40.94C107.276 40.9311 107.276 40.9892 107.347 40.9847Z" fill="#263238"/>
<path d="M106.409 36.3384C108.873 36.4636 110.413 36.8572 112.891 37.5995V37.5727C110.162 36.4368 109.044 36.3295 106.396 36.2311C106.31 36.2669 106.315 36.3384 106.409 36.3384Z" fill="#263238"/>
<path d="M106.809 45.1213C106.167 45.4209 106.324 45.7563 107.549 46.038C108.775 46.3198 113.869 46.4047 113.69 48.1756C113.51 49.9465 106.324 49.7229 104.318 49.0968C102.311 48.4707 99.2905 46.7535 99.2905 46.7535C100.713 46.5165 104.053 45.6177 106.809 45.1213Z" fill="#EB9481"/>
<path d="M73.513 43.3191C73.4816 44.0838 73.4098 44.8619 73.3021 45.6355C73.3021 45.6042 73.3021 45.5774 73.3335 45.5506C73.4816 45.1481 73.6297 44.7367 73.8093 44.3476C73.8093 44.3476 73.8541 44.3476 73.8497 44.3476C73.7634 44.7739 73.6341 45.1905 73.4636 45.5908C73.3829 45.7831 73.3066 45.9709 73.2213 46.1588C73.1674 46.5031 73.1046 46.843 73.0372 47.1828C72.9026 47.8223 72.2966 50.5412 72.1395 51.0018C72.1126 51.0958 71.9959 51.0734 72.0049 50.9661C72.0363 50.4652 72.5435 47.6345 72.6467 46.9905C72.8473 45.7472 73.1155 44.5156 73.4502 43.3012C73.4726 43.2788 73.5175 43.2967 73.513 43.3191Z" fill="#263238"/>
<path d="M68.8443 63.6529C67.6459 64.2656 66.1019 65.2181 59.1447 63.8541C58.6958 63.7647 58.2739 63.6574 57.8341 63.5277C51.3123 61.5779 43.4708 53.9354 43.0444 53.3943C43.0444 53.3943 53.4084 36.6559 66.6629 31.3925C68.3012 30.744 71.0123 31.9962 72.498 33.5569C73.0321 34.1159 74.1946 38.2256 73.7503 41.5527C73.3059 44.8798 70.0383 63.0402 68.8443 63.6529Z" fill="#B3EDD8"/>
<path d="M67.9113 41.4006C67.9614 42.108 67.862 42.8179 67.6196 43.4845C67.5627 42.777 67.6622 42.0656 67.9113 41.4006Z" fill="white"/>
<path d="M63.391 52.7995C63.4195 53.1515 63.4075 53.5056 63.3551 53.8549C63.3118 54.2068 63.2259 54.5522 63.0992 54.8834C63.0683 54.53 63.0804 54.1742 63.1351 53.8236C63.181 53.4737 63.2669 53.1301 63.391 52.7995Z" fill="white"/>
<path d="M55.7112 44.1822C55.7622 44.8895 55.6628 45.5996 55.4195 46.2661C55.3634 45.5586 55.463 44.8474 55.7112 44.1822Z" fill="white"/>
<path d="M70.869 52.2182C70.8977 52.5717 70.8856 52.9273 70.8331 53.2781C70.7899 53.6299 70.704 53.9753 70.5772 54.3066C70.5463 53.9532 70.5584 53.5973 70.6131 53.2467C70.6585 52.8952 70.7444 52.5501 70.869 52.2182Z" fill="white"/>
<path d="M61.0078 42.7064C61.3609 42.6765 61.7164 42.687 62.0671 42.7377C62.4205 42.7823 62.7671 42.8694 63.0995 42.9971C62.3895 43.0479 61.6767 42.9488 61.0078 42.7064Z" fill="white"/>
<path d="M52.291 50.9393C53.001 50.8894 53.7135 50.9884 54.3827 51.2299C53.6725 51.2866 52.9585 51.1874 52.291 50.9393Z" fill="white"/>
<path d="M62.561 59.8518C63.271 59.801 63.9838 59.9 64.6527 60.1424C63.9425 60.1983 63.2287 60.0991 62.561 59.8518Z" fill="white"/>
<path d="M49.6025 56.6141C50.3125 56.5643 51.025 56.6633 51.6942 56.9048C50.984 56.9606 50.2702 56.8614 49.6025 56.6141Z" fill="white"/>
<path d="M67.8438 33.3869C68.5537 33.3371 69.2662 33.4361 69.9354 33.6776C69.2254 33.7275 68.5129 33.6285 67.8438 33.3869Z" fill="white"/>
<path d="M65.3074 36.24C65.0805 36.5118 64.8213 36.7551 64.5354 36.9645C64.2573 37.1788 63.9562 37.3617 63.6377 37.51C63.8631 37.24 64.1192 36.9969 64.4007 36.7856C64.6815 36.5705 64.9856 36.3875 65.3074 36.24Z" fill="white"/>
<path d="M51.4877 44.3476C51.258 44.617 50.9974 44.8587 50.7112 45.0676C50.4359 45.2859 50.1343 45.4692 49.8135 45.6132C50.0444 45.3449 50.3049 45.1034 50.59 44.8932C50.8659 44.6758 51.1674 44.4926 51.4877 44.3476Z" fill="white"/>
<path d="M68.746 48.0056C68.5164 48.2765 68.2558 48.5196 67.9695 48.7301C67.6935 48.9475 67.3921 49.1307 67.0718 49.2757C67.3014 49.0049 67.562 48.7617 67.8483 48.5512C68.1258 48.336 68.4269 48.153 68.746 48.0056Z" fill="white"/>
<path d="M57.5692 55.0176C57.3396 55.2884 57.079 55.5316 56.7927 55.7421C56.5163 55.9588 56.215 56.142 55.895 56.2877C56.1246 56.0169 56.3852 55.7737 56.6715 55.5632C56.949 55.348 57.2502 55.165 57.5692 55.0176Z" fill="white"/>
<path d="M73.0282 38.4268C72.7986 38.6976 72.538 38.9407 72.2517 39.1512C71.9736 39.3655 71.6725 39.5485 71.354 39.6968C71.5836 39.426 71.8442 39.1829 72.1305 38.9724C72.4069 38.7556 72.7083 38.5725 73.0282 38.4268Z" fill="white"/>
<path d="M72.7948 46.5523C72.5229 46.3235 72.2789 46.0639 72.0676 45.7786C71.8492 45.5039 71.6653 45.2035 71.52 44.8842C71.7928 45.1103 72.037 45.3686 72.2472 45.6534C72.4616 45.9325 72.6452 46.2339 72.7948 46.5523Z" fill="white"/>
<path d="M47.8836 52.1511C47.6118 51.9224 47.3678 51.6627 47.1565 51.3775C46.9405 51.101 46.7568 50.801 46.6089 50.4831C46.8807 50.7119 47.1247 50.9715 47.336 51.2567C47.5536 51.5321 47.7374 51.8324 47.8836 52.1511Z" fill="white"/>
<path d="M69.765 58.8098C69.4922 58.5838 69.248 58.3255 69.0378 58.0407C68.8227 57.7636 68.6391 57.4636 68.4902 57.1463C68.762 57.375 69.0061 57.6347 69.2174 57.9199C69.434 58.1944 69.6177 58.493 69.765 58.8098Z" fill="white"/>
<path d="M58.7991 39.8265C58.5274 39.5993 58.2834 39.3412 58.072 39.0573C57.8578 38.7796 57.6743 38.4798 57.5244 38.163C57.7972 38.389 58.0414 38.6473 58.2515 38.9321C58.4657 39.2099 58.6493 39.5097 58.7991 39.8265Z" fill="white"/>
<path d="M58.9925 62.602C58.7207 62.3732 58.4767 62.1136 58.2654 61.8283C58.05 61.5514 57.8664 61.2514 57.7178 60.934C57.9906 61.16 58.2347 61.4183 58.4449 61.7031C58.6609 61.9812 58.8446 62.2827 58.9925 62.602Z" fill="white"/>
<path d="M60.8552 49.1684C60.586 48.9383 60.3435 48.6788 60.1326 48.3947C59.9134 48.1204 59.7295 47.82 59.585 47.5003C59.8554 47.7292 60.0979 47.9888 60.3076 48.274C60.5258 48.5489 60.7097 48.8492 60.8552 49.1684Z" fill="white"/>
<path d="M70.07 38.0154C68.3778 37.7024 66.7889 34.2187 66.5869 31.8754C66.5869 31.7144 67.3769 30.44 68.2791 28.8435C68.8267 27.8731 69.4057 26.7775 69.868 25.74C69.9623 25.5298 70.5144 26.2408 70.5144 26.2408L71.7173 27.1352L75.6896 30.1716C74.7437 31.3025 73.9402 32.5445 73.2972 33.8699C73.2337 34.0135 73.1856 34.1634 73.1536 34.3171C73.1518 34.3424 73.1518 34.3678 73.1536 34.3931C72.9067 35.2786 71.6993 38.315 70.07 38.0154Z" fill="#EB9481"/>
<path d="M73.1539 34.3395C73.1521 34.3648 73.1521 34.3902 73.1539 34.4155C72.918 34.3466 72.6883 34.2583 72.4671 34.1516C68.1178 32.1214 70.0344 26.3168 70.0344 26.3168L71.74 27.1576L75.7123 30.194C74.7664 31.3249 73.963 32.5669 73.32 33.8923C73.2488 34.035 73.1931 34.1849 73.1539 34.3395Z" fill="#263238"/>
<path d="M80.2544 17.8157C80.2544 17.8157 82.2428 19.0723 82.2518 21.3083C82.2608 23.5442 81.3541 25.731 81.1656 25.8115C80.977 25.892 80.2544 17.8157 80.2544 17.8157Z" fill="#263238"/>
<path d="M70.3884 18.9784C69.1945 21.3262 69.2573 28.7272 70.7475 30.6322C72.911 33.3959 77.0763 34.3484 79.5943 31.6161C82.0316 28.9687 81.7802 19.3272 80.0432 17.5295C77.5162 14.8732 72.1569 15.5037 70.3884 18.9784Z" fill="#EB9481"/>
<path d="M76.7266 24.9037C76.7266 24.9037 76.6862 24.9305 76.6907 24.9484C76.7176 25.4537 76.6638 26.0351 76.2104 26.214C76.2104 26.214 76.2104 26.2453 76.2104 26.2408C76.7715 26.1514 76.8343 25.3777 76.7266 24.9037Z" fill="#263238"/>
<path d="M76.2646 24.3895C75.4477 24.3447 75.4207 25.9725 76.1793 26.0128C76.9378 26.053 76.9468 24.4252 76.2646 24.3895Z" fill="#263238"/>
<path d="M79.4959 24.8858C79.4959 24.8858 79.5363 24.8858 79.5363 24.9306C79.5094 25.4359 79.5677 26.0172 80.0256 26.1916C80.0256 26.1916 80.0256 26.2229 80.0256 26.2185C79.46 26.1335 79.3927 25.3599 79.4959 24.8858Z" fill="#263238"/>
<path d="M79.9581 24.3671C80.7705 24.3179 80.8109 25.9457 80.0568 25.9904C79.3027 26.0351 79.2758 24.4073 79.9581 24.3671Z" fill="#263238"/>
<path d="M75.7523 23.1507C75.9668 23.0899 76.178 23.0183 76.3852 22.9361C76.6209 22.8936 76.8357 22.774 76.9956 22.5962C77.0344 22.5311 77.0506 22.4551 77.0417 22.3799C77.0328 22.3047 76.9992 22.2346 76.9462 22.1803C76.8248 22.0883 76.6809 22.0303 76.5294 22.0122C76.3779 21.9941 76.2243 22.0166 76.0845 22.0775C75.7816 22.1582 75.5194 22.3478 75.3483 22.6096C75.3142 22.6719 75.2987 22.7426 75.3036 22.8134C75.3086 22.8842 75.3338 22.9521 75.3764 23.0091C75.4189 23.066 75.4769 23.1096 75.5435 23.1347C75.6101 23.1599 75.6826 23.1654 75.7523 23.1507Z" fill="#263238"/>
<path d="M80.5148 23.8707C80.2964 23.8221 80.0807 23.7624 79.8684 23.6918C79.6319 23.6607 79.4124 23.5521 79.2445 23.3833C79.2013 23.3211 79.1804 23.2462 79.1853 23.1707C79.1902 23.0952 79.2205 23.0235 79.2714 22.9674C79.3872 22.8688 79.5275 22.8031 79.6775 22.7771C79.8276 22.7511 79.9819 22.7659 80.1243 22.8198C80.4313 22.8832 80.7034 23.0587 80.8873 23.3117C80.9258 23.3716 80.9459 23.4414 80.9453 23.5125C80.9447 23.5836 80.9234 23.653 80.8839 23.7122C80.8444 23.7714 80.7885 23.8179 80.723 23.8461C80.6574 23.8742 80.5851 23.8828 80.5148 23.8707Z" fill="#263238"/>
<path d="M75.5772 29.6842C75.6984 29.8049 75.8151 29.9659 75.9991 29.9838C76.1878 29.9837 76.3744 29.9441 76.5467 29.8675C76.5467 29.8675 76.5781 29.8675 76.5467 29.8944C76.4732 29.9927 76.3741 30.0691 76.2603 30.1156C76.1464 30.1621 76.022 30.1768 75.9004 30.1582C75.7978 30.1303 75.7058 30.0731 75.6355 29.9936C75.5653 29.9142 75.5201 29.8159 75.5054 29.711C75.5018 29.7015 75.5022 29.691 75.5064 29.6818C75.5106 29.6726 75.5183 29.6654 75.5278 29.6618C75.5373 29.6583 75.5479 29.6586 75.5571 29.6628C75.5664 29.667 75.5736 29.6747 75.5772 29.6842Z" fill="#263238"/>
<path d="M78.5125 27.5287C78.5125 27.5287 78.535 28.28 78.5125 28.6333C77.8228 28.5604 77.1263 28.5844 76.4433 28.7048C76.2817 28.7406 76.2997 28.6109 76.4837 28.5259C77.0339 28.2754 77.6466 28.1945 78.2432 28.2934C78.2791 28.1995 78.1849 27.1307 78.2432 27.1352C78.5147 27.1883 78.7776 27.2786 79.0242 27.4035C79.0242 25.8294 78.7729 24.2731 78.7953 22.699C78.7953 22.6454 78.8806 22.6364 78.8896 22.699C79.2085 24.3642 79.3589 26.0572 79.3384 27.7523C79.3429 27.9446 78.6472 27.6003 78.5125 27.5287Z" fill="#263238"/>
<path d="M77.5033 28.365C77.3244 28.8339 76.9924 29.2292 76.5608 29.4874C75.883 29.7602 75.6631 29.1476 76.3453 28.593C76.7031 28.4129 77.1036 28.334 77.5033 28.365Z" fill="#263238"/>
<path d="M76.7983 29.3488C76.7267 29.4069 76.6464 29.4537 76.5604 29.4874C75.9365 29.7378 75.6897 29.2415 76.1924 28.7406C76.5335 28.7674 76.924 28.8926 76.7983 29.3488Z" fill="#FF99BA"/>
<path d="M70.0474 25.3062C70.8688 25.5566 71.8114 23.0971 72.0807 22.1758C72.3141 21.3441 72.5834 18.7012 72.6238 18.5178C72.6642 18.3345 76.2146 20.8566 78.2703 20.2574C80.326 19.6582 81.722 17.8023 81.7534 16.9392C81.7848 16.0761 79.2129 13.8849 76.9911 13.7731C74.7693 13.6613 71.7575 16.4563 71.7575 16.4563C72.1213 16.0449 72.4515 15.6053 72.745 15.1415C72.7091 15.0431 71.2727 15.6155 71.0079 16.6351C71.0079 16.6351 71.2952 15.3517 71.1875 15.3293C71.0797 15.307 69.9621 16.4026 70.2134 17.2344C70.2134 17.2344 68.9208 18.3479 68.8041 19.5687C68.6874 20.7895 69.0823 25.011 70.0474 25.3062Z" fill="#263238"/>
<path d="M79.7427 19.7923C79.1313 20.1226 78.4729 20.3578 77.7902 20.4899C77.0239 20.558 76.2526 20.4351 75.5459 20.1322C74.834 19.8582 74.1727 19.4683 73.589 18.9784C73.0728 18.5581 72.6105 18.0438 72.0584 17.6682C71.9192 17.5698 71.7621 17.771 71.8474 17.8962C72.7685 19.1924 74.0843 20.1584 75.5998 20.6509C76.3037 20.8796 77.055 20.9223 77.7804 20.7749C78.5058 20.6276 79.1804 20.2952 79.7382 19.8102C79.7382 19.8102 79.7517 19.7923 79.7427 19.7923Z" fill="#263238"/>
<path d="M70.9052 25.0871C70.9052 25.0871 69.6304 22.5112 68.4814 22.9271C67.3323 23.343 68.0325 26.9071 69.213 27.56C69.3576 27.6532 69.5196 27.7164 69.6893 27.7457C69.859 27.775 70.0329 27.7699 70.2005 27.7307C70.3682 27.6914 70.5262 27.6188 70.665 27.5173C70.8038 27.4157 70.9206 27.2873 71.0084 27.1397L70.9052 25.0871Z" fill="#EB9481"/>
<path d="M68.7097 23.9423C68.7097 23.9423 68.6828 23.9423 68.7097 23.978C69.5266 24.461 69.8588 25.3196 70.0563 26.214C70.0191 26.1193 69.9617 26.0338 69.8881 25.9634C69.8145 25.893 69.7264 25.8393 69.6299 25.8062C69.5335 25.773 69.4309 25.7611 69.3294 25.7713C69.2279 25.7815 69.1298 25.8135 69.0419 25.8652C69.0149 25.8652 69.0419 25.9144 69.0419 25.9144C69.2024 25.8895 69.3668 25.9148 69.5123 25.9869C69.6578 26.059 69.7773 26.1743 69.8543 26.3168C69.9828 26.5557 70.0851 26.8075 70.1595 27.0681C70.1864 27.1531 70.3346 27.1307 70.3211 27.0368C70.5141 25.9233 69.8857 24.2374 68.7097 23.9423Z" fill="#263238"/>
<path d="M62.489 36.5888C61.5913 41.6555 67.1032 58.7248 70.6356 61.9133C75.8917 66.6535 85.6093 69.7705 89.1328 70.7856C90.6678 71.2328 94.9139 60.4689 93.3609 59.7578C90.0349 58.2508 79.7024 55.031 78.7194 54.2261C77.7364 53.4211 71.8116 44.8932 69.1724 39.983C65.6399 33.3735 62.9334 34.0264 62.489 36.5888Z" fill="#EB9481"/>
<path d="M90.7439 58.8098C90.7439 58.8098 95.3312 59.977 98.2891 60.8758C99.9409 61.3812 102.697 62.4947 103.743 63.4159C105.305 64.7977 110.951 71.5593 109.335 72.959C107.872 74.229 103.761 67.8028 103.761 67.8028C103.761 67.8028 108.482 73.9204 106.454 75.1234C104.425 76.3263 100.713 68.4513 100.713 68.4513C100.713 68.4513 105.421 74.8461 103.119 75.7539C101.377 76.4381 97.6427 69.4932 97.6427 69.4932C97.6427 69.4932 101.655 75.0161 99.887 75.7986C97.939 76.6662 94.0923 70.4681 94.0923 70.4681C89.2807 71.7068 86.4619 70.334 84.6081 69.1265C84.1727 68.8314 90.7439 58.8098 90.7439 58.8098Z" fill="#EB9481"/>
<path d="M102.262 65.5803C102.845 66.2779 103.438 66.9845 103.954 67.7313C104.47 68.4781 104.959 69.2473 105.404 70.0388C106.006 71.0626 106.488 72.1519 106.84 73.2854C106.068 71.3178 104.259 68.6122 103.743 67.8654C103.227 67.1186 102.746 66.345 102.235 65.5982C102.221 65.5803 102.248 65.5624 102.262 65.5803Z" fill="#263238"/>
<path d="M99.5188 67.3914C100.515 68.1785 102.602 71.1031 103.406 73.0663C103.442 73.1468 103.406 73.1423 103.347 73.0663C102.719 72.0959 100.17 68.3395 99.4963 67.4048C99.4829 67.3914 99.5053 67.378 99.5188 67.3914Z" fill="#263238"/>
<path d="M96.8844 68.5363C98.1225 69.8301 99.1006 71.348 99.766 73.0082C99.7974 73.0887 99.7346 73.0753 99.6852 73.0082C98.7561 71.5011 98.0379 70.325 96.835 68.5765C96.8171 68.5363 96.8575 68.496 96.8844 68.5363Z" fill="#263238"/>
<path d="M67.4981 36.96C63.4001 31.1868 60.9494 33.3243 61.7708 39.594C62.5428 45.4567 64.6031 52.4418 64.6031 52.4418L74.9266 47.4511C74.9266 47.4511 70.106 40.6583 67.4981 36.96Z" fill="#B3EDD8"/>
<path d="M69.9892 39.2318C70.1253 39.5578 70.2232 39.8985 70.281 40.2469C70.344 40.5964 70.3666 40.952 70.3483 41.3067C70.2137 40.9789 70.1173 40.6368 70.061 40.2871C69.9943 39.9395 69.9702 39.5851 69.9892 39.2318Z" fill="white"/>
<path d="M63.8716 42.7422C64.5304 42.4752 65.2393 42.3532 65.9498 42.3844C65.6223 42.5185 65.2804 42.6146 64.9309 42.6706C64.582 42.737 64.2263 42.761 63.8716 42.7422Z" fill="white"/>
<path d="M64.1363 33.7626C63.8583 34.4161 63.4437 35.0031 62.9199 35.4843C63.1979 34.8307 63.6126 34.2438 64.1363 33.7626Z" fill="white"/>
<path d="M72.8844 45.4388C72.7481 45.7658 72.5749 46.0764 72.3682 46.3645C72.1669 46.6562 71.9318 46.9234 71.668 47.1605C71.9459 46.5069 72.3606 45.92 72.8844 45.4388Z" fill="white"/>
<path d="M65.7027 48.9403C65.3736 48.8061 65.0617 48.6335 64.7736 48.426C64.4806 48.2256 64.2124 47.9914 63.9746 47.7284C64.3025 47.8649 64.6142 48.0374 64.9037 48.2427C65.1965 48.4432 65.4647 48.6774 65.7027 48.9403Z" fill="white"/>
<path d="M68.8449 38.6996C69.397 39.4553 69.967 40.1932 70.5326 40.9355C70.3889 40.5599 70.2633 40.1798 70.1555 39.7952H70.1825C70.2947 40.0904 70.4249 40.381 70.5326 40.6896L70.6942 41.1368C70.7081 41.1673 70.7201 41.1987 70.7301 41.2307C71.1789 41.8076 71.6278 42.3844 72.0407 42.9747C72.5479 43.6813 73.0372 44.3968 73.5309 45.1123C74.0246 45.8278 74.5229 46.7177 75.057 47.4377C75.1064 47.5003 74.1593 47.8849 74.0561 47.9341C73.9528 47.9833 73.899 47.8983 73.9977 47.867C74.0964 47.8357 74.8505 47.3751 74.8595 47.3662C74.3658 46.6417 73.7957 45.9754 73.2795 45.2733C72.7634 44.5712 72.2517 43.8691 71.7534 43.1581C70.7435 41.7092 69.8189 40.2066 68.8135 38.7532L68.8449 38.6996Z" fill="#263238"/>
<path d="M62.0128 43.7439C62.1699 44.048 62.3405 44.3476 62.4617 44.6606L62.6322 45.0497C62.3944 43.9362 62.1834 42.8137 61.9365 41.7002C62.4123 43.489 62.8926 45.318 63.3324 47.1336C63.7499 48.8687 64.2571 50.6217 64.4995 52.3926C64.8125 52.2558 65.1369 52.1466 65.469 52.0661C65.1357 52.281 64.7768 52.4538 64.4007 52.5804C63.8596 50.7796 63.4102 48.9527 63.0542 47.1068C62.942 46.6059 62.8387 46.1051 62.731 45.6042C62.6143 45.3001 62.4751 45.0094 62.336 44.7098C62.1969 44.4102 62.0712 44.0748 61.9455 43.7573C61.9724 43.7394 62.0039 43.7215 62.0128 43.7439Z" fill="#263238"/>
<path d="M64.7556 50.7156C66.192 49.9107 72.1931 46.8161 73.5351 46.2437C73.6294 46.2035 73.6788 46.2437 73.5845 46.3063C70.7359 47.9554 67.7991 49.4483 64.7871 50.7782C64.7512 50.7872 64.7152 50.738 64.7556 50.7156Z" fill="#263238"/>
<path d="M229.228 168.282H92.4727L112.245 56.5515H249L229.228 168.282Z" fill="#B3EDD8"/>
<path d="M159.05 44.9781H114.295L112.244 56.5515H160.145L159.05 44.9781Z" fill="#B3EDD8"/>
<g opacity="0.1">
<path d="M229.228 168.282H92.4727L112.245 56.5515H249L229.228 168.282Z" fill="black"/>
<path d="M159.051 44.9781H114.296L112.245 56.5515H160.146L159.051 44.9781Z" fill="black"/>
</g>
<path d="M109.466 49.7005C109.167 48.4208 109.167 47.0896 109.466 45.8099C109.765 47.0896 109.765 48.4208 109.466 49.7005Z" fill="#263238"/>
<path d="M105.489 50.8453C105.032 50.3731 104.638 49.844 104.318 49.2712C103.981 48.7102 103.717 48.1092 103.532 47.4824C103.991 47.9518 104.385 48.4796 104.704 49.052C105.039 49.6149 105.303 50.2173 105.489 50.8453Z" fill="#263238"/>
<path d="M102.617 53.8191C101.355 53.437 100.199 52.7715 99.2368 51.8738C99.8661 52.056 100.469 52.3175 101.032 52.6519C101.607 52.9735 102.14 53.3656 102.617 53.8191Z" fill="#263238"/>
<path d="M101.611 57.826C100.327 58.1241 98.9905 58.1241 97.7061 57.826C98.9905 57.5278 100.327 57.5278 101.611 57.826Z" fill="#263238"/>
<path d="M102.778 61.7881C102.302 62.2411 101.772 62.6331 101.198 62.9553C100.635 63.2897 100.032 63.5511 99.4028 63.7334C99.8767 63.278 100.408 62.8857 100.983 62.5662C101.545 62.2302 102.148 61.9686 102.778 61.7881Z" fill="#263238"/>
<path d="M105.759 64.6456C105.377 65.9041 104.708 67.0579 103.806 68.0175C103.989 67.3897 104.253 66.7884 104.592 66.2287C104.912 65.6538 105.304 65.1218 105.759 64.6456Z" fill="#263238"/>
<path d="M109.78 65.6339C109.937 66.2704 110.012 66.924 110.005 67.5792C110.014 68.2346 109.939 68.8884 109.78 69.5245C109.619 68.8888 109.544 68.2347 109.556 67.5792C109.548 66.924 109.624 66.2704 109.78 65.6339Z" fill="#263238"/>
<path d="M113.757 64.5115C114.214 64.9836 114.608 65.5127 114.928 66.0856C115.266 66.6455 115.528 67.2468 115.709 67.8744C114.807 66.9148 114.139 65.761 113.757 64.5025V64.5115Z" fill="#263238"/>
<path d="M116.625 61.5153C117.255 61.6958 117.859 61.9574 118.421 62.2934C118.996 62.6129 119.527 63.0052 120.001 63.4605C119.371 63.28 118.767 63.0184 118.205 62.6824C117.63 62.3629 117.099 61.9706 116.625 61.5153Z" fill="#263238"/>
<path d="M117.617 57.5085C118.903 57.2104 120.241 57.2104 121.527 57.5085C120.241 57.8065 118.903 57.8065 117.617 57.5085Z" fill="#263238"/>
<path d="M116.468 53.5463C116.943 53.0937 117.474 52.703 118.048 52.3836C118.609 52.0444 119.213 51.7812 119.843 51.601C118.88 52.5 117.722 53.1656 116.459 53.5463H116.468Z" fill="#263238"/>
<path d="M113.483 50.6887C113.668 50.0625 113.931 49.4616 114.264 48.9C114.585 48.3271 114.979 47.798 115.436 47.3259C115.255 47.9534 114.992 48.5547 114.655 49.1146C114.334 49.6875 113.94 50.2166 113.483 50.6887Z" fill="#263238"/>
<path d="M229.026 168.282H91.9743L72.5166 60.6075H209.569L229.026 168.282Z" fill="#B3EDD8"/>
<path d="M120.009 126.43C123.155 126.43 125.705 123.889 125.705 120.755C125.705 117.621 123.155 115.08 120.009 115.08C116.864 115.08 114.313 117.621 114.313 120.755C114.313 123.889 116.864 126.43 120.009 126.43Z" fill="#263238"/>
<path d="M165.038 126.43C168.184 126.43 170.734 123.889 170.734 120.755C170.734 117.621 168.184 115.08 165.038 115.08C161.892 115.08 159.342 117.621 159.342 120.755C159.342 123.889 161.892 126.43 165.038 126.43Z" fill="#263238"/>
<path d="M150.706 127.337L150.392 126.743C150.365 126.689 147.421 121.269 141.501 121.269C136.114 121.269 134.768 126.372 134.732 126.591L134.57 127.239L133.264 126.926L133.421 126.273C133.421 126.211 135.028 119.927 141.501 119.927C148.233 119.927 151.452 125.866 151.586 126.121L151.9 126.711L150.706 127.337Z" fill="#263238"/>
<path d="M219.932 120.102C220.224 120.039 220.516 119.972 220.803 119.901" stroke="#263238" stroke-miterlimit="10"/>
<path d="M222.527 119.391C229.394 117.079 235.144 111.699 235.682 105.412C236.876 91.5487 219.932 83.8928 221.683 67.8744C223.352 52.5938 239.439 51.5027 245.889 53.6134C253.012 55.9478 250.571 62.7674 244.121 61.8865C232.94 60.3615 225.911 48.2516 231.221 34.5138C235.189 24.2508 245.081 20.3781 249.098 19.1975" stroke="#263238" stroke-miterlimit="10" stroke-dasharray="4 4"/>
<path d="M249.965 18.9605C250.517 18.8174 250.836 18.7593 250.836 18.7593" stroke="#263238" stroke-miterlimit="10"/>
<path d="M257.955 16.2863C256.81 12.7535 249.144 14.0235 250.638 18.643C252.133 23.2625 259.099 19.8236 257.955 16.2863Z" fill="#263238"/>
<path d="M246.468 14.8732C246.526 13.3214 248.69 12.1274 251.751 12.6775C254.812 13.2275 257.689 15.2846 257.689 15.2846C257.689 15.2846 254.668 17.1091 251.576 17.4445C248.483 17.7799 246.41 16.4204 246.468 14.8732Z" fill="#EBEBEB"/>
<path d="M257.689 15.2756C256.101 15.2756 254.516 15.2309 252.932 15.1817C251.347 15.1325 249.758 15.052 248.174 14.9268C249.763 14.9268 251.352 14.9671 252.936 15.0163C254.521 15.0654 256.109 15.1459 257.689 15.2756Z" fill="#263238"/>
<path d="M249.542 13.4914C250.444 13.9213 251.295 14.4508 252.078 15.07C251.627 14.8589 251.189 14.6199 250.768 14.3544C250.343 14.0908 249.934 13.8026 249.542 13.4914Z" fill="#263238"/>
<path d="M253.703 15.1281C252.892 15.7837 252.011 16.3504 251.078 16.8185C251.894 16.162 252.779 15.5953 253.717 15.1281H253.703Z" fill="#263238"/>
<path d="M254.166 14.256C254.619 14.4727 255.015 14.7911 255.324 15.1862C255.097 15.0797 254.885 14.946 254.691 14.7882C254.496 14.6313 254.32 14.4528 254.166 14.256Z" fill="#263238"/>
<path d="M249.386 24.0629C250.342 25.2883 252.797 24.9931 254.956 22.7661C257.115 20.5391 258.26 17.1896 258.26 17.1896C258.26 17.1896 254.723 17.4579 252.025 18.9784C249.327 20.4988 248.425 22.8332 249.386 24.0629Z" fill="#EBEBEB"/>
<path d="M258.26 17.1896C256.967 18.084 255.71 19.0768 254.449 20.0382C253.188 20.9997 251.954 21.9924 250.746 23.0165C252.039 22.1221 253.296 21.1338 254.552 20.1724C255.809 19.2109 257.034 18.2181 258.26 17.1896Z" fill="#263238"/>
<path d="M252.685 23.3698C252.925 22.9354 253.139 22.4874 253.326 22.0282C253.517 21.5677 253.679 21.0957 253.811 20.6151C253.571 21.0491 253.356 21.4971 253.169 21.9567C252.98 22.4179 252.818 22.8897 252.685 23.3698Z" fill="#263238"/>
<path d="M255.118 19.6313C254.067 19.5754 253.014 19.6308 251.976 19.7968C252.499 19.8281 253.023 19.8281 253.547 19.7968C254.073 19.7712 254.597 19.716 255.118 19.6313Z" fill="#263238"/>
<path d="M255.984 20.074C256.104 19.8532 256.197 19.619 256.262 19.3764C256.329 19.1355 256.368 18.888 256.379 18.6385C256.14 19.0812 256.005 19.572 255.984 20.074Z" fill="#263238"/>
<path d="M257.954 16.2863C257.701 16.3683 257.429 16.3735 257.172 16.3013C256.916 16.2291 256.686 16.0826 256.514 15.8805C256.341 15.6784 256.232 15.4298 256.201 15.166C256.17 14.9023 256.218 14.6353 256.34 14.399C256.461 14.1626 256.65 13.9675 256.883 13.8383C257.116 13.7091 257.382 13.6516 257.648 13.6732C257.913 13.6947 258.167 13.7944 258.375 13.9594C258.584 14.1245 258.739 14.3475 258.821 14.6004C258.929 14.9384 258.899 15.3057 258.737 15.6217C258.575 15.9377 258.293 16.1767 257.954 16.2863Z" fill="#455A64"/>
<path d="M258.78 18.8398C258.527 18.9214 258.255 18.9264 257.999 18.8541C257.742 18.7819 257.514 18.6355 257.341 18.4336C257.168 18.2317 257.059 17.9833 257.028 17.7198C256.997 17.4563 257.045 17.1896 257.166 16.9533C257.287 16.717 257.476 16.5218 257.709 16.3923C257.941 16.2629 258.207 16.205 258.472 16.226C258.738 16.247 258.991 16.3459 259.2 16.5103C259.409 16.6746 259.564 16.897 259.646 17.1494C259.701 17.317 259.722 17.4938 259.708 17.6695C259.694 17.8452 259.645 18.0164 259.565 18.1734C259.484 18.3304 259.374 18.47 259.239 18.5844C259.104 18.6987 258.948 18.7855 258.78 18.8398Z" fill="#455A64"/>
<path d="M111.625 17.6994C111.41 19.7534 110.626 21.7075 109.361 23.3436C108.096 24.9797 106.4 26.2334 104.461 26.9648C102.523 27.6962 100.418 27.8766 98.3831 27.4858C96.3477 27.095 94.4614 26.1484 92.9346 24.7516L87.3374 25.57L90.1382 20.7493C89.4977 19.1807 89.2245 17.4873 89.3392 15.7978C89.4539 14.1082 89.9536 12.4669 90.8002 10.9986C91.6469 9.5302 92.8184 8.27341 94.2255 7.32363C95.6327 6.37385 97.2387 5.75608 98.9214 5.51723C100.604 5.27838 102.319 5.42474 103.937 5.9452C105.554 6.46565 107.031 7.34651 108.256 8.52086C109.48 9.69521 110.42 11.1322 111.004 12.7226C111.588 14.313 111.8 16.015 111.625 17.6994Z" fill="white"/>
<path d="M111.625 17.6994C111.414 19.7524 110.638 21.7072 109.381 23.3474C108.766 24.177 108.026 24.9058 107.186 25.5074C106.364 26.1315 105.457 26.636 104.493 27.0055C103.528 27.3841 102.514 27.625 101.481 27.721C100.965 27.7671 100.446 27.7776 99.9279 27.7523C99.4082 27.739 98.8905 27.6852 98.3793 27.5913C96.3165 27.2132 94.4001 26.2701 92.845 24.8679L92.9752 24.9081L87.387 25.7623L86.9785 25.8249L87.185 25.4671L89.9679 20.6375V20.8298C89.3112 19.2322 89.032 17.5056 89.1519 15.7834C89.2717 14.0613 89.7874 12.3896 90.6591 10.8976C91.5297 9.41035 92.7265 8.13843 94.1601 7.17698C95.5914 6.2283 97.2197 5.61478 98.9228 5.38244C100.626 5.15009 102.36 5.30495 103.994 5.83541C105.612 6.38357 107.085 7.28503 108.308 8.47384C109.528 9.65968 110.46 11.1067 111.035 12.7052C111.61 14.3037 111.811 16.0117 111.625 17.6994ZM111.625 17.6994C111.806 16.02 111.598 14.3215 111.016 12.735C110.434 11.1486 109.493 9.71667 108.267 8.54981C107.042 7.38295 105.563 6.51236 103.946 6.00528C102.329 5.49819 100.616 5.36816 98.9404 5.62523C97.2815 5.86985 95.7013 6.49104 94.3217 7.44082C92.954 8.39807 91.8114 9.64013 90.9733 11.081C90.1481 12.525 89.6616 14.1364 89.5504 15.7944C89.4411 17.4636 89.7112 19.1358 90.3404 20.6867L90.3808 20.785L90.3269 20.8789L87.5082 25.6907L87.3107 25.3956L92.9123 24.613H92.9886L93.0425 24.6622C94.5399 26.0507 96.3955 26.9968 98.4018 27.3945C98.9017 27.496 99.4091 27.5573 99.9189 27.5779C100.428 27.6137 100.94 27.6137 101.449 27.5779C102.471 27.4958 103.477 27.2747 104.439 26.9205C105.403 26.5709 106.31 26.0828 107.132 25.4716C107.969 24.8749 108.71 24.1557 109.331 23.3385C110.604 21.7062 111.398 19.7542 111.625 17.6994Z" fill="#263238"/>
<path d="M95.0306 21.7375C95.022 21.5895 95.044 21.4413 95.0953 21.302C95.1466 21.1628 95.2261 21.0356 95.3288 20.9282C95.4314 20.8209 95.5552 20.7357 95.6923 20.678C95.8294 20.6203 95.977 20.5913 96.1258 20.5927C96.4306 20.5927 96.7228 20.7134 96.9383 20.928C97.1538 21.1427 97.2749 21.4339 97.2749 21.7375C97.2749 22.0412 97.1538 22.3324 96.9383 22.5471C96.7228 22.7617 96.4306 22.8824 96.1258 22.8824C95.977 22.8838 95.8294 22.8548 95.6923 22.7971C95.5552 22.7394 95.4314 22.6542 95.3288 22.5469C95.2261 22.4395 95.1466 22.3123 95.0953 22.1731C95.044 22.0338 95.022 21.8856 95.0306 21.7375ZM95.4795 19.0946L95.2192 10.2224H97.0146L96.7542 19.0946H95.4795Z" fill="#B3EDD8"/>
<path d="M99.2997 21.7375C99.2911 21.5899 99.313 21.442 99.364 21.3031C99.415 21.1642 99.494 21.0372 99.5963 20.9299C99.6985 20.8226 99.8217 20.7373 99.9582 20.6793C100.095 20.6214 100.242 20.5919 100.39 20.5927C100.695 20.5927 100.987 20.7134 101.203 20.928C101.418 21.1427 101.539 21.4339 101.539 21.7375C101.539 22.0412 101.418 22.3324 101.203 22.5471C100.987 22.7617 100.695 22.8824 100.39 22.8824C100.242 22.8832 100.095 22.8537 99.9582 22.7958C99.8217 22.7378 99.6985 22.6525 99.5963 22.5452C99.494 22.4379 99.415 22.3109 99.364 22.172C99.313 22.0331 99.2911 21.8852 99.2997 21.7375ZM99.7485 19.0946L99.5016 10.2224H101.297L101.037 19.0946H99.7485Z" fill="#B3EDD8"/>
<path d="M103.563 21.7375C103.555 21.5895 103.577 21.4413 103.628 21.302C103.679 21.1628 103.759 21.0356 103.861 20.9282C103.964 20.8209 104.088 20.7357 104.225 20.678C104.362 20.6203 104.51 20.5913 104.659 20.5927C104.963 20.5927 105.256 20.7134 105.471 20.928C105.687 21.1427 105.808 21.4339 105.808 21.7375C105.808 22.0412 105.687 22.3324 105.471 22.5471C105.256 22.7617 104.963 22.8824 104.659 22.8824C104.51 22.8838 104.362 22.8548 104.225 22.7971C104.088 22.7394 103.964 22.6542 103.861 22.5469C103.759 22.4395 103.679 22.3123 103.628 22.1731C103.577 22.0338 103.555 21.8856 103.563 21.7375ZM104.012 19.0946L103.752 10.2224H105.547L105.291 19.0946H104.012Z" fill="#B3EDD8"/>
</svg>
