<svg width="23" height="23" viewBox="0 0 23 23" fill="none" xmlns="http://www.w3.org/2000/svg">
<path d="M9.63734 3.03512L9.63772 3.03481C10.6691 2.2065 12.3259 2.21118 13.3731 3.04528C13.3732 3.04538 13.3733 3.04549 13.3734 3.04559L19.6462 8.06377C19.6468 8.06424 19.6474 8.06471 19.6479 8.06518C20.006 8.35772 20.3171 8.81658 20.5181 9.34251C20.7189 9.86807 20.7934 10.4179 20.7238 10.8747L19.5174 18.094C19.5173 18.0945 19.5172 18.095 19.5172 18.0955C19.2796 19.4588 17.952 20.5833 16.5792 20.5833H6.42088C5.02765 20.5833 3.73008 19.4863 3.4926 18.1056C3.49254 18.1053 3.49248 18.1049 3.49243 18.1046L2.28529 10.8809L2.2851 10.8798C2.20712 10.4197 2.27699 9.86875 2.47733 9.34339C2.67765 8.81809 2.99265 8.35967 3.35939 8.06707L3.36026 8.06637L9.63734 3.03512ZM11.5 18.4687C12.1691 18.4687 12.7188 17.919 12.7188 17.25V14.375C12.7188 13.7059 12.1691 13.1562 11.5 13.1562C10.831 13.1562 10.2813 13.7059 10.2813 14.375V17.25C10.2813 17.919 10.831 18.4687 11.5 18.4687Z" fill="white" stroke="white"/>
</svg>
