<svg width="20" height="20" viewBox="0 0 20 20" fill="none" xmlns="http://www.w3.org/2000/svg">
<path d="M14.6002 8.2C14.4931 8.2 14.4002 8.10709 14.4002 8V6.4C14.4002 5.12198 14.2245 3.94764 13.5152 3.09856C12.7922 2.23307 11.5992 1.8 9.8002 1.8C8.00117 1.8 6.80822 2.23307 6.08522 3.09856C5.37591 3.94764 5.2002 5.12198 5.2002 6.4V8C5.2002 8.10709 5.10728 8.2 5.0002 8.2C4.89311 8.2 4.8002 8.10709 4.8002 8V6.4C4.8002 5.25698 4.94202 4.01391 5.61245 3.06001C6.26248 2.13514 7.47112 1.4 9.8002 1.4C12.1293 1.4 13.3379 2.13514 13.9879 3.06001C14.6584 4.01391 14.8002 5.25698 14.8002 6.4V8C14.8002 8.10709 14.7073 8.2 14.6002 8.2Z" stroke="#03C27C" stroke-width="0.8"/>
<path d="M13.8002 17.8H5.8002C4.04997 17.8 3.04736 17.5275 2.46004 16.9402C1.87271 16.3528 1.6002 15.3502 1.6002 13.6V12C1.6002 10.2498 1.87271 9.24716 2.46004 8.65984C3.04736 8.07251 4.04997 7.79999 5.8002 7.79999H13.8002C15.5504 7.79999 16.553 8.07251 17.1404 8.65984C17.7277 9.24716 18.0002 10.2498 18.0002 12V13.6C18.0002 15.3502 17.7277 16.3528 17.1404 16.9402C16.553 17.5275 15.5504 17.8 13.8002 17.8ZM5.8002 8.19999C5.07714 8.19999 4.47293 8.23378 3.97808 8.33824C3.47877 8.44364 3.06201 8.62685 2.74307 8.94644C2.42416 9.26599 2.2419 9.68297 2.13723 10.1817C2.03348 10.676 2.0002 11.2791 2.0002 12V13.6C2.0002 14.3209 2.03348 14.924 2.13723 15.4183C2.2419 15.917 2.42416 16.334 2.74307 16.6535C3.06201 16.9731 3.47877 17.1563 3.97808 17.2617C4.47293 17.3662 5.07714 17.4 5.8002 17.4H13.8002C14.5233 17.4 15.1275 17.3662 15.6223 17.2617C16.1216 17.1563 16.5384 16.9731 16.8573 16.6535C17.1762 16.334 17.3585 15.917 17.4632 15.4183C17.5669 14.924 17.6002 14.3209 17.6002 13.6V12C17.6002 11.2791 17.5669 10.676 17.4632 10.1817C17.3585 9.68297 17.1762 9.26599 16.8573 8.94644C16.5384 8.62685 16.1216 8.44364 15.6223 8.33824C15.1275 8.23378 14.5233 8.19999 13.8002 8.19999H5.8002Z" fill="#03C27C" stroke="#03C27C" stroke-width="0.8"/>
<path d="M6.45004 13.1668L6.45009 13.1666L6.43978 13.1627C6.39776 13.1465 6.36138 13.1244 6.31248 13.0819C6.2391 12.9996 6.20019 12.9004 6.20019 12.8C6.20019 12.7567 6.21047 12.7049 6.23341 12.6498L6.23355 12.6499L6.23752 12.6396C6.25334 12.5985 6.27486 12.5627 6.31559 12.5154C6.36294 12.4747 6.39866 12.4531 6.43978 12.4373L6.44931 12.4337L6.45865 12.4295C6.58746 12.3723 6.76663 12.4025 6.87829 12.508C6.91738 12.5531 6.94626 12.6001 6.96697 12.6498L7.32454 12.5009L6.96697 12.6498C6.98991 12.7049 7.00019 12.7567 7.00019 12.8C7.00019 12.8958 6.95895 13.0031 6.88515 13.085C6.8033 13.1588 6.69596 13.2 6.60019 13.2C6.55685 13.2 6.50509 13.1897 6.45004 13.1668Z" fill="#03C27C" stroke="#03C27C" stroke-width="0.8"/>
<path d="M9.8002 13.6C9.5922 13.6 9.38421 13.512 9.23221 13.368C9.08821 13.216 9.0002 13.016 9.0002 12.8C9.0002 12.696 9.01619 12.592 9.06419 12.496C9.10419 12.4 9.16021 12.312 9.23221 12.232C9.41621 12.048 9.6962 11.96 9.9522 12.016C10.0082 12.024 10.0562 12.04 10.1042 12.064C10.1522 12.08 10.2002 12.1041 10.2482 12.1361C10.2882 12.1601 10.3282 12.2 10.3682 12.232C10.4402 12.312 10.4962 12.4 10.5362 12.496C10.5762 12.592 10.6002 12.696 10.6002 12.8C10.6002 13.016 10.5122 13.216 10.3682 13.368C10.3282 13.4 10.2882 13.432 10.2482 13.464C10.2002 13.496 10.1522 13.5201 10.1042 13.5361C10.0562 13.5601 10.0082 13.576 9.9522 13.584C9.9042 13.592 9.8482 13.6 9.8002 13.6Z" fill="#03C27C"/>
<path d="M13.0002 13.6C12.7842 13.6 12.5842 13.512 12.4322 13.368C12.3602 13.288 12.3042 13.2 12.2642 13.104C12.2242 13.008 12.2002 12.904 12.2002 12.8C12.2002 12.592 12.2882 12.384 12.4322 12.232C12.4722 12.2 12.5122 12.1681 12.5522 12.1361C12.6002 12.1041 12.6482 12.08 12.6962 12.064C12.7442 12.04 12.7922 12.024 12.8402 12.016C13.1042 11.96 13.3762 12.048 13.5682 12.232C13.7122 12.384 13.8002 12.584 13.8002 12.8C13.8002 12.904 13.7762 13.008 13.7362 13.104C13.6962 13.208 13.6402 13.288 13.5682 13.368C13.4162 13.512 13.2082 13.6 13.0002 13.6Z" fill="#03C27C"/>
</svg>
