<svg width="110" height="140" viewBox="0 0 110 140" fill="none" xmlns="http://www.w3.org/2000/svg">
<path d="M106.346 74.5828C113.82 54.9576 109.668 31.9155 93.8561 16.1038C72.3844 -5.36793 37.5773 -5.36793 16.0989 16.1038C10.2476 21.9384 5.7926 29.0215 3.06763 36.8224C3.1708 36.8305 3.26996 36.8492 3.37448 36.8492C3.61677 36.849 3.85853 36.8266 4.09673 36.7822C9.064 35.8684 16.06 35.5052 16.3548 35.4905C17.0931 35.4423 17.8917 35.4168 18.685 35.4168C21.1375 35.4222 23.5846 35.6464 25.9972 36.0868C32.0271 26.4256 42.7469 19.9937 54.9768 19.9937C73.8369 19.9937 89.1246 35.2828 89.1246 54.1416C89.1246 54.4725 89.1086 54.7995 89.0992 55.1278C99.3352 58.9279 103.946 63.3686 105.66 65.4456C106.16 66.0514 106.531 66.7531 106.75 67.5076C106.969 68.262 107.031 69.0532 106.933 69.8326L106.346 74.5828Z" fill="#E4342A"/>
<path d="M104.934 77.977C104.17 77.429 102.972 76.905 101.063 76.5499L103.086 76.3087L103.934 69.4642C103.982 69.0933 103.952 68.7166 103.848 68.3575C103.744 67.9984 103.567 67.6645 103.329 67.3765C101.855 65.5823 97.848 61.7272 88.8689 58.2647C87.947 57.9096 86.9795 57.5585 85.9491 57.2141C83.0932 56.269 80.1906 55.4715 77.2527 54.825C77.2527 54.825 67.4963 52.6167 54.181 55.3784C54.181 55.3784 32.8916 60.8401 24.0571 56.8524C24.0571 56.8524 37.619 57.9538 53.8179 52.7413L37.619 43.1739C37.619 43.1739 33.5388 40.8879 27.5276 39.493C26.5428 39.2639 25.507 39.0602 24.427 38.894C21.8094 38.4793 19.1545 38.3504 16.5091 38.5095C16.5091 38.5095 9.47287 38.8659 4.64629 39.7543H4.62217C3.03162 40.0424 1.72783 41.1881 1.37006 42.7639C-1.5016 55.4012 0.172247 68.6463 6.09748 80.1719C6.62453 81.1929 7.1842 82.2006 7.77646 83.1949C10.0544 86.9964 48.2932 136.499 48.2932 136.499C49.074 137.533 50.0841 138.372 51.244 138.949C52.4039 139.527 53.6819 139.827 54.9776 139.827C56.2734 139.827 57.5514 139.527 58.7113 138.949C59.8712 138.372 60.8813 137.533 61.6621 136.499C61.6621 136.499 99.8687 87.0366 102.139 83.2578H88.751C86.3436 85.848 83.0635 87.4563 79.5416 87.7734C76.0198 88.0906 72.5051 87.0941 69.6738 84.9757C63.7327 87.8153 57.0962 88.8727 50.5669 88.0202C44.0375 87.1677 37.895 84.4417 32.8822 80.1719H65.201C63.2165 72.2245 68.0323 68.6066 68.0323 68.6066C67.2042 70.3458 66.833 72.2675 66.954 74.1901C67.075 76.1126 67.6841 77.9726 68.7237 79.5944C70.3027 82.0221 72.7522 83.7522 75.5681 84.4285C78.384 85.1049 81.3521 84.676 83.8613 83.2302C86.3706 81.7844 88.2302 79.4316 89.0572 76.6562C89.8843 73.8808 89.616 70.894 88.3074 68.3105C88.3201 68.3229 88.3318 68.3363 88.3423 68.3506C88.7684 68.8411 92.7642 73.6556 91.2192 80.2349H106.217C106.217 80.2349 106.449 79.0664 104.934 77.977Z" fill="#03C27C"/>
<path d="M97.3005 89.9202C96.9521 89.9658 96.6037 90.0059 96.254 90.0435L95.2075 90.1587C94.5107 90.2293 93.813 90.2954 93.1144 90.357L91.0214 90.5312C90.3246 90.5821 89.6265 90.6398 88.9297 90.684L89.4509 90.4776C88.8168 91.1193 88.1457 91.7233 87.441 92.2866C86.7221 92.8548 85.9605 93.3669 85.163 93.8182C83.5279 94.7507 81.7212 95.3433 79.8514 95.5601C77.9682 95.7534 76.0654 95.5809 74.2476 95.0523C72.4736 94.5338 70.7725 93.7922 69.1852 92.8454L70.3912 92.9365C67.1359 94.3479 63.7171 95.3472 60.2141 95.9112C58.4555 96.1861 56.6806 96.3441 54.9011 96.3842C53.1189 96.4169 51.3366 96.3273 49.5667 96.1162C47.7973 95.8942 46.0459 95.5463 44.326 95.0751C42.6099 94.6005 40.9305 94.0017 39.3012 93.2835C37.6772 92.5645 36.1068 91.7302 34.6019 90.7872C33.1033 89.8436 31.6707 88.7991 30.314 87.661L31.0067 87.9022C29.2822 87.8432 27.5576 87.7883 25.8331 87.7133C24.9702 87.6802 24.1081 87.6431 23.2469 87.602L20.6595 87.4761C18.9345 87.3868 17.2099 87.2876 15.4858 87.1786C13.7617 87.0696 12.0399 86.9365 10.3202 86.7793C12.0452 86.6301 13.7698 86.5015 15.4939 86.3934C17.2184 86.2795 18.943 86.1844 20.6675 86.0959L23.255 85.97C24.117 85.928 24.9791 85.8909 25.8411 85.8587C27.5657 85.7837 29.2902 85.7247 31.0148 85.6698L31.3685 85.6564L31.7062 85.911C33.0361 86.9115 34.429 87.8255 35.8762 88.6472C37.3152 89.4682 38.8083 90.1908 40.345 90.8099C44.949 92.6657 49.8821 93.5665 54.8448 93.4577C56.4963 93.4282 58.144 93.2899 59.7773 93.0437C63.0611 92.5487 66.2772 91.6778 69.3621 90.4481L70.012 90.1922L70.5734 90.5393C71.9764 91.4076 73.4383 92.158 74.9672 92.6537C76.475 93.1669 78.0662 93.3905 79.6571 93.313C80.4516 93.2701 81.2396 93.1458 82.0087 92.9418C82.7881 92.733 83.5469 92.454 84.276 92.1084C85.0209 91.7551 85.7377 91.3452 86.4199 90.8823C87.1139 90.4149 87.7801 89.9075 88.4151 89.3628L88.6831 89.1403L88.9444 89.1564C89.6412 89.2006 90.3393 89.2582 91.0361 89.3078L93.1292 89.482C93.8277 89.5437 94.5254 89.6102 95.2222 89.6817L96.2687 89.7969C96.6037 89.8344 96.9521 89.8746 97.3005 89.9202Z" fill="#00B265"/>
<path d="M49.9443 52.3661L37.2681 44.6211C37.2681 44.6211 31.6858 41.0929 24.1605 40.2112C23.1807 40.0913 22.1925 40.3559 21.4036 40.9493C20.6147 41.5428 20.0866 42.419 19.9302 43.3937C19.9302 43.4165 19.9235 43.4419 19.9195 43.466C19.9195 43.466 18.9293 47.0089 23.8992 55.4347C23.8992 55.4374 37.1288 56.5107 49.9443 52.3661Z" fill="#00B265"/>
<path d="M19.5975 40.1871C19.3866 40.3335 19.2022 40.5148 19.0521 40.7231C18.9009 40.9286 18.7711 41.149 18.6649 41.381C18.4561 41.845 18.3123 42.3356 18.2374 42.8389C18.1593 43.3424 18.1252 43.8517 18.1356 44.3611C18.1432 44.8716 18.1803 45.3811 18.2468 45.8873V45.8994C18.3266 46.7363 18.4658 47.5665 18.6635 48.3837C18.8552 49.2064 19.0896 50.0184 19.3456 50.8251C19.6015 51.6318 19.8976 52.4331 20.2139 53.2156C20.2876 53.4139 20.372 53.6082 20.4551 53.8039L20.7003 54.3921L21.2162 55.5592C21.0071 55.1894 20.7941 54.8196 20.5944 54.443C20.3948 54.0665 20.2005 53.686 20.0276 53.2947L19.7596 52.7118C19.6699 52.5175 19.5948 52.3178 19.5117 52.1209C19.3442 51.7283 19.1982 51.3263 19.0521 50.9243C18.7662 50.1171 18.5229 49.2954 18.3232 48.4627C18.2227 48.046 18.1369 47.6253 18.0686 47.2018C17.9935 46.7757 17.9416 46.3459 17.9132 45.9141V45.9262C17.7826 44.8846 17.8147 43.8291 18.0083 42.7973C18.113 42.2822 18.2937 41.7855 18.5443 41.3234C18.6695 41.0926 18.8205 40.8768 18.9945 40.6802C19.1642 40.4809 19.3685 40.3138 19.5975 40.1871Z" fill="#00B265"/>
<path d="M32.7138 77.8042C37.665 77.563 42.6162 77.4357 47.5674 77.3499C50.0423 77.2963 52.5253 77.2843 54.9935 77.2521L58.7066 77.228H60.5638H61.4924H61.5487H61.5567C61.5612 77.2236 61.5645 77.218 61.5661 77.2119L61.5433 76.8528C61.5433 76.692 61.5286 76.5299 61.5272 76.3704C61.5259 76.2109 61.5272 76.0488 61.5272 75.8893C61.5272 75.7299 61.5272 75.5691 61.5393 75.4096C61.5643 74.7709 61.6215 74.1349 61.7108 73.5015C61.8046 72.8691 61.9319 72.2433 62.086 71.6256C62.1744 71.3187 62.2495 71.0078 62.354 70.7037C62.4049 70.5522 62.4505 70.3981 62.5041 70.2481L62.6743 69.7978C62.7279 69.6464 62.7908 69.499 62.8565 69.353L63.0468 68.9108L63.2598 68.4793C63.3295 68.3346 63.4005 68.1912 63.4823 68.0518L63.7168 67.6324C63.7945 67.4917 63.8869 67.3644 63.97 67.2224C64.0531 67.0804 64.1389 66.9544 64.2313 66.8204L64.5127 66.4278L64.6467 66.2322C64.6963 66.1678 64.7485 66.1075 64.7981 66.0446L65.1023 65.6707C65.1988 65.5367 65.3153 65.4295 65.4212 65.3103L65.7482 64.9565C65.98 64.7341 66.2118 64.5116 66.449 64.2972C66.6861 64.0828 66.9381 63.8832 67.194 63.6902C68.211 62.9119 69.3238 62.2674 70.5051 61.7727C71.6738 61.3038 72.8855 60.9502 74.123 60.7168C74.4325 60.6646 74.7407 60.6029 75.0502 60.5587L75.9815 60.4462C76.6037 60.3691 77.2311 60.3427 77.8575 60.3671C78.4831 60.3902 79.1059 60.4628 79.72 60.5842C80.3302 60.7075 80.9283 60.8841 81.5076 61.1121C80.3227 60.7868 79.0944 60.6481 77.8669 60.7008C77.2567 60.7261 76.649 60.7947 76.0485 60.9058L75.144 61.0746C74.8452 61.1376 74.5491 61.218 74.2516 61.2877C73.0697 61.5751 71.9182 61.9758 70.8133 62.4843C69.7227 62.9939 68.6982 63.6342 67.7621 64.391C65.9131 65.9179 64.512 67.9168 63.7074 70.1757C63.5033 70.7376 63.3284 71.3096 63.1834 71.8895C63.0495 72.4711 62.9342 73.0607 62.8525 73.6543C62.7707 74.2479 62.7185 74.8455 62.6997 75.4431C62.6997 75.5932 62.6903 75.7419 62.6903 75.892C62.6903 76.0421 62.6903 76.1895 62.6903 76.3382C62.6903 76.487 62.7011 76.6357 62.7064 76.7831L62.7212 77.0029L62.7292 77.1235C62.7343 77.199 62.7321 77.2748 62.7225 77.3499C62.6833 77.6545 62.5283 77.9324 62.2897 78.1258C62.1703 78.2214 62.0339 78.2937 61.8877 78.3388C61.8149 78.36 61.7405 78.3753 61.6653 78.3844C61.6277 78.3844 61.5902 78.3844 61.554 78.3911H61.4857L60.5705 78.3884H58.7133L55.0002 78.3643C52.5253 78.3321 50.049 78.3201 47.5741 78.2665C42.6149 78.1727 37.665 78.0454 32.7138 77.8042Z" fill="#00B265"/>
<path d="M85.9105 68.7071C86.1373 69.0422 86.3321 69.398 86.492 69.7697C86.6565 70.1426 86.7953 70.5262 86.9074 70.918C87.1355 71.7133 87.2536 72.5361 87.2585 73.3635C87.2564 73.7822 87.2269 74.2002 87.1701 74.615C87.1095 75.0317 87.02 75.4436 86.9021 75.8478C86.7803 76.2529 86.6275 76.648 86.4451 77.0296C86.3594 77.2226 86.2576 77.4075 86.1571 77.5938C86.0566 77.78 85.9373 77.9542 85.8288 78.1298L85.8556 78.0829C85.8154 78.1566 85.7872 78.2035 85.7537 78.2584C85.7202 78.3133 85.6881 78.3616 85.6546 78.4125C85.5876 78.5143 85.5206 78.6122 85.4469 78.7073C85.3048 78.8962 85.1534 79.0785 84.998 79.2553C84.0582 80.3023 82.8841 81.1122 81.5717 81.6191C80.7137 81.9525 79.8101 82.154 78.8917 82.2167C77.9945 82.2817 77.0926 82.2222 76.2118 82.0398C77.0818 81.9713 77.9451 81.8351 78.7939 81.6325C79.2096 81.5327 79.619 81.4083 80.02 81.2599C80.4168 81.1177 80.8044 80.9507 81.1804 80.7601C82.2971 80.2018 83.2946 79.4318 84.1176 78.4929C84.2516 78.3375 84.3856 78.1793 84.5008 78.0159C84.5598 77.9328 84.6201 77.8524 84.675 77.7693L84.7568 77.6474C84.7809 77.6085 84.809 77.5603 84.8224 77.5375L84.8425 77.504L84.8506 77.4919C85.0556 77.181 85.2439 76.8594 85.4147 76.5285C85.5837 76.197 85.7336 75.8561 85.8636 75.5074C85.9892 75.1562 86.0952 74.7984 86.1812 74.4355C86.2641 74.068 86.3267 73.6963 86.3688 73.3219C86.4478 72.5584 86.4478 71.7888 86.3688 71.0252C86.2919 70.2394 86.1384 69.463 85.9105 68.7071Z" fill="#00B265"/>
<path d="M24.057 56.8577C24.2896 56.9709 24.53 57.0672 24.7765 57.1458C25.0204 57.2289 25.2683 57.2999 25.5175 57.3655C26.016 57.4995 26.5212 57.6027 27.029 57.6898C28.0442 57.8616 29.0682 57.9762 30.0962 58.0328C32.1501 58.1421 34.2088 58.1215 36.2601 57.9712C38.3147 57.822 40.3613 57.5933 42.3998 57.2851C44.4379 56.981 46.4693 56.6259 48.4887 56.1984C48.9938 56.0979 49.4977 55.9854 50.0028 55.8795C50.508 55.7736 51.0092 55.6598 51.509 55.5445L52.2607 55.3717L52.6332 55.2859L53.0151 55.1854C53.5256 55.0594 54.0348 54.9402 54.548 54.8383C55.5718 54.632 56.5991 54.4533 57.63 54.3024C58.6608 54.1514 59.6962 54.0303 60.736 53.9392C64.8832 53.5681 69.0773 53.6176 73.1803 54.2461C69.056 54.0168 64.9193 54.159 60.8204 54.6709C58.777 54.9388 56.7416 55.2564 54.7383 55.7093C54.2385 55.8246 53.7373 55.9371 53.2442 56.0658L52.8757 56.1649L52.4912 56.256L51.726 56.4316C51.2182 56.5535 50.709 56.6741 50.2025 56.7827C49.696 56.8912 49.1881 57.0104 48.6776 57.1136C46.6395 57.5263 44.588 57.8828 42.5245 58.1601C41.4909 58.295 40.4555 58.4089 39.4184 58.5018C39.1598 58.5286 38.8998 58.5487 38.6399 58.5675L37.8614 58.6238C37.3405 58.6533 36.8197 58.6778 36.2989 58.6975C35.7777 58.7082 35.2578 58.731 34.7352 58.7269C34.4752 58.7269 34.2139 58.7269 33.954 58.7269L33.1715 58.7082C32.129 58.6707 31.0878 58.605 30.0507 58.4858C29.0131 58.3678 27.9838 58.1857 26.9687 57.9404C25.9678 57.6871 24.9574 57.3789 24.057 56.8577Z" fill="#00A860"/>
<path d="M17.5867 30.6478C17.5867 30.6478 18.1388 29.7165 19.247 28.2453" stroke="white" stroke-width="5.67" stroke-miterlimit="10"/>
<path d="M22.9902 23.8676C30.9925 15.5504 47.9137 3.6702 74.023 13.2818C74.023 13.2818 96.7704 23.1869 99.5977 48.5351" stroke="white" stroke-width="5.67" stroke-miterlimit="10" stroke-dasharray="43.02 43.02"/>
<path d="M99.8314 51.4026C99.8788 52.3567 99.8971 53.3304 99.8863 54.3237" stroke="white" stroke-width="5.67" stroke-miterlimit="10"/>
<path d="M102.913 71.3402L103.047 70.307C103.059 70.2092 103.076 70.1114 103.092 70.0149C103.183 69.5421 103.159 69.0545 103.022 68.593C102.886 68.1314 102.64 67.7092 102.307 67.3618C102.014 67.0067 100.663 65.7042 100.663 65.7042C100.663 65.7042 99.0363 68.7554 102.913 71.3402Z" fill="#00B265"/>
<path d="M99.4864 65.9374C99.3199 66.4595 99.2482 67.0073 99.2747 67.5547C99.3016 68.0891 99.4303 68.6135 99.6539 69.0997C99.8823 69.5884 100.183 70.0401 100.545 70.4397C100.916 70.8482 101.316 71.2289 101.743 71.5786C101.231 71.3373 100.76 71.0172 100.348 70.6299L100.194 70.4825C100.143 70.4316 100.097 70.3767 100.049 70.3244C99.95 70.2199 99.8656 70.1047 99.7812 69.9921C99.6112 69.7586 99.4636 69.5096 99.3403 69.2484C99.221 68.9835 99.1311 68.7062 99.0723 68.4217C99.0159 68.1377 98.9935 67.848 99.0053 67.5587C99.0208 66.9855 99.1867 66.4263 99.4864 65.9374Z" fill="#00B265"/>
<path fill-rule="evenodd" clip-rule="evenodd" d="M86.0375 54.9831C85.9548 54.9319 85.8684 54.8871 85.7789 54.8491C85.7634 54.8421 85.7472 54.8367 85.7307 54.833L85.803 54.8718L86.0389 55.0058C86.0389 55.0058 86.0375 54.9884 86.0375 54.9831ZM86.1715 55.0661L86.0857 55.0125C86.0857 55.0125 86.0857 55.0206 86.0857 55.0259L86.138 55.0568C86.2586 55.1291 86.3752 55.2028 86.4891 55.2779C86.4315 55.2403 86.3095 55.1546 86.1728 55.0728L86.1715 55.0661Z" fill="#09A9DB"/>
<path fill-rule="evenodd" clip-rule="evenodd" d="M86.0843 55.0259C86.0843 55.0259 86.0843 55.0165 86.0843 55.0125L86.0347 54.983C86.0347 54.983 86.0347 54.9938 86.0347 54.9991L85.7989 54.8651L85.9436 55.0112L86.1326 55.0554L86.0843 55.0259Z" fill="#09A9DB"/>
<path fill-rule="evenodd" clip-rule="evenodd" d="M80.7759 46.702C80.154 46.613 79.5231 46.6076 78.8999 46.686C78.609 46.0297 78.1841 45.4416 77.6523 44.9594C77.1206 44.4772 76.4938 44.1115 75.8123 43.886C75.1309 43.6605 74.4097 43.5801 73.6953 43.6499C72.9809 43.7197 72.289 43.9382 71.664 44.2914C71.4827 43.8668 71.2452 43.4684 70.9579 43.1069C71.5256 42.3794 71.9427 41.5461 72.1849 40.6557C72.4271 39.7652 72.4895 38.8355 72.3685 37.9206C72.2476 37.0058 71.9456 36.1242 71.4802 35.3274C71.0148 34.5305 70.3954 33.8343 69.6581 33.2794C68.9208 32.7245 68.0803 32.322 67.1858 32.0954C66.2913 31.8688 65.3606 31.8227 64.448 31.9597C63.5354 32.0966 62.6593 32.414 61.8707 32.8932C61.0821 33.3724 60.3968 34.0039 59.8549 34.7508C58.7245 34.2298 57.444 34.1346 56.249 34.4828C55.5748 34.6811 54.9479 35.0143 54.4065 35.4623C53.6362 34.7292 52.6562 34.2547 51.6033 34.105C51.354 34.0679 51.1023 34.05 50.8503 34.0514C50.8958 33.8597 50.932 33.6654 50.9615 33.4671C51.1058 32.4624 51.0283 31.4382 50.7344 30.4666C50.4405 29.495 49.9373 28.5996 49.2601 27.8434C48.583 27.0871 47.7485 26.4884 46.8151 26.0893C45.8818 25.6902 44.8724 25.5005 43.8578 25.5334C42.8433 25.5663 41.8483 25.821 40.9427 26.2797C40.0372 26.7385 39.2432 27.39 38.6165 28.1885C37.9898 28.987 37.5456 29.9131 37.3153 30.9017C37.0849 31.8903 37.0739 32.9174 37.283 33.9107C36.5137 34.0106 35.7769 34.2827 35.1273 34.7068C34.4777 35.1309 33.9321 35.696 33.5311 36.3601C33.1511 36.1017 32.7229 35.9226 32.272 35.8336C31.8212 35.7447 31.357 35.7476 30.9073 35.8423C30.4576 35.9371 30.0317 36.1216 29.655 36.3849C29.2784 36.6481 28.9587 36.9847 28.7153 37.3745L28.4607 37.5152L27.9247 37.8153C27.9247 37.8153 36.9628 40.1 41.3324 43.4231C41.6688 43.6791 42.0212 43.9149 42.3816 44.1387C44.677 45.5631 52.138 50.1471 55.6407 51.7618C55.6407 51.7618 73.0121 50.1846 86.5163 55.2953C86.5769 55.0572 86.6252 54.8161 86.661 54.573C86.9241 52.7489 86.4518 50.895 85.3482 49.4189C84.2446 47.9429 82.5999 46.9656 80.7759 46.702ZM86.1357 55.0568L85.9468 55.0125L85.8021 54.8665L85.7297 54.8276C85.7463 54.8313 85.7625 54.8367 85.778 54.8437C85.8674 54.8818 85.9539 54.9266 86.0366 54.9777L86.0862 55.0072L86.1719 55.0608C86.3059 55.1492 86.4399 55.235 86.4868 55.2725C86.3743 55.2068 86.2577 55.1291 86.1371 55.0568H86.1357Z" fill="#09A9DB"/>
<path fill-rule="evenodd" clip-rule="evenodd" d="M78.2575 37.8367C77.8604 37.7794 77.4552 37.8411 77.0931 38.014C76.7311 38.1869 76.4284 38.4633 76.2234 38.8082C76.0185 39.1532 75.9204 39.5511 75.9416 39.9518C75.9628 40.3525 76.1023 40.7379 76.3426 41.0593C76.5828 41.3806 76.9129 41.6235 77.2912 41.7573C77.6695 41.891 78.079 41.9096 78.4678 41.8107C78.8566 41.7117 79.2074 41.4997 79.4758 41.2014C79.7441 40.9031 79.918 40.5319 79.9753 40.1348C80.0136 39.8711 79.9996 39.6024 79.9339 39.3441C79.8683 39.0859 79.7524 38.8431 79.5928 38.6296C79.4333 38.4162 79.2332 38.2363 79.0041 38.1002C78.775 37.9642 78.5213 37.8746 78.2575 37.8367ZM79.241 39.3308C79.2154 39.5069 79.1382 39.6715 79.019 39.8038C78.8999 39.936 78.7443 40.03 78.5718 40.0739C78.3992 40.1177 78.2176 40.1094 78.0498 40.0501C77.882 39.9908 77.7355 39.8831 77.6289 39.7405C77.5223 39.598 77.4603 39.4271 77.4508 39.2493C77.4413 39.0716 77.4846 38.895 77.5754 38.7419C77.6662 38.5888 77.8003 38.466 77.9608 38.3891C78.1213 38.3122 78.301 38.2846 78.4773 38.3097C78.7137 38.3442 78.9267 38.4711 79.0697 38.6625C79.2126 38.854 79.2738 39.0943 79.2397 39.3308H79.241Z" fill="#09A9DB"/>
<path fill-rule="evenodd" clip-rule="evenodd" d="M74.3166 40.6963C74.1345 40.6701 73.9488 40.6985 73.7829 40.7778C73.617 40.8571 73.4783 40.9839 73.3844 41.142C73.2905 41.3002 73.2456 41.4826 73.2554 41.6663C73.2652 41.8499 73.3292 42.0265 73.4394 42.1738C73.5496 42.3211 73.7009 42.4324 73.8744 42.4936C74.0478 42.5549 74.2354 42.5633 74.4137 42.5179C74.5919 42.4725 74.7526 42.3752 74.8756 42.2385C74.9986 42.1017 75.0782 41.9316 75.1045 41.7495C75.1393 41.5054 75.0759 41.2575 74.9282 41.06C74.7805 40.8626 74.5606 40.7318 74.3166 40.6963ZM74.7681 41.381C74.7564 41.4618 74.7211 41.5373 74.6665 41.598C74.6119 41.6586 74.5405 41.7017 74.4614 41.7219C74.3824 41.742 74.2991 41.7382 74.2221 41.711C74.1452 41.6838 74.078 41.6344 74.0292 41.5691C73.9803 41.5037 73.9519 41.4253 73.9475 41.3438C73.9432 41.2623 73.9631 41.1814 74.0048 41.1112C74.0464 41.041 74.108 40.9848 74.1816 40.9496C74.2552 40.9144 74.3376 40.9018 74.4184 40.9134C74.5275 40.9284 74.6261 40.986 74.6927 41.0737C74.7593 41.1614 74.7884 41.2719 74.7735 41.381H74.7681Z" fill="#09A9DB"/>
<path fill-rule="evenodd" clip-rule="evenodd" d="M55.5135 28.1569C54.9695 28.0782 54.4144 28.1627 53.9184 28.3995C53.4223 28.6364 53.0077 29.015 52.7269 29.4876C52.4461 29.9601 52.3117 30.5053 52.3407 31.0542C52.3697 31.6031 52.5609 32.1311 52.89 32.5713C53.2191 33.0116 53.6714 33.3444 54.1897 33.5276C54.7079 33.7108 55.2689 33.7362 55.8015 33.6006C56.3342 33.465 56.8147 33.1744 57.1823 32.7657C57.5499 32.357 57.788 31.8485 57.8665 31.3044C57.9188 30.9433 57.8995 30.5753 57.8095 30.2216C57.7196 29.8679 57.5608 29.5354 57.3423 29.2431C57.1237 28.9507 56.8498 28.7044 56.536 28.518C56.2222 28.3316 55.8748 28.2089 55.5135 28.1569ZM56.8535 30.203C56.8192 30.4451 56.7137 30.6716 56.5505 30.8536C56.3873 31.0357 56.1736 31.1652 55.9367 31.2256C55.6998 31.2861 55.4502 31.2748 55.2197 31.1932C54.9892 31.1116 54.7881 30.9633 54.642 30.7672C54.4959 30.5712 54.4113 30.3361 54.399 30.0919C54.3867 29.8477 54.4473 29.6053 54.5729 29.3956C54.6986 29.1858 54.8838 29.0181 55.1049 28.9137C55.326 28.8094 55.5732 28.7731 55.815 28.8094C56.1379 28.8565 56.429 29.0296 56.6246 29.2907C56.8202 29.5519 56.9044 29.8799 56.8589 30.203H56.8535Z" fill="#09A9DB"/>
<path fill-rule="evenodd" clip-rule="evenodd" d="M32.7813 31.0096C32.524 30.9725 32.2614 31.0126 32.0269 31.1247C31.7923 31.2368 31.5962 31.416 31.4635 31.6395C31.3308 31.8631 31.2673 32.1209 31.2811 32.3806C31.2949 32.6402 31.3854 32.8899 31.5411 33.098C31.6968 33.3062 31.9108 33.4636 32.1559 33.5502C32.4011 33.6367 32.6664 33.6487 32.9183 33.5845C33.1702 33.5203 33.3975 33.3829 33.5713 33.1895C33.7451 32.9962 33.8577 32.7557 33.8948 32.4983C33.9194 32.3275 33.9102 32.1534 33.8676 31.9861C33.8249 31.8189 33.7498 31.6616 33.6464 31.5234C33.543 31.3851 33.4134 31.2686 33.2649 31.1805C33.1165 31.0923 32.9522 31.0343 32.7813 31.0096ZM33.4191 31.9784C33.4026 32.0927 33.3526 32.1996 33.2753 32.2855C33.1981 32.3714 33.0972 32.4324 32.9852 32.461C32.8733 32.4895 32.7555 32.4842 32.6465 32.4458C32.5376 32.4074 32.4425 32.3376 32.3733 32.2451C32.304 32.1527 32.2638 32.0418 32.2575 31.9264C32.2513 31.8111 32.2794 31.6965 32.3382 31.5971C32.3971 31.4978 32.4841 31.4181 32.5882 31.3681C32.6924 31.3182 32.809 31.3002 32.9233 31.3165C33.0768 31.3387 33.2151 31.4209 33.3081 31.545C33.401 31.6691 33.4409 31.8249 33.4191 31.9784Z" fill="#09A9DB"/>
<path fill-rule="evenodd" clip-rule="evenodd" d="M55.9526 25.1245C55.7705 25.0977 55.5846 25.1256 55.4184 25.2045C55.2522 25.2835 55.1131 25.41 55.0189 25.568C54.9246 25.726 54.8793 25.9085 54.8887 26.0922C54.8982 26.276 54.9619 26.4528 55.0719 26.6004C55.1819 26.7479 55.3332 26.8595 55.5066 26.921C55.68 26.9825 55.8678 26.9912 56.0461 26.9459C56.2245 26.9006 56.3854 26.8035 56.5085 26.6667C56.6317 26.53 56.7114 26.3598 56.7378 26.1777C56.7731 25.9339 56.7102 25.6861 56.563 25.4887C56.4158 25.2912 56.1962 25.1602 55.9526 25.1245ZM56.4015 25.8092C56.3898 25.8899 56.3544 25.9654 56.2998 26.0261C56.2452 26.0868 56.1739 26.1299 56.0948 26.15C56.0157 26.1701 55.9324 26.1664 55.8555 26.1392C55.7785 26.112 55.7114 26.0626 55.6625 25.9972C55.6136 25.9319 55.5852 25.8535 55.5809 25.772C55.5765 25.6905 55.5965 25.6095 55.6381 25.5394C55.6798 25.4692 55.7413 25.4129 55.8149 25.3777C55.8885 25.3425 55.971 25.3299 56.0517 25.3415C56.1056 25.3489 56.1574 25.3669 56.2042 25.3945C56.251 25.4221 56.2919 25.4587 56.3244 25.5022C56.357 25.5457 56.3805 25.5953 56.3938 25.648C56.407 25.7007 56.4096 25.7555 56.4015 25.8092Z" fill="#09A9DB"/>
<path fill-rule="evenodd" clip-rule="evenodd" d="M86.0389 54.9991L85.803 54.8651L85.7307 54.8263C85.7472 54.83 85.7634 54.8354 85.7789 54.8424C85.8684 54.8804 85.9548 54.9252 86.0375 54.9763C86.0375 54.9763 86.0389 54.9938 86.0389 54.9991Z" fill="#09A9DB"/>
<path fill-rule="evenodd" clip-rule="evenodd" d="M86.4879 55.2779C86.374 55.2028 86.2574 55.1291 86.1368 55.0568L86.0846 55.0259C86.0846 55.0259 86.0846 55.0166 86.0846 55.0125L86.1703 55.0661C86.3097 55.1546 86.4316 55.2403 86.4879 55.2779Z" fill="#09A9DB"/>
<path fill-rule="evenodd" clip-rule="evenodd" d="M40.1383 27.641C46.0061 26.368 47.1357 29.9055 48.1782 31.8753C49.1496 33.7178 50.7858 33.6065 50.2189 31.2576C49.9688 30.2264 49.4667 29.2734 48.7575 28.4841C48.0483 27.6949 47.1543 27.094 46.1556 26.7354C45.157 26.3767 44.0849 26.2716 43.0356 26.4295C41.9864 26.5873 40.9927 27.0031 40.1437 27.6396L40.1383 27.641Z" fill="white"/>
<path fill-rule="evenodd" clip-rule="evenodd" d="M61.6775 33.9589C67.4956 32.8306 68.5341 36.3467 69.515 38.3125C70.4329 40.1523 72.0502 40.0786 71.541 37.7483C71.3167 36.7253 70.8419 35.774 70.1592 34.9797C69.4766 34.1854 68.6074 33.573 67.6298 33.1974C66.6521 32.8218 65.5965 32.6947 64.5576 32.8276C63.5187 32.9605 62.5291 33.3493 61.6775 33.9589Z" fill="white"/>
<path fill-rule="evenodd" clip-rule="evenodd" d="M73.0885 44.81C76.1986 44.207 76.7533 46.0857 77.2773 47.1375C77.769 48.1211 78.6333 48.0755 78.3613 46.836C78.2415 46.2891 77.9878 45.7804 77.6229 45.3557C77.258 44.931 76.7933 44.6036 76.2707 44.4028C75.748 44.2019 75.1836 44.134 74.6282 44.2051C74.0728 44.2762 73.5438 44.484 73.0885 44.81Z" fill="white"/>
<path fill-rule="evenodd" clip-rule="evenodd" d="M80.8189 49.2454C84.6861 49.5415 84.7316 51.9414 85.0103 53.3524C85.2703 54.6722 86.3048 54.9054 86.3865 53.3524C86.4221 52.6679 86.2872 51.9854 85.9941 51.3658C85.7009 50.7463 85.2587 50.2093 84.7069 49.8028C84.1551 49.3962 83.511 49.133 82.8325 49.0367C82.1539 48.9403 81.462 49.0139 80.8189 49.2507V49.2454Z" fill="white"/>
<path fill-rule="evenodd" clip-rule="evenodd" d="M55.6891 35.8697C58.0702 34.6638 58.9519 36.0627 59.6179 36.793C60.241 37.4777 60.9324 37.2472 60.4219 36.2999C60.199 35.8845 59.8765 35.5309 59.4834 35.2709C59.0902 35.0108 58.6387 34.8523 58.1692 34.8097C57.6998 34.7671 57.2271 34.8416 56.7935 35.0266C56.36 35.2116 55.9791 35.5013 55.6851 35.8697H55.6891Z" fill="white"/>
<path fill-rule="evenodd" clip-rule="evenodd" d="M34.7956 35.5924C37.6899 34.1519 38.7512 35.8068 39.5552 36.6724C40.3082 37.4764 41.147 37.2084 40.5387 36.0815C40.1843 35.443 39.6365 34.9334 38.9741 34.6259C38.3117 34.3184 37.5689 34.2289 36.8524 34.3703C36.0441 34.5221 35.3154 34.955 34.7956 35.5924Z" fill="white"/>
<path fill-rule="evenodd" clip-rule="evenodd" d="M50.5205 34.9545C52.5211 34.6758 53.0665 35.7732 53.4014 36.3722C53.715 36.9336 54.2188 36.8854 54.0245 36.1658C53.9117 35.7619 53.6748 35.4036 53.3473 35.1415C53.0199 34.8794 52.6184 34.7268 52.1995 34.7052C51.6957 34.6744 51.0056 34.6677 50.5205 34.9545Z" fill="white"/>
<path fill-rule="evenodd" clip-rule="evenodd" d="M30.4829 36.659C32.4835 36.3789 33.0289 37.4777 33.3625 38.0767C33.6774 38.6368 34.1813 38.5899 33.987 37.8703C33.8741 37.4664 33.6372 37.1081 33.3098 36.846C32.9823 36.5839 32.5808 36.4313 32.1619 36.4097C31.6554 36.3789 30.964 36.3709 30.4829 36.659Z" fill="white"/>
<path fill-rule="evenodd" clip-rule="evenodd" d="M86.1726 55.0728L86.1365 55.0634L85.9475 55.0192L85.8028 54.8731L85.7787 54.8504C85.8682 54.8884 85.9546 54.9332 86.0373 54.9844L86.0869 55.0138L86.1726 55.0728Z" fill="#09A9DB"/>
<path d="M78.3471 40.1027C78.8444 40.1027 79.2476 39.6996 79.2476 39.2023C79.2476 38.705 78.8444 38.3018 78.3471 38.3018C77.8498 38.3018 77.4467 38.705 77.4467 39.2023C77.4467 39.6996 77.8498 40.1027 78.3471 40.1027Z" fill="white"/>
<path d="M74.3595 41.7348C74.5874 41.7348 74.7722 41.55 74.7722 41.3221C74.7722 41.0941 74.5874 40.9094 74.3595 40.9094C74.1315 40.9094 73.9468 41.0941 73.9468 41.3221C73.9468 41.55 74.1315 41.7348 74.3595 41.7348Z" fill="white"/>
<path d="M55.6136 31.2843C56.3085 31.2843 56.8718 30.721 56.8718 30.0261C56.8718 29.3312 56.3085 28.7678 55.6136 28.7678C54.9187 28.7678 54.3554 29.3312 54.3554 30.0261C54.3554 30.721 54.9187 31.2843 55.6136 31.2843Z" fill="white"/>
<path d="M55.9927 26.1817C56.2318 26.1817 56.4255 25.988 56.4255 25.7489C56.4255 25.5099 56.2318 25.3161 55.9927 25.3161C55.7537 25.3161 55.5599 25.5099 55.5599 25.7489C55.5599 25.988 55.7537 26.1817 55.9927 26.1817Z" fill="white"/>
<path d="M32.8404 32.4769C33.1623 32.4769 33.4233 32.216 33.4233 31.894C33.4233 31.5721 33.1623 31.3111 32.8404 31.3111C32.5185 31.3111 32.2575 31.5721 32.2575 31.894C32.2575 32.216 32.5185 32.4769 32.8404 32.4769Z" fill="white"/>
<path d="M43.2608 33.3506C42.9845 33.0752 42.6104 32.9206 42.2203 32.9206C41.8303 32.9206 41.4561 33.0752 41.1798 33.3506C41.4556 33.0742 41.6105 32.6998 41.6105 32.3094C41.6105 31.919 41.4556 31.5446 41.1798 31.2683C41.4561 31.5436 41.8303 31.6982 42.2203 31.6982C42.6104 31.6982 42.9845 31.5436 43.2608 31.2683C42.9851 31.5446 42.8302 31.919 42.8302 32.3094C42.8302 32.6998 42.9851 33.0742 43.2608 33.3506Z" fill="white"/>
<path d="M65.5526 41.6316C65.169 41.5615 64.7734 41.6463 64.4522 41.8673C64.131 42.0883 63.9104 42.4275 63.8388 42.8108C63.9092 42.427 63.8247 42.031 63.6037 41.7095C63.3826 41.388 63.0431 41.1672 62.6596 41.0956C63.0431 41.1661 63.439 41.0817 63.7605 40.861C64.0819 40.6402 64.3028 40.3011 64.3748 39.9178C64.3046 40.3011 64.3892 40.6966 64.6099 41.0178C64.8307 41.339 65.1696 41.5597 65.5526 41.6316Z" fill="white"/>
<path d="M58.2197 46.8628C57.8288 46.8628 57.4538 47.0181 57.1774 47.2945C56.901 47.5709 56.7457 47.9458 56.7457 48.3368C56.7457 47.9458 56.5904 47.5709 56.314 47.2945C56.0376 47.0181 55.6627 46.8628 55.2717 46.8628C55.6627 46.8628 56.0376 46.7075 56.314 46.4311C56.5904 46.1547 56.7457 45.7797 56.7457 45.3888C56.7457 45.7797 56.901 46.1547 57.1774 46.4311C57.4538 46.7075 57.8288 46.8628 58.2197 46.8628Z" fill="white"/>
<path d="M50.0074 40.8196C49.6419 40.9519 49.3434 41.2233 49.177 41.5747C49.0106 41.926 48.9898 42.3289 49.119 42.6956C48.987 42.3298 48.7157 42.031 48.3643 41.8643C48.0129 41.6977 47.6099 41.6766 47.2431 41.8058C47.6089 41.6738 47.9076 41.4025 48.0743 41.0511C48.2409 40.6997 48.262 40.2967 48.1328 39.9299C48.2649 40.2953 48.5359 40.5939 48.887 40.7605C49.2381 40.9271 49.6408 40.9484 50.0074 40.8196Z" fill="white"/>
<path d="M72.6783 47.9468C72.403 48.2231 72.2484 48.5973 72.2484 48.9873C72.2484 49.3774 72.403 49.7515 72.6783 50.0278C72.402 49.7521 72.0275 49.5972 71.6372 49.5972C71.2468 49.5972 70.8723 49.7521 70.596 50.0278C70.8713 49.7515 71.0259 49.3774 71.0259 48.9873C71.0259 48.5973 70.8713 48.2231 70.596 47.9468C70.8723 48.2226 71.2468 48.3775 71.6372 48.3775C72.0275 48.3775 72.402 48.2226 72.6783 47.9468Z" fill="white"/>
</svg>
