<svg width="148" height="223" viewBox="0 0 148 223" fill="none" xmlns="http://www.w3.org/2000/svg">
<path d="M36.8615 218.769H39.3146V222.989H36.4665C35.4346 223.014 34.4176 222.739 33.5391 222.197C32.6484 222.733 31.6253 223.007 30.5864 222.989H21.1728C19.6096 222.989 18.3699 222.461 17.4536 221.406C16.6623 220.475 16.2667 219.28 16.2667 217.82V215.655L20.5956 213.361V217.607C20.5956 218.065 20.675 218.372 20.8319 218.531C20.9888 218.689 21.2991 218.767 21.7554 218.767H30.1932C30.6513 218.767 30.958 218.689 31.1167 218.531C31.2754 218.372 31.3548 218.065 31.3548 217.607V208.275L35.7017 205.984V217.612C35.7017 218.071 35.7811 218.377 35.938 218.536C36.0949 218.695 36.4052 218.769 36.8615 218.769ZM27.2098 209.144C28.476 209.461 29.1092 210.323 29.1092 211.729C29.1092 212.537 28.8849 213.174 28.4364 213.641C27.9878 214.107 27.377 214.34 26.6038 214.339H22.2749L23.303 212.414H26.3874C26.914 212.414 27.1792 212.142 27.1792 211.597C27.1792 210.946 26.7583 210.621 25.9166 210.621C25.628 210.618 25.3417 210.672 25.0743 210.781C24.807 210.889 24.5641 211.05 24.36 211.254V209.514L26.7048 206.929H29.1885L27.2098 209.144Z" fill="#03C27C"/>
<path d="M38.7843 222.989V218.769H41.2374C41.6937 218.769 42.0021 218.691 42.1609 218.532C42.3196 218.374 42.3971 218.067 42.3971 217.609V213.28L46.7477 210.987V217.816C46.7477 219.486 46.2204 220.796 45.1658 221.745C44.252 222.572 43.0741 222.986 41.6324 222.986L38.7843 222.989ZM44.7708 208.881C44.4785 208.893 44.1869 208.844 43.9146 208.737C43.6422 208.63 43.3951 208.468 43.189 208.26C42.9859 208.049 42.8276 207.799 42.7234 207.525C42.6193 207.251 42.5715 206.959 42.5829 206.666C42.5701 206.376 42.6173 206.088 42.7216 205.818C42.8259 205.548 42.985 205.302 43.189 205.096C43.3994 204.897 43.6479 204.741 43.9196 204.639C44.1914 204.537 44.4808 204.491 44.7708 204.503C45.0598 204.485 45.3494 204.528 45.6202 204.631C45.8911 204.733 46.1371 204.892 46.3418 205.097C46.5466 205.301 46.7054 205.547 46.8077 205.818C46.91 206.089 46.9535 206.379 46.9353 206.668C46.9489 206.962 46.9034 207.256 46.8015 207.532C46.6995 207.808 46.5432 208.062 46.3419 208.276C46.1362 208.48 45.8906 208.639 45.6205 208.743C45.3504 208.847 45.0617 208.894 44.7726 208.881H44.7708Z" fill="#03C27C"/>
<path d="M56.0854 222.989C54.4308 222.989 53.1381 222.461 52.2074 221.406C51.3813 220.475 50.9683 219.28 50.9683 217.82V208.275L55.3206 205.984V217.612C55.3206 218.071 55.3982 218.377 55.5569 218.536C55.7156 218.695 56.0223 218.772 56.4804 218.772H58.9317V222.993L56.0854 222.989Z" fill="#03C27C"/>
<path d="M71.9058 218.769H74.0955V222.989H71.5108C70.482 223.019 69.4661 222.754 68.5834 222.225C67.7013 222.754 66.686 223.019 65.6578 222.989H58.405V218.769H65.2357C65.674 218.769 65.977 218.7 66.1375 218.558C66.2981 218.415 66.3883 218.163 66.3883 217.795V217.708C66.3883 216.746 65.9313 216.025 65.0174 215.544C64.3877 215.229 63.6901 215.075 62.9865 215.094C62.0212 215.115 61.0668 215.302 60.1655 215.648V211.456L65.1022 205.984H69.4474L65.0174 210.968C66.0067 211.142 66.9493 211.519 67.7861 212.075C69.7353 213.359 70.7196 215.205 70.7388 217.612C70.7388 218.071 70.8182 218.377 70.9769 218.536C71.1356 218.695 71.4495 218.769 71.9058 218.769Z" fill="#03C27C"/>
<path d="M77.1799 215.553C77.1799 213.9 77.6987 212.608 78.7365 211.676C79.6491 210.868 80.8179 210.464 82.2429 210.463C84.0718 210.463 85.4872 211.13 86.4888 212.466C87.3486 213.592 87.7791 215.007 87.7803 216.712C87.7803 218.7 87.2355 220.274 86.1461 221.433C85.1961 222.47 83.9654 222.989 82.4539 222.989C81.0999 222.989 79.9924 222.769 79.1315 222.329C78.298 222.78 77.3623 223.007 76.4151 222.989H73.567V218.769H76.0201C76.4764 218.769 76.7848 218.691 76.9436 218.532C77.1023 218.374 77.1799 218.067 77.1799 217.609V215.553ZM81.5322 218.215C81.5322 218.584 81.7613 218.769 82.2194 218.769C83.0792 218.769 83.5097 218.03 83.5109 216.554C83.5109 215.219 83.09 214.551 82.2483 214.55C81.7745 214.55 81.537 214.831 81.5358 215.394L81.5322 218.215Z" fill="#03C27C"/>
<path d="M95.639 222.989V208.3L99.9896 205.984V222.993L95.639 222.989Z" fill="#03C27C"/>
<path d="M102.094 222.989L104.284 218.769H107.949C108.476 218.769 108.739 218.505 108.739 217.979C108.739 216.467 107.94 215.254 106.34 214.339L108.48 210.674C111.168 212.237 112.68 214.329 113.016 216.95C113.121 217.741 113.279 218.241 113.49 218.453C113.702 218.665 114.132 218.77 114.782 218.769H116.681V222.989H114.598C113.492 223.012 112.399 222.738 111.434 222.197C110.749 222.724 109.861 222.988 108.77 222.989H102.094ZM108.503 208.881C108.211 208.893 107.919 208.844 107.647 208.737C107.374 208.63 107.127 208.468 106.921 208.26C106.718 208.049 106.559 207.799 106.454 207.525C106.35 207.251 106.302 206.959 106.313 206.666C106.3 206.376 106.348 206.087 106.452 205.817C106.557 205.547 106.717 205.302 106.921 205.096C107.132 204.897 107.38 204.741 107.652 204.639C107.924 204.537 108.213 204.491 108.503 204.503C108.792 204.485 109.082 204.528 109.352 204.631C109.623 204.733 109.869 204.892 110.074 205.097C110.279 205.301 110.438 205.547 110.54 205.818C110.642 206.089 110.686 206.379 110.667 206.668C110.681 206.962 110.636 207.256 110.534 207.532C110.432 207.808 110.275 208.062 110.074 208.276C109.868 208.48 109.623 208.638 109.353 208.742C109.084 208.846 108.795 208.893 108.507 208.881H108.503Z" fill="#03C27C"/>
<path d="M118.737 214.656C119.18 213.265 120.058 212.054 121.243 211.202C122.444 210.352 123.886 209.909 125.357 209.939C127.521 209.939 129.279 210.616 130.631 211.97C131.895 213.252 132.527 214.895 132.529 216.9V217.823C132.529 219.507 131.992 220.825 130.92 221.779C129.989 222.587 128.776 222.992 127.282 222.993H123.494C122.92 222.997 122.35 222.907 121.805 222.728C121.26 222.905 120.69 222.994 120.117 222.993H116.153V218.772H117.841C117.756 218.365 117.712 217.949 117.709 217.533C117.676 216.479 118.044 215.451 118.737 214.656ZM121.804 218.558C122.596 218.279 122.992 217.798 122.991 217.115C122.991 216.325 122.595 215.929 121.804 215.928C121.012 215.927 120.617 216.322 120.617 217.115C120.612 217.798 121.005 218.279 121.796 218.558H121.804ZM128.185 217.609V216.887C128.185 215.991 127.93 215.289 127.42 214.779C126.911 214.269 126.199 214.014 125.285 214.014C124.946 214.016 124.61 214.061 124.282 214.146C125.355 214.902 125.891 216.027 125.891 217.52C125.888 217.937 125.844 218.352 125.759 218.76H127.289C127.711 218.76 127.965 218.704 128.054 218.579C128.142 218.455 128.178 218.154 128.178 217.609H128.185Z" fill="#03C27C"/>
<path d="M143.151 100.395C153.212 73.9774 147.622 42.9608 126.338 21.677C97.4355 -7.22567 50.5823 -7.22567 21.6706 21.677C13.7943 29.5309 7.79755 39.0653 4.12952 49.566C4.2684 49.5768 4.40188 49.6021 4.54257 49.6021C4.86871 49.6017 5.19413 49.5716 5.51477 49.5119C12.2011 48.2818 21.6183 47.7929 22.0151 47.7731C23.009 47.7082 24.084 47.6739 25.1518 47.6739C28.453 47.6811 31.747 47.983 34.9946 48.5758C43.1113 35.571 57.541 26.9132 74.0035 26.9132C99.3908 26.9132 119.969 47.4935 119.969 72.879C119.969 73.3245 119.948 73.7646 119.935 74.2065C133.714 79.3218 139.92 85.2993 142.227 88.0951C142.9 88.9106 143.399 89.8552 143.694 90.8707C143.989 91.8862 144.073 92.9513 143.941 94.0004L143.151 100.395Z" fill="#E4342A"/>
<path d="M141.25 104.963C140.221 104.226 138.609 103.52 136.039 103.042L138.762 102.718L139.904 93.5044C139.968 93.0051 139.928 92.4981 139.788 92.0147C139.648 91.5313 139.41 91.0819 139.089 90.6942C137.105 88.2791 131.711 83.0898 119.625 78.429C118.384 77.951 117.082 77.4784 115.695 77.0149C111.85 75.7426 107.943 74.6692 103.988 73.7989C103.988 73.7989 90.8556 70.8263 72.9321 74.5438C72.9321 74.5438 44.2747 81.8957 32.3829 76.5279C32.3829 76.5279 50.6382 78.0105 72.4433 70.9941L50.6382 58.1156C50.6382 58.1156 45.1459 55.0385 37.0545 53.1608C35.7287 52.8524 34.3345 52.5782 32.8807 52.3545C29.3572 51.7963 25.7835 51.6227 22.2225 51.8369C22.2225 51.8369 12.7513 52.3167 6.25429 53.5125H6.22182C4.08081 53.9003 2.3258 55.4425 1.84421 57.5637C-2.02127 74.5745 0.231858 92.4035 8.20771 107.918C8.91717 109.292 9.67052 110.649 10.4678 111.987C13.5341 117.104 65.0066 183.739 65.0066 183.739C66.0577 185.131 67.4173 186.26 68.9786 187.037C70.5399 187.815 72.2603 188.219 74.0044 188.219C75.7486 188.219 77.4689 187.815 79.0302 187.037C80.5915 186.26 81.9512 185.131 83.0022 183.739C83.0022 183.739 134.431 117.158 137.487 112.072H119.466C116.226 115.558 111.81 117.723 107.07 118.15C102.329 118.577 97.5978 117.236 93.7866 114.384C85.7895 118.206 76.8562 119.63 68.0671 118.482C59.2781 117.335 51.0097 113.665 44.2621 107.918H87.7658C85.0945 97.2201 91.5771 92.35 91.5771 92.35C90.4623 94.6912 89.9627 97.278 90.1256 99.8659C90.2884 102.454 91.1083 104.958 92.5078 107.14C94.6331 110.408 97.9304 112.737 101.721 113.648C105.511 114.558 109.507 113.981 112.884 112.035C116.262 110.088 118.765 106.921 119.878 103.186C120.992 99.4496 120.63 95.4291 118.869 91.9514C118.886 91.9682 118.902 91.9863 118.916 92.0055C119.49 92.6657 124.868 99.1464 122.789 108.003H142.977C142.977 108.003 143.29 106.43 141.25 104.963Z" fill="#03C27C"/>
<path d="M130.975 121.04C130.507 121.101 130.038 121.155 129.567 121.206L128.158 121.361C127.22 121.456 126.281 121.545 125.341 121.628L122.523 121.862C121.585 121.931 120.646 122.008 119.708 122.068L120.409 121.79C119.556 122.654 118.652 123.467 117.704 124.225C116.736 124.99 115.711 125.679 114.637 126.287C112.436 127.542 110.004 128.34 107.488 128.632C104.953 128.892 102.391 128.66 99.9444 127.948C97.5564 127.25 95.2666 126.252 93.13 124.977L94.7533 125.1C90.3715 127 85.7695 128.345 81.0542 129.104C78.6869 129.474 76.2978 129.687 73.9024 129.741C71.5035 129.785 69.1043 129.664 66.7219 129.38C64.3401 129.081 61.9827 128.613 59.6675 127.979C57.3574 127.34 55.0968 126.534 52.9036 125.567C50.7177 124.599 48.6037 123.476 46.578 122.207C44.5608 120.937 42.6324 119.531 40.8061 117.999L41.7386 118.323C39.4173 118.244 37.0959 118.17 34.7745 118.069C33.6129 118.025 32.4525 117.975 31.2934 117.919L27.8104 117.75C25.4884 117.63 23.167 117.496 20.8463 117.349C18.5255 117.203 16.2077 117.024 13.8929 116.812C16.2149 116.611 18.5363 116.438 20.8571 116.292C23.1785 116.139 25.4998 116.011 27.8212 115.892L31.3042 115.723C32.4646 115.666 33.625 115.616 34.7853 115.573C37.1067 115.472 39.4281 115.392 41.7495 115.318L42.2257 115.3L42.6802 115.643C44.4704 116.99 46.3453 118.22 48.2933 119.326C50.2304 120.431 52.2402 121.404 54.3087 122.238C60.5061 124.736 67.1464 125.948 73.8267 125.802C76.0497 125.762 78.2676 125.576 80.4661 125.244C84.8865 124.578 89.2155 123.406 93.3681 121.751L94.2429 121.406L94.9986 121.873C96.8871 123.042 98.855 124.052 100.913 124.719C102.943 125.41 105.085 125.711 107.226 125.607C108.296 125.549 109.356 125.382 110.392 125.107C111.441 124.826 112.462 124.451 113.443 123.985C114.446 123.51 115.411 122.958 116.329 122.335C117.263 121.706 118.16 121.023 119.015 120.29L119.376 119.99L119.728 120.012C120.665 120.071 121.605 120.149 122.543 120.216L125.361 120.45C126.301 120.533 127.24 120.623 128.178 120.719L129.587 120.874C130.038 120.924 130.507 120.979 130.975 121.04Z" fill="#00B265"/>
<path d="M67.2288 70.4891L50.1657 60.0636C50.1657 60.0636 42.6515 55.3144 32.5218 54.1276C31.2028 53.9661 29.8726 54.3222 28.8107 55.1211C27.7488 55.92 27.0379 57.0993 26.8275 58.4114C26.8275 58.4421 26.8185 58.4763 26.8131 58.5088C26.8131 58.5088 25.4801 63.2778 32.1701 74.6196C32.1701 74.6232 49.9781 76.0679 67.2288 70.4891Z" fill="#00B265"/>
<path d="M26.3801 54.0951C26.0963 54.2922 25.848 54.5362 25.646 54.8166C25.4424 55.0932 25.2678 55.39 25.1247 55.7022C24.8437 56.3269 24.6501 56.9872 24.5493 57.6647C24.4441 58.3424 24.3982 59.028 24.4123 59.7137C24.4225 60.4008 24.4725 61.0868 24.562 61.7681V61.7843C24.6693 62.9109 24.8568 64.0285 25.1229 65.1284C25.3809 66.2359 25.6965 67.329 26.041 68.4148C26.3855 69.5006 26.7841 70.5792 27.2098 71.6326C27.309 71.8996 27.4227 72.1611 27.5345 72.4244L27.8646 73.2163L28.559 74.7873C28.2776 74.2895 27.9908 73.7917 27.7221 73.2848C27.4533 72.778 27.1918 72.2657 26.9591 71.739L26.5984 70.9544C26.4775 70.6929 26.3765 70.4241 26.2647 70.159C26.0392 69.6305 25.8426 69.0894 25.646 68.5483C25.2612 67.4617 24.9337 66.3557 24.6648 65.2348C24.5295 64.6739 24.4141 64.1075 24.3221 63.5376C24.221 62.964 24.1511 62.3853 24.1128 61.8042V61.8204C23.9371 60.4184 23.9803 58.9975 24.2409 57.6088C24.3819 56.9153 24.6251 56.2467 24.9624 55.6247C25.1309 55.314 25.3343 55.0236 25.5684 54.7589C25.7968 54.4906 26.0718 54.2657 26.3801 54.0951Z" fill="#00B265"/>
<path d="M44.0349 104.731C50.6996 104.406 57.3643 104.235 64.0291 104.119C67.3605 104.047 70.7028 104.031 74.0252 103.988L79.0233 103.955H81.5233H82.7732H82.849H82.8598C82.8659 103.949 82.8703 103.942 82.8724 103.933L82.8418 103.45C82.8418 103.234 82.8219 103.015 82.8201 102.801C82.8183 102.586 82.8201 102.368 82.8201 102.153C82.8201 101.939 82.8201 101.722 82.8364 101.508C82.87 100.648 82.947 99.7916 83.0672 98.939C83.1935 98.0877 83.3648 97.2453 83.5723 96.4138C83.6913 96.0008 83.7923 95.5823 83.933 95.1729C84.0016 94.9691 84.0629 94.7616 84.135 94.5596L84.3641 93.9536C84.4363 93.7497 84.521 93.5513 84.6094 93.3547L84.8655 92.7595L85.1523 92.1787C85.2461 91.9839 85.3417 91.7909 85.4517 91.6033L85.7674 91.0388C85.872 90.8494 85.9965 90.678 86.1083 90.4868C86.2201 90.2956 86.3356 90.1261 86.46 89.9457L86.8388 89.4172L87.0192 89.1539C87.0859 89.0673 87.1562 88.9861 87.223 88.9014L87.6324 88.3981C87.7623 88.2178 87.9192 88.0735 88.0617 87.9129L88.5018 87.4367C88.8139 87.1373 89.1259 86.8379 89.4452 86.5493C89.7644 86.2607 90.1035 85.992 90.448 85.7322C91.817 84.6845 93.3149 83.817 94.905 83.1511C96.4782 82.52 98.1093 82.0439 99.775 81.7298C100.192 81.6595 100.607 81.5765 101.023 81.517L102.277 81.3655C103.114 81.2618 103.959 81.2262 104.802 81.259C105.644 81.2902 106.482 81.3879 107.309 81.5512C108.13 81.7172 108.936 81.955 109.715 82.2619C108.12 81.824 106.467 81.6372 104.815 81.7082C103.993 81.7423 103.175 81.8345 102.367 81.9841L101.149 82.2114C100.747 82.2962 100.349 82.4044 99.9482 82.4982C98.3572 82.885 96.8073 83.4244 95.3199 84.1089C93.8519 84.7949 92.4728 85.6568 91.2128 86.6756C88.7239 88.7308 86.8378 91.4216 85.7548 94.4622C85.48 95.2185 85.2446 95.9885 85.0495 96.7692C84.8691 97.552 84.714 98.3456 84.604 99.1446C84.494 99.9437 84.4236 100.748 84.3984 101.553C84.3984 101.755 84.3857 101.955 84.3857 102.157C84.3857 102.359 84.3857 102.557 84.3857 102.757C84.3857 102.958 84.4002 103.158 84.4074 103.356L84.4272 103.652L84.4381 103.814C84.445 103.916 84.4419 104.018 84.429 104.119C84.3762 104.529 84.1676 104.903 83.8464 105.164C83.6857 105.292 83.5021 105.39 83.3053 105.45C83.2074 105.479 83.1072 105.499 83.0059 105.512C82.9554 105.512 82.9049 105.512 82.8562 105.521H82.7642L81.5323 105.517H79.0323L74.0342 105.485C70.7028 105.441 67.3695 105.425 64.0381 105.353C57.3625 105.227 50.6996 105.055 44.0349 104.731Z" fill="#00B265"/>
<path d="M115.642 92.4853C115.947 92.9364 116.21 93.4153 116.425 93.9157C116.646 94.4176 116.833 94.9341 116.984 95.4614C117.291 96.532 117.45 97.6395 117.457 98.7532C117.454 99.3168 117.414 99.8795 117.338 100.438C117.256 100.999 117.136 101.553 116.977 102.097C116.813 102.643 116.607 103.174 116.362 103.688C116.246 103.948 116.109 104.197 115.974 104.448C115.839 104.698 115.678 104.933 115.532 105.169L115.568 105.106C115.514 105.205 115.476 105.268 115.431 105.342C115.386 105.416 115.343 105.481 115.298 105.55C115.207 105.687 115.117 105.818 115.018 105.946C114.827 106.201 114.623 106.446 114.414 106.684C113.149 108.093 111.568 109.184 109.802 109.866C108.647 110.315 107.43 110.586 106.194 110.67C104.987 110.758 103.773 110.678 102.587 110.432C103.758 110.34 104.92 110.157 106.063 109.884C106.622 109.75 107.173 109.582 107.713 109.382C108.247 109.191 108.769 108.966 109.275 108.71C110.778 107.958 112.121 106.922 113.229 105.658C113.409 105.449 113.59 105.236 113.745 105.016C113.824 104.904 113.905 104.796 113.979 104.684L114.089 104.52C114.122 104.467 114.159 104.402 114.178 104.372L114.205 104.327L114.215 104.31C114.491 103.892 114.745 103.459 114.975 103.014C115.202 102.567 115.404 102.108 115.579 101.639C115.748 101.166 115.891 100.685 116.006 100.196C116.118 99.7016 116.202 99.2012 116.259 98.6973C116.365 97.6695 116.365 96.6335 116.259 95.6057C116.156 94.548 115.949 93.5029 115.642 92.4853Z" fill="#00B265"/>
<path d="M32.3828 76.5351C32.6959 76.6876 33.0196 76.8172 33.3514 76.9229C33.6797 77.0348 34.0134 77.1304 34.3489 77.2187C35.0198 77.3991 35.6998 77.538 36.3834 77.6552C37.7499 77.8865 39.1283 78.0407 40.5121 78.117C43.2768 78.264 46.048 78.2363 48.8092 78.034C51.5749 77.8332 54.3298 77.5254 57.0738 77.1105C59.8173 76.7011 62.5517 76.2231 65.2699 75.6477C65.9499 75.5124 66.6281 75.3609 67.3081 75.2184C67.9881 75.0759 68.6627 74.9226 69.3355 74.7675L70.3473 74.5348L70.8488 74.4194L71.3628 74.2841C72.05 74.1145 72.7355 73.954 73.4263 73.8169C74.8043 73.5392 76.1872 73.2987 77.5748 73.0955C78.9625 72.8922 80.3561 72.7293 81.7558 72.6066C87.3383 72.107 92.9839 72.1738 98.5069 73.0197C92.9552 72.7111 87.3869 72.9024 81.8694 73.5915C79.1188 73.9522 76.379 74.3797 73.6824 74.9893C73.0096 75.1445 72.335 75.296 71.6713 75.4691L71.1752 75.6026L70.6576 75.7253L69.6277 75.9616C68.9441 76.1257 68.2586 76.288 67.5768 76.4341C66.895 76.5802 66.2114 76.7408 65.5242 76.8796C62.7808 77.4352 60.0193 77.915 57.2416 78.2883C55.8503 78.4699 54.4566 78.6232 53.0606 78.7483C52.7125 78.7844 52.3625 78.8114 52.0126 78.8367L50.9647 78.9124C50.2636 78.9521 49.5626 78.9852 48.8615 79.0116C48.1599 79.0261 47.46 79.0567 46.7566 79.0513C46.4067 79.0513 46.0549 79.0513 45.705 79.0513L44.6517 79.0261C43.2484 78.9756 41.8469 78.8872 40.4508 78.7266C39.0541 78.5679 37.6686 78.3227 36.3023 77.9925C34.9549 77.6516 33.5949 77.2368 32.3828 76.5351Z" fill="#00A860"/>
<path d="M23.6727 41.2545C23.6727 41.2545 24.4159 40.0009 25.9075 38.0204" stroke="white" stroke-width="5.67" stroke-miterlimit="10"/>
<path d="M30.9471 32.1277C41.7189 20.9321 64.4962 4.94035 99.6415 17.8784C99.6415 17.8784 130.261 31.2114 134.067 65.3322" stroke="white" stroke-width="5.67" stroke-miterlimit="10" stroke-dasharray="43.02 43.02"/>
<path d="M134.381 69.1922C134.445 70.4764 134.469 71.7871 134.455 73.1243" stroke="white" stroke-width="5.67" stroke-miterlimit="10"/>
<path d="M138.53 96.0296L138.71 94.639C138.726 94.5073 138.75 94.3756 138.771 94.2457C138.893 93.6093 138.861 92.953 138.677 92.3317C138.493 91.7103 138.163 91.1421 137.714 90.6744C137.319 90.1964 135.501 88.4432 135.501 88.4432C135.501 88.4432 133.311 92.5503 138.53 96.0296Z" fill="#00B265"/>
<path d="M133.917 88.757C133.693 89.4599 133.597 90.1973 133.632 90.9341C133.669 91.6535 133.842 92.3594 134.143 93.0138C134.45 93.6716 134.855 94.2796 135.342 94.8175C135.842 95.3674 136.38 95.8799 136.955 96.3507C136.266 96.0258 135.632 95.5949 135.077 95.0736L134.87 94.8752C134.801 94.8067 134.74 94.7328 134.675 94.6624C134.542 94.5217 134.428 94.3666 134.314 94.2151C134.085 93.9007 133.887 93.5656 133.721 93.214C133.56 92.8574 133.439 92.4842 133.36 92.1011C133.284 91.7189 133.254 91.3289 133.27 90.9395C133.291 90.1679 133.514 89.4152 133.917 88.757Z" fill="#00B265"/>
<path fill-rule="evenodd" clip-rule="evenodd" d="M115.814 74.0117C115.702 73.9429 115.586 73.8826 115.465 73.8314C115.445 73.822 115.423 73.8147 115.401 73.8097L115.498 73.862L115.815 74.0424C115.815 74.0424 115.814 74.0189 115.814 74.0117ZM115.994 74.1236L115.878 74.0514C115.878 74.0514 115.878 74.0622 115.878 74.0694L115.949 74.1109C116.111 74.2083 116.268 74.3075 116.421 74.4085C116.344 74.358 116.18 74.2426 115.996 74.1326L115.994 74.1236Z" fill="#09A9DB"/>
<path fill-rule="evenodd" clip-rule="evenodd" d="M115.877 74.0694C115.877 74.0694 115.877 74.0568 115.877 74.0514L115.81 74.0117C115.81 74.0117 115.81 74.0261 115.81 74.0334L115.492 73.853L115.687 74.0496L115.942 74.1091L115.877 74.0694Z" fill="#09A9DB"/>
<path fill-rule="evenodd" clip-rule="evenodd" d="M108.73 62.8648C107.893 62.7449 107.044 62.7376 106.205 62.8431C105.814 61.9597 105.242 61.1681 104.526 60.519C103.81 59.8699 102.966 59.3777 102.049 59.0742C101.132 58.7706 100.161 58.6623 99.1994 58.7563C98.2377 58.8503 97.3063 59.1445 96.4651 59.6199C96.2211 59.0482 95.9014 58.512 95.5146 58.0254C96.2788 57.0461 96.8403 55.9244 97.1663 54.7258C97.4923 53.5272 97.5763 52.2757 97.4135 51.0443C97.2506 49.8128 96.8441 48.6262 96.2177 47.5535C95.5913 46.4809 94.7575 45.5438 93.765 44.7968C92.7725 44.0499 91.6412 43.5081 90.4371 43.2031C89.2329 42.8981 87.9801 42.8359 86.7517 43.0203C85.5233 43.2047 84.344 43.6319 83.2824 44.2769C82.2209 44.922 81.2985 45.7721 80.569 46.7774C79.0475 46.0761 77.3238 45.9479 75.7152 46.4167C74.8077 46.6835 73.9639 47.1321 73.2351 47.7352C72.1982 46.7483 70.8791 46.1096 69.4618 45.9081C69.1262 45.8582 68.7873 45.8341 68.4481 45.8359C68.5094 45.578 68.5581 45.3164 68.5978 45.0495C68.7921 43.697 68.6878 42.3184 68.2921 41.0105C67.8965 39.7027 67.2191 38.4974 66.3077 37.4794C65.3962 36.4615 64.2728 35.6556 63.0165 35.1184C61.7601 34.5812 60.4013 34.3257 59.0357 34.37C57.67 34.4143 56.3306 34.7572 55.1117 35.3747C53.8928 35.9921 52.824 36.8691 51.9804 37.944C51.1368 39.0189 50.539 40.2655 50.2289 41.5962C49.9188 42.927 49.904 44.3095 50.1855 45.6465C49.1499 45.781 48.1581 46.1473 47.2837 46.7182C46.4093 47.289 45.6749 48.0498 45.1351 48.9437C44.6236 48.5958 44.0471 48.3548 43.4403 48.235C42.8334 48.1152 42.2086 48.1192 41.6032 48.2467C40.9979 48.3742 40.4246 48.6226 39.9176 48.977C39.4105 49.3314 38.9803 49.7845 38.6526 50.3091L38.3099 50.4985L37.5884 50.9025C37.5884 50.9025 49.7544 53.9779 55.6363 58.4511C56.0891 58.7956 56.5634 59.113 57.0486 59.4143C60.1384 61.3316 70.1815 67.5021 74.8964 69.6756C74.8964 69.6756 98.2797 67.5526 116.457 74.432C116.539 74.1114 116.604 73.7869 116.652 73.4598C117.006 71.0043 116.371 68.5088 114.885 66.5219C113.4 64.5351 111.186 63.2196 108.73 62.8648ZM115.945 74.1109L115.691 74.0514L115.496 73.8548L115.399 73.8025C115.421 73.8075 115.443 73.8147 115.464 73.8241C115.584 73.8753 115.7 73.9356 115.812 74.0045L115.878 74.0442L115.994 74.1163C116.174 74.2354 116.355 74.3508 116.418 74.4013C116.266 74.3129 116.109 74.2083 115.947 74.1109H115.945Z" fill="#09A9DB"/>
<path fill-rule="evenodd" clip-rule="evenodd" d="M105.341 50.9314C104.807 50.8542 104.261 50.9372 103.774 51.17C103.286 51.4028 102.879 51.7748 102.603 52.2391C102.327 52.7034 102.195 53.2391 102.224 53.7785C102.252 54.3178 102.44 54.8366 102.764 55.2692C103.087 55.7018 103.531 56.0288 104.041 56.2088C104.55 56.3888 105.101 56.4138 105.624 56.2806C106.148 56.1474 106.62 55.862 106.981 55.4605C107.342 55.0589 107.576 54.5593 107.654 54.0247C107.705 53.6698 107.686 53.3081 107.598 52.9605C107.509 52.6128 107.353 52.286 107.139 51.9987C106.924 51.7114 106.655 51.4692 106.346 51.2861C106.038 51.103 105.696 50.9824 105.341 50.9314ZM106.665 52.9425C106.631 53.1796 106.527 53.4012 106.366 53.5792C106.206 53.7572 105.996 53.8837 105.764 53.9428C105.532 54.0018 105.287 53.9907 105.062 53.9108C104.836 53.8309 104.639 53.6859 104.495 53.4941C104.352 53.3022 104.268 53.0721 104.255 52.8329C104.242 52.5936 104.301 52.3559 104.423 52.1498C104.545 51.9437 104.726 51.7785 104.942 51.6749C105.158 51.5714 105.4 51.5342 105.637 51.5681C105.955 51.6145 106.242 51.7853 106.434 52.043C106.627 52.3007 106.709 52.6242 106.663 52.9425H106.665Z" fill="#09A9DB"/>
<path fill-rule="evenodd" clip-rule="evenodd" d="M100.037 54.7805C99.7916 54.7453 99.5416 54.7834 99.3182 54.8902C99.0949 54.997 98.9082 55.1676 98.7818 55.3805C98.6555 55.5934 98.595 55.839 98.6082 56.0862C98.6214 56.3334 98.7076 56.5711 98.8559 56.7694C99.0042 56.9676 99.2079 57.1174 99.4413 57.1999C99.6748 57.2823 99.9274 57.2937 100.167 57.2326C100.407 57.1714 100.624 57.0405 100.789 56.8564C100.955 56.6723 101.062 56.4433 101.097 56.1983C101.144 55.8697 101.059 55.5359 100.86 55.2701C100.661 55.0044 100.365 54.8283 100.037 54.7805ZM100.644 55.7022C100.629 55.811 100.581 55.9126 100.508 55.9942C100.434 56.0759 100.338 56.1339 100.232 56.161C100.125 56.1881 100.013 56.183 99.9095 56.1464C99.8059 56.1098 99.7155 56.0433 99.6497 55.9553C99.5839 55.8674 99.5457 55.7619 99.5399 55.6522C99.534 55.5425 99.5608 55.4335 99.6169 55.339C99.673 55.2446 99.7558 55.1689 99.8549 55.1215C99.954 55.0741 100.065 55.0571 100.174 55.0727C100.32 55.0929 100.453 55.1705 100.543 55.2886C100.633 55.4066 100.672 55.5554 100.652 55.7022H100.644Z" fill="#09A9DB"/>
<path fill-rule="evenodd" clip-rule="evenodd" d="M74.725 37.9014C73.9927 37.7956 73.2454 37.9092 72.5777 38.2281C71.91 38.5469 71.3519 39.0566 70.9739 39.6927C70.5959 40.3287 70.415 41.0626 70.4541 41.8015C70.4932 42.5404 70.7505 43.2511 71.1935 43.8437C71.6365 44.4363 72.2453 44.8842 72.9429 45.1308C73.6406 45.3774 74.3956 45.4116 75.1127 45.2291C75.8297 45.0466 76.4765 44.6555 76.9713 44.1053C77.466 43.5552 77.7866 42.8707 77.8923 42.1383C77.9627 41.6521 77.9366 41.1568 77.8155 40.6807C77.6945 40.2046 77.4807 39.757 77.1866 39.3635C76.8924 38.9701 76.5236 38.6384 76.1013 38.3875C75.6789 38.1366 75.2112 37.9715 74.725 37.9014ZM76.5287 40.6557C76.4825 40.9816 76.3405 41.2864 76.1208 41.5315C75.9011 41.7766 75.6135 41.9509 75.2946 42.0322C74.9756 42.1136 74.6397 42.0984 74.3294 41.9886C74.0192 41.8787 73.7485 41.6791 73.5518 41.4152C73.3552 41.1513 73.2413 40.8349 73.2248 40.5061C73.2082 40.1774 73.2897 39.8512 73.4588 39.5688C73.628 39.2865 73.8773 39.0607 74.1749 38.9202C74.4726 38.7798 74.8053 38.7309 75.1308 38.7798C75.5654 38.8432 75.9572 39.0762 76.2205 39.4277C76.4839 39.7793 76.5972 40.2208 76.5359 40.6557H76.5287Z" fill="#09A9DB"/>
<path fill-rule="evenodd" clip-rule="evenodd" d="M44.1267 41.7415C43.7804 41.6916 43.427 41.7455 43.1112 41.8964C42.7955 42.0473 42.5316 42.2885 42.3529 42.5894C42.1742 42.8903 42.0888 43.2374 42.1074 43.5869C42.126 43.9363 42.2478 44.2724 42.4574 44.5527C42.667 44.8329 42.955 45.0447 43.285 45.1613C43.6149 45.2778 43.9721 45.2939 44.3112 45.2075C44.6503 45.1211 44.9562 44.9361 45.1902 44.6758C45.4241 44.4156 45.5757 44.0918 45.6256 43.7454C45.6588 43.5154 45.6463 43.2812 45.589 43.056C45.5316 42.8308 45.4304 42.6191 45.2912 42.433C45.152 42.2469 44.9776 42.0901 44.7778 41.9714C44.578 41.8528 44.3567 41.7747 44.1267 41.7415ZM44.9853 43.0456C44.9631 43.1995 44.8957 43.3433 44.7918 43.4589C44.6878 43.5745 44.5519 43.6567 44.4013 43.6951C44.2506 43.7336 44.092 43.7265 43.9454 43.6747C43.7987 43.623 43.6707 43.529 43.5775 43.4045C43.4843 43.2801 43.4301 43.1308 43.4217 42.9756C43.4133 42.8203 43.4511 42.6661 43.5303 42.5323C43.6096 42.3986 43.7267 42.2913 43.8669 42.224C44.007 42.1568 44.164 42.1326 44.3179 42.1546C44.5245 42.1845 44.7107 42.2951 44.8358 42.4621C44.9609 42.6291 45.0147 42.839 44.9853 43.0456Z" fill="#09A9DB"/>
<path fill-rule="evenodd" clip-rule="evenodd" d="M75.3166 33.8196C75.0716 33.7836 74.8213 33.8211 74.5976 33.9274C74.3739 34.0337 74.1867 34.204 74.0598 34.4167C73.9328 34.6294 73.8719 34.875 73.8846 35.1223C73.8973 35.3697 73.9831 35.6077 74.1311 35.8063C74.2792 36.0049 74.4828 36.1551 74.7163 36.2379C74.9497 36.3207 75.2025 36.3324 75.4426 36.2714C75.6827 36.2105 75.8993 36.0797 76.065 35.8957C76.2307 35.7116 76.3381 35.4825 76.3736 35.2373C76.4211 34.9092 76.3364 34.5757 76.1383 34.3099C75.9401 34.0441 75.6446 33.8678 75.3166 33.8196ZM75.9209 34.7413C75.9051 34.85 75.8575 34.9516 75.784 35.0333C75.7105 35.115 75.6145 35.173 75.508 35.2001C75.4016 35.2272 75.2895 35.2221 75.1859 35.1855C75.0823 35.1489 74.9919 35.0824 74.9262 34.9944C74.8604 34.9065 74.8221 34.801 74.8163 34.6913C74.8104 34.5816 74.8373 34.4726 74.8933 34.3781C74.9494 34.2837 75.0322 34.208 75.1313 34.1606C75.2304 34.1132 75.3414 34.0962 75.4501 34.1118C75.5225 34.1218 75.5923 34.146 75.6553 34.1831C75.7183 34.2202 75.7733 34.2695 75.8171 34.3281C75.861 34.3867 75.8927 34.4534 75.9105 34.5243C75.9283 34.5952 75.9318 34.669 75.9209 34.7413Z" fill="#09A9DB"/>
<path fill-rule="evenodd" clip-rule="evenodd" d="M115.815 74.0334L115.498 73.853L115.401 73.8007C115.423 73.8057 115.445 73.8129 115.465 73.8223C115.586 73.8736 115.702 73.9339 115.814 74.0027C115.814 74.0027 115.815 74.0262 115.815 74.0334Z" fill="#09A9DB"/>
<path fill-rule="evenodd" clip-rule="evenodd" d="M116.42 74.4085C116.266 74.3075 116.109 74.2083 115.947 74.1109L115.877 74.0694C115.877 74.0694 115.877 74.0568 115.877 74.0514L115.992 74.1235C116.18 74.2426 116.344 74.358 116.42 74.4085Z" fill="#09A9DB"/>
<path fill-rule="evenodd" clip-rule="evenodd" d="M54.0292 37.207C61.9276 35.4935 63.4482 40.2553 64.8514 42.9067C66.1591 45.3868 68.3615 45.2371 67.5985 42.0752C67.2618 40.6871 66.5859 39.4044 65.6312 38.3419C64.6766 37.2795 63.4732 36.4706 62.1289 35.9879C60.7847 35.5052 59.3416 35.3637 57.9292 35.5762C56.5168 35.7886 55.1792 36.3484 54.0364 37.2052L54.0292 37.207Z" fill="white"/>
<path fill-rule="evenodd" clip-rule="evenodd" d="M83.0238 45.7115C90.8555 44.1927 92.2534 48.9257 93.5737 51.5717C94.8093 54.0482 96.9863 53.949 96.3009 50.8123C95.9989 49.4353 95.3598 48.1547 94.4409 47.0855C93.522 46.0163 92.3521 45.192 91.036 44.6864C89.72 44.1808 88.2991 44.0098 86.9007 44.1887C85.5023 44.3676 84.1701 44.8908 83.0238 45.7115Z" fill="white"/>
<path fill-rule="evenodd" clip-rule="evenodd" d="M98.3843 60.3179C102.571 59.5063 103.317 62.0351 104.023 63.451C104.685 64.7749 105.848 64.7136 105.482 63.0452C105.321 62.3089 104.979 61.6242 104.488 61.0525C103.997 60.4809 103.371 60.0401 102.668 59.7697C101.964 59.4994 101.204 59.408 100.457 59.5037C99.7092 59.5993 98.9971 59.8791 98.3843 60.3179Z" fill="white"/>
<path fill-rule="evenodd" clip-rule="evenodd" d="M108.788 66.2882C113.994 66.6868 114.055 69.9173 114.43 71.8166C114.78 73.5932 116.172 73.9071 116.282 71.8166C116.33 70.8953 116.149 69.9765 115.754 69.1426C115.36 68.3087 114.764 67.5857 114.022 67.0385C113.279 66.4913 112.412 66.137 111.498 66.0073C110.585 65.8776 109.654 65.9766 108.788 66.2954V66.2882Z" fill="white"/>
<path fill-rule="evenodd" clip-rule="evenodd" d="M74.9613 48.2836C78.1665 46.6602 79.3534 48.5433 80.2498 49.5263C81.0886 50.448 82.0193 50.1378 81.3321 48.8626C81.032 48.3035 80.598 47.8275 80.0688 47.4774C79.5396 47.1274 78.9318 46.9141 78.2999 46.8567C77.6679 46.7993 77.0316 46.8996 76.448 47.1487C75.8644 47.3977 75.3517 47.7877 74.9559 48.2836H74.9613Z" fill="white"/>
<path fill-rule="evenodd" clip-rule="evenodd" d="M46.8378 47.9102C50.7338 45.9712 52.1623 48.1988 53.2446 49.364C54.2582 50.4462 55.3874 50.0855 54.5685 48.5686C54.0914 47.7091 53.354 47.0231 52.4624 46.6092C51.5708 46.1953 50.5709 46.0749 49.6065 46.2652C48.5183 46.4695 47.5376 47.0523 46.8378 47.9102Z" fill="white"/>
<path fill-rule="evenodd" clip-rule="evenodd" d="M68.0044 47.0516C70.6973 46.6764 71.4314 48.1537 71.8824 48.9599C72.3044 49.7157 72.9826 49.6508 72.7211 48.6822C72.5692 48.1384 72.2503 47.6561 71.8095 47.3033C71.3687 46.9506 70.8283 46.7452 70.2644 46.7161C69.5862 46.6746 68.6573 46.6656 68.0044 47.0516Z" fill="white"/>
<path fill-rule="evenodd" clip-rule="evenodd" d="M41.0334 49.3459C43.7264 48.969 44.4605 50.448 44.9096 51.2543C45.3335 52.0082 46.0117 51.9451 45.7502 50.9765C45.5982 50.4328 45.2794 49.9505 44.8386 49.5977C44.3978 49.2449 43.8573 49.0395 43.2935 49.0105C42.6117 48.969 41.681 48.9581 41.0334 49.3459Z" fill="white"/>
<path fill-rule="evenodd" clip-rule="evenodd" d="M115.996 74.1326L115.947 74.1199L115.693 74.0604L115.498 73.8638L115.466 73.8332C115.586 73.8844 115.702 73.9447 115.814 74.0135L115.88 74.0532L115.996 74.1326Z" fill="#09A9DB"/>
<path d="M105.462 53.9815C106.132 53.9815 106.674 53.4388 106.674 52.7694C106.674 52.1 106.132 51.5573 105.462 51.5573C104.793 51.5573 104.25 52.1 104.25 52.7694C104.25 53.4388 104.793 53.9815 105.462 53.9815Z" fill="white"/>
<path d="M100.094 56.1784C100.401 56.1784 100.65 55.9297 100.65 55.6229C100.65 55.316 100.401 55.0673 100.094 55.0673C99.7873 55.0673 99.5386 55.316 99.5386 55.6229C99.5386 55.9297 99.7873 56.1784 100.094 56.1784Z" fill="white"/>
<path d="M74.8603 42.1113C75.7957 42.1113 76.554 41.353 76.554 40.4176C76.554 39.4822 75.7957 38.7239 74.8603 38.7239C73.9249 38.7239 73.1666 39.4822 73.1666 40.4176C73.1666 41.353 73.9249 42.1113 74.8603 42.1113Z" fill="white"/>
<path d="M75.3707 35.2427C75.6924 35.2427 75.9533 34.9819 75.9533 34.6601C75.9533 34.3384 75.6924 34.0775 75.3707 34.0775C75.0489 34.0775 74.7881 34.3384 74.7881 34.6601C74.7881 34.9819 75.0489 35.2427 75.3707 35.2427Z" fill="white"/>
<path d="M44.2061 43.7166C44.6395 43.7166 44.9907 43.3653 44.9907 42.932C44.9907 42.4986 44.6395 42.1474 44.2061 42.1474C43.7728 42.1474 43.4215 42.4986 43.4215 42.932C43.4215 43.3653 43.7728 43.7166 44.2061 43.7166Z" fill="white"/>
<path d="M58.232 44.8926C57.8601 44.5219 57.3564 44.3138 56.8314 44.3138C56.3063 44.3138 55.8027 44.5219 55.4308 44.8926C55.802 44.5206 56.0104 44.0166 56.0104 43.4911C56.0104 42.9656 55.802 42.4616 55.4308 42.0896C55.8027 42.4602 56.3063 42.6684 56.8314 42.6684C57.3564 42.6684 57.8601 42.4602 58.232 42.0896C57.8608 42.4616 57.6523 42.9656 57.6523 43.4911C57.6523 44.0166 57.8608 44.5206 58.232 44.8926Z" fill="white"/>
<path d="M88.2385 56.0395C87.7222 55.9452 87.1896 56.0593 86.7572 56.3568C86.3248 56.6542 86.0279 57.1109 85.9315 57.6268C86.0264 57.1103 85.9126 56.5772 85.615 56.1444C85.3175 55.7116 84.8605 55.4145 84.3442 55.3181C84.8605 55.413 85.3934 55.2994 85.8261 55.0022C86.2588 54.7051 86.5562 54.2485 86.653 53.7326C86.5586 54.2486 86.6724 54.781 86.9695 55.2133C87.2667 55.6456 87.7229 55.9427 88.2385 56.0395Z" fill="white"/>
<path d="M78.3684 63.0812C77.8422 63.0812 77.3376 63.2902 76.9655 63.6623C76.5934 64.0344 76.3844 64.5391 76.3844 65.0653C76.3844 64.5391 76.1753 64.0344 75.8032 63.6623C75.4311 63.2902 74.9265 63.0812 74.4003 63.0812C74.9265 63.0812 75.4311 62.8722 75.8032 62.5001C76.1753 62.128 76.3844 61.6233 76.3844 61.0971C76.3844 61.6233 76.5934 62.128 76.9655 62.5001C77.3376 62.8722 77.8422 63.0812 78.3684 63.0812Z" fill="white"/>
<path d="M67.3135 54.9465C66.8214 55.1246 66.4196 55.4899 66.1957 55.9629C65.9717 56.4359 65.9436 56.9781 66.1176 57.4717C65.9398 56.9793 65.5747 56.5771 65.1017 56.3528C64.6287 56.1285 64.0862 56.1001 63.5924 56.274C64.0848 56.0962 64.487 55.7311 64.7113 55.2581C64.9356 54.7851 64.964 54.2426 64.7901 53.7488C64.9679 54.2408 65.3327 54.6426 65.8053 54.8669C66.2779 55.0912 66.8199 55.1198 67.3135 54.9465Z" fill="white"/>
<path d="M97.8306 64.5404C97.4599 64.9123 97.2518 65.4159 97.2518 65.941C97.2518 66.466 97.4599 66.9697 97.8306 67.3416C97.4586 66.9704 96.9546 66.7619 96.4291 66.7619C95.9036 66.7619 95.3996 66.9704 95.0276 67.3416C95.3982 66.9697 95.6063 66.466 95.6063 65.941C95.6063 65.4159 95.3982 64.9123 95.0276 64.5404C95.3996 64.9116 95.9036 65.1201 96.4291 65.1201C96.9546 65.1201 97.4586 64.9116 97.8306 64.5404Z" fill="white"/>
</svg>
