<svg width="21" height="25" viewBox="0 0 21 25" fill="none" xmlns="http://www.w3.org/2000/svg">
<path d="M12.2596 21.5995C12.2596 20.0198 10.977 18.7393 9.39468 18.7393C7.81239 18.7393 6.52979 20.0198 6.52979 21.5995C6.52979 23.1791 7.81244 24.4597 9.39473 24.4597C10.977 24.4597 12.2596 23.1792 12.2596 21.5995Z" fill="#F7C92B"/>
<path d="M9.39543 18.7393C9.10583 18.7393 8.82626 18.7826 8.56274 18.8625C9.73882 19.2185 10.595 20.3089 10.595 21.5995C10.595 22.89 9.73882 23.9805 8.56274 24.3366C8.83273 24.4184 9.11332 24.4599 9.39543 24.4597C10.9777 24.4597 12.2603 23.1792 12.2603 21.5995C12.2603 20.0199 10.9777 18.7393 9.39543 18.7393Z" fill="#F2B51D"/>
<path d="M9.73013 4.90629C8.80992 5.09079 7.91437 4.49592 7.72944 3.5772C7.54451 2.65867 8.14058 1.76446 9.06054 1.57986C9.98055 1.39532 10.8763 1.99023 11.0613 2.90891C11.246 3.82744 10.6501 4.7217 9.73013 4.90629Z" fill="#F7C92B"/>
<path d="M11.0609 2.90891C10.876 1.99023 9.9803 1.39532 9.06024 1.57986C8.97459 1.59706 8.89194 1.62057 8.81226 1.64928C9.34932 1.84562 9.77459 2.30807 9.89555 2.90895C10.0633 3.74197 9.58857 4.55507 8.81245 4.83683C9.10598 4.94415 9.42349 4.96817 9.72983 4.90624C10.6498 4.7217 11.2457 3.82739 11.0609 2.90891Z" fill="#F2B51D"/>
<path d="M16.4908 21.1209H2.29931C1.02936 21.1209 0 20.0931 0 18.8254C8.10822e-05 18.4788 0.0778535 18.1366 0.227599 17.8239C0.377345 17.5113 0.595256 17.2362 0.865311 17.0189L1.32121 16.6516C2.37575 15.8025 2.98896 14.5225 2.98896 13.1699V10.7576C2.98896 7.19836 5.87889 4.31312 9.44394 4.31312C13.0088 4.31312 15.8989 7.19836 15.8989 10.7576V13.2146C15.899 13.8704 16.0434 14.5181 16.3219 15.1118C16.6003 15.7055 17.006 16.2307 17.5101 16.6501L17.954 17.0196C18.2156 17.2372 18.4261 17.5098 18.5706 17.8178C18.7151 18.1259 18.79 18.462 18.79 18.8023V18.8254C18.79 20.0931 17.7607 21.1208 16.4908 21.1208V21.1209Z" fill="#F7E249"/>
<path d="M17.9543 17.0196L17.5103 16.6501C16.4894 15.8001 15.8991 14.5416 15.8991 13.2144V10.7574C15.8991 7.19835 13.0091 4.31296 9.4442 4.31296C8.82868 4.31257 8.21625 4.40012 7.62549 4.57294C10.3048 5.35689 12.2617 7.82895 12.2617 10.7575V13.2144C12.2617 14.5416 12.8519 15.8001 13.8729 16.6501L14.317 17.0196C14.5786 17.2373 14.7891 17.5098 14.9335 17.8179C15.078 18.126 15.153 18.4621 15.1531 18.8023V18.8255C15.1531 20.0932 14.1237 21.1208 12.8538 21.1208H16.4912C17.7609 21.1208 18.7903 20.0932 18.7903 18.8255V18.8023C18.7903 18.4621 18.7153 18.126 18.5708 17.8179C18.4264 17.5098 18.2159 17.2373 17.9543 17.0196Z" fill="#F7C92B"/>
<path d="M20.9998 5.53101C20.9998 2.47636 18.5195 0 15.4598 0C12.4001 0 9.91968 2.47636 9.91968 5.53101C9.91968 8.58565 12.4001 11.0621 15.4598 11.0621C18.5195 11.0621 20.9998 8.5857 20.9998 5.53101Z" fill="#FC476E"/>
<path d="M16.9464 0.201736C18.3592 1.20401 19.2809 2.85122 19.2809 4.71346C19.2809 7.76811 16.8007 10.2445 13.7409 10.2445C13.2386 10.2448 12.7385 10.177 12.2544 10.0428C13.1591 10.6847 14.2653 11.062 15.4598 11.062C18.5193 11.062 20.9998 8.58569 20.9998 5.531C20.9998 2.99043 19.2841 0.850397 16.9464 0.201736Z" fill="#CC2B5A"/>
<path d="M15.4599 8.11432C15.2463 8.11432 15.0731 7.94147 15.0731 7.72821V4.00379L14.9289 4.13536C14.771 4.27901 14.5263 4.26783 14.3825 4.11013C14.3483 4.07269 14.3218 4.02887 14.3045 3.98117C14.2872 3.93347 14.2796 3.88284 14.2819 3.83217C14.2842 3.78151 14.2966 3.7318 14.3181 3.68589C14.3397 3.63999 14.3701 3.59879 14.4076 3.56466L15.1992 2.84396C15.2547 2.79351 15.3236 2.76024 15.3976 2.74818C15.4716 2.73612 15.5475 2.74579 15.6162 2.77603C15.6847 2.8062 15.743 2.85567 15.7839 2.9184C15.8248 2.98113 15.8466 3.05441 15.8466 3.12931V7.72821C15.8466 7.94147 15.6734 8.11432 15.4599 8.11432Z" fill="#E3FAFF"/>
</svg>
