<svg width="23" height="23" viewBox="0 0 23 23" fill="none" xmlns="http://www.w3.org/2000/svg">
<path d="M8.18503 12.9098L6.87726 14.2176C6.40201 13.8832 5.74241 13.9179 5.31305 14.3443C4.82641 14.8179 4.82627 15.599 5.31262 16.0728L6.02358 16.7838C6.26686 17.0399 6.59627 17.1463 6.89025 17.1463C7.19779 17.1463 7.50927 17.0314 7.75172 16.789L9.90797 14.6327C10.3812 14.1596 10.3812 13.383 9.90797 12.9098L9.90803 12.9097L9.90193 12.9039C9.42399 12.4418 8.66145 12.4334 8.18503 12.9098ZM8.18503 6.20147L6.87726 7.50924C6.402 7.17486 5.74238 7.20952 5.31302 7.63599C4.8264 8.10964 4.82628 8.89071 5.31264 9.36452L6.02357 10.0754C6.26686 10.3316 6.59626 10.4379 6.89025 10.4379C7.19779 10.4379 7.50926 10.3231 7.75172 10.0807L9.90797 7.92441C10.3812 7.45123 10.3812 6.67465 9.90797 6.20147L9.90802 6.20142L9.90193 6.19553C9.42399 5.73351 8.66145 5.72505 8.18503 6.20147ZM7.48442 2.41669H15.5153C17.16 2.41669 18.4127 2.90501 19.2538 3.74607C20.0948 4.58714 20.5832 5.83987 20.5832 7.4846V15.5154C20.5832 17.1602 20.0948 18.4129 19.2538 19.254C18.4127 20.095 17.16 20.5834 15.5153 20.5834H7.48442C5.83969 20.5834 4.58695 20.095 3.74589 19.254C2.90483 18.4129 2.4165 17.1602 2.4165 15.5154V7.4846C2.4165 5.83987 2.90483 4.58714 3.74589 3.74607C4.58695 2.90501 5.83969 2.41669 7.48442 2.41669ZM11.7969 16.4275H16.8282C17.5111 16.4275 18.0469 15.8735 18.0469 15.2088C18.0469 14.5441 17.5111 13.99 16.8282 13.99H11.7969C11.1279 13.99 10.5782 14.5397 10.5782 15.2088C10.5782 15.8778 11.1279 16.4275 11.7969 16.4275ZM11.7969 9.71919H16.8282C17.5111 9.71919 18.0469 9.16514 18.0469 8.50044C18.0469 7.83573 17.5111 7.28169 16.8282 7.28169H11.7969C11.1279 7.28169 10.5782 7.83138 10.5782 8.50044C10.5782 9.1695 11.1279 9.71919 11.7969 9.71919Z" fill="white" stroke="white"/>
</svg>
