<svg width="29" height="29" viewBox="0 0 29 29" fill="none" xmlns="http://www.w3.org/2000/svg">
<rect width="29" height="29" rx="4" fill="#03C27C"/>
<path d="M24.0837 19.0425V7.47541C24.0837 6.32541 23.1445 5.47249 22.0041 5.56833H21.9466C19.9341 5.74083 16.877 6.76624 15.1712 7.83958L15.0082 7.94499C14.7303 8.11749 14.2703 8.11749 13.9924 7.94499L13.7528 7.80124C12.047 6.73749 8.99949 5.72166 6.98699 5.55874C5.84658 5.46291 4.91699 6.32541 4.91699 7.46583V19.0425C4.91699 19.9625 5.66449 20.825 6.58449 20.94L6.86241 20.9783C8.94199 21.2562 12.1524 22.3104 13.9924 23.3167L14.0307 23.3358C14.2895 23.4796 14.7016 23.4796 14.9507 23.3358C16.7907 22.32 20.0107 21.2562 22.0999 20.9783L22.4162 20.94C23.3362 20.825 24.0837 19.9625 24.0837 19.0425Z" stroke="white" stroke-width="1.5" stroke-linecap="round" stroke-linejoin="round"/>
<path d="M14.5 8.26125V22.6362" stroke="white" stroke-width="1.5" stroke-linecap="round" stroke-linejoin="round"/>
<path d="M10.4268 11.1362H8.27051" stroke="white" stroke-width="1.5" stroke-linecap="round" stroke-linejoin="round"/>
<path d="M11.1455 14.0112H8.27051" stroke="white" stroke-width="1.5" stroke-linecap="round" stroke-linejoin="round"/>
</svg>
