<svg width="29" height="29" viewBox="0 0 29 29" fill="none" xmlns="http://www.w3.org/2000/svg">
<rect width="29" height="29" rx="4" fill="#03C27C"/>
<path d="M14.6158 15.2475C14.5487 15.2379 14.4624 15.2379 14.3858 15.2475C12.6991 15.19 11.3574 13.81 11.3574 12.1137C11.3574 10.3791 12.7566 8.9704 14.5008 8.9704C16.2353 8.9704 17.6441 10.3791 17.6441 12.1137C17.6345 13.81 16.3024 15.19 14.6158 15.2475Z" stroke="white" stroke-width="1.5" stroke-linecap="round" stroke-linejoin="round"/>
<path d="M20.9593 21.5726C19.2535 23.1346 16.9918 24.0834 14.5002 24.0834C12.0085 24.0834 9.74685 23.1346 8.04102 21.5726C8.13685 20.6717 8.71185 19.7901 9.73727 19.1001C12.3631 17.3559 16.6564 17.3559 19.2631 19.1001C20.2885 19.7901 20.8635 20.6717 20.9593 21.5726Z" stroke="white" stroke-width="1.5" stroke-linecap="round" stroke-linejoin="round"/>
<path d="M14.5003 24.0833C19.7931 24.0833 24.0837 19.7927 24.0837 14.5C24.0837 9.20727 19.7931 4.91667 14.5003 4.91667C9.2076 4.91667 4.91699 9.20727 4.91699 14.5C4.91699 19.7927 9.2076 24.0833 14.5003 24.0833Z" stroke="white" stroke-width="1.5" stroke-linecap="round" stroke-linejoin="round"/>
</svg>
