<svg width="20" height="20" viewBox="0 0 20 20" fill="none" xmlns="http://www.w3.org/2000/svg">
<path d="M13.8002 16.6H5.8002C4.41612 16.6 3.3791 16.2032 2.68804 15.5122C1.99698 14.8211 1.6002 13.7841 1.6002 12.4V6.8C1.6002 5.41592 1.99698 4.3789 2.68804 3.68784C3.3791 2.99678 4.41612 2.6 5.8002 2.6H13.8002C15.1843 2.6 16.2213 2.99678 16.9124 3.68784C17.6034 4.3789 18.0002 5.41592 18.0002 6.8V12.4C18.0002 13.7841 17.6034 14.8211 16.9124 15.5122C16.2213 16.2032 15.1843 16.6 13.8002 16.6ZM5.8002 3C4.5974 3 3.62624 3.29226 2.95935 3.95915C2.29246 4.62604 2.0002 5.59721 2.0002 6.8V12.4C2.0002 13.6028 2.29246 14.5739 2.95935 15.2408C3.62624 15.9077 4.5974 16.2 5.8002 16.2H13.8002C15.003 16.2 15.9741 15.9077 16.641 15.2408C17.3079 14.5739 17.6002 13.6028 17.6002 12.4V6.8C17.6002 5.59721 17.3079 4.62604 16.641 3.95915C15.9741 3.29226 15.003 3 13.8002 3H5.8002Z" stroke="#03C27C" stroke-width="0.8"/>
<path d="M8.1808 9.35396L8.18081 9.35395L8.17766 9.35143L5.67528 7.35273C5.58295 7.27687 5.57697 7.1519 5.63847 7.07621C5.71424 6.98294 5.83983 6.9767 5.91579 7.03842L5.91578 7.03843L5.91839 7.04051L8.42164 9.03992C8.42178 9.04003 8.42191 9.04014 8.42205 9.04025C8.80973 9.35123 9.31293 9.49397 9.79602 9.49397C10.2791 9.49397 10.7823 9.35122 11.17 9.04023C11.1701 9.04013 11.1703 9.04002 11.1704 9.03992L13.6737 7.04052L13.6737 7.04053L13.6763 7.03842C13.7623 6.9685 13.8861 6.98759 13.9452 7.06551L13.945 7.06565L13.9536 7.07621C14.0235 7.16225 14.0044 7.2861 13.9265 7.34513L13.9264 7.34503L13.9184 7.35143L11.4144 9.35143L11.4143 9.35138L11.4089 9.3559C10.98 9.71112 10.3947 9.89597 9.80002 9.89597C9.20606 9.89597 8.61922 9.71145 8.1808 9.35396Z" stroke="#03C27C" stroke-width="0.8"/>
</svg>
