<svg width="23" height="23" viewBox="0 0 23 23" fill="none" xmlns="http://www.w3.org/2000/svg">
<path d="M14.7486 4.99292L16.0998 7.69541C16.2819 8.06916 16.7707 8.42374 17.1827 8.50041L19.6265 8.9029C21.1886 9.16165 21.5528 10.2925 20.4315 11.4233L18.5244 13.3304C18.2081 13.6467 18.0261 14.2696 18.1315 14.72L18.6777 17.0775C19.109 18.9367 18.1123 19.665 16.4736 18.6875L14.1832 17.3267C13.7711 17.0775 13.0811 17.0775 12.669 17.3267L10.3786 18.6875C8.73982 19.6554 7.74316 18.9367 8.17441 17.0775L8.72067 14.72C8.82609 14.2792 8.644 13.6562 8.32775 13.3304L6.42068 11.4233C5.29943 10.3021 5.66359 9.17124 7.22567 8.9029L9.66941 8.50041C10.0815 8.43332 10.5702 8.06916 10.7523 7.69541L12.1036 4.99292C12.8223 3.52667 14.0107 3.52667 14.7486 4.99292Z" stroke="white" stroke-width="1.5" stroke-linecap="round" stroke-linejoin="round"/>
<path d="M7.66699 4.79167H1.91699" stroke="white" stroke-width="1.5" stroke-linecap="round" stroke-linejoin="round"/>
<path d="M4.79199 18.2083H1.91699" stroke="white" stroke-width="1.5" stroke-linecap="round" stroke-linejoin="round"/>
<path d="M2.87533 11.5H1.91699" stroke="white" stroke-width="1.5" stroke-linecap="round" stroke-linejoin="round"/>
</svg>
