<svg width="29" height="29" viewBox="0 0 29 29" fill="none" xmlns="http://www.w3.org/2000/svg">
<rect width="29" height="29" rx="4" fill="#03C27C"/>
<path d="M11.0312 14.5L13.3408 16.8192L17.9696 12.1808" stroke="white" stroke-width="1.5" stroke-linecap="round" stroke-linejoin="round"/>
<path d="M13.3025 5.34792C13.9637 4.7825 15.0467 4.7825 15.7175 5.34792L17.2317 6.65125C17.5192 6.90042 18.0558 7.10167 18.4392 7.10167H20.0683C21.0842 7.10167 21.9179 7.93542 21.9179 8.95125V10.5804C21.9179 10.9542 22.1192 11.5004 22.3683 11.7879L23.6717 13.3021C24.2371 13.9633 24.2371 15.0463 23.6717 15.7171L22.3683 17.2313C22.1192 17.5188 21.9179 18.0554 21.9179 18.4388V20.0679C21.9179 21.0838 21.0842 21.9175 20.0683 21.9175H18.4392C18.0654 21.9175 17.5192 22.1188 17.2317 22.3679L15.7175 23.6713C15.0563 24.2367 13.9733 24.2367 13.3025 23.6713L11.7883 22.3679C11.5008 22.1188 10.9642 21.9175 10.5808 21.9175H8.92292C7.90708 21.9175 7.07333 21.0838 7.07333 20.0679V18.4292C7.07333 18.0554 6.87208 17.5188 6.6325 17.2313L5.33875 15.7075C4.78292 15.0463 4.78292 13.9729 5.33875 13.3117L6.6325 11.7879C6.87208 11.5004 7.07333 10.9638 7.07333 10.59V8.94167C7.07333 7.92584 7.90708 7.09209 8.92292 7.09209H10.5808C10.9546 7.09209 11.5008 6.89084 11.7883 6.64167L13.3025 5.34792Z" stroke="white" stroke-width="1.5" stroke-linecap="round" stroke-linejoin="round"/>
</svg>
