<svg width="44" height="44" viewBox="0 0 44 44" fill="none" xmlns="http://www.w3.org/2000/svg">
<path d="M22 0C9.85162 0 0 9.85162 0 22C0 34.1484 9.85162 44 22 44C34.1484 44 44 34.1484 44 22C44 9.85162 34.1484 0 22 0ZM22.4663 34.809C22.466 34.809 22.4666 34.809 22.4663 34.809H22.4609C20.2571 34.8081 18.0916 34.2555 16.1684 33.2068L9.18827 35.0373L11.0564 28.216C9.90395 26.22 9.29766 23.9554 9.2987 21.6355C9.3017 14.3778 15.2086 8.47327 22.4663 8.47327C25.9884 8.47456 29.2946 9.84552 31.7805 12.3334C34.2666 14.8216 35.6348 18.1288 35.6336 21.6459C35.6305 28.9039 29.7229 34.8091 22.4662 34.8091L22.4663 34.809Z" fill="#03C27C"/>
<path d="M22.4705 10.6965C16.4337 10.6965 11.5242 15.6039 11.5215 21.6363C11.5209 23.7035 12.0996 25.7167 13.1949 27.4586L13.4551 27.8725L12.3493 31.9099L16.4915 30.8236L16.8913 31.0607C18.5714 32.0576 20.4977 32.585 22.4614 32.5857H22.4657C28.4978 32.5857 33.4074 27.6778 33.41 21.6451C33.4111 18.7215 32.2738 15.9729 30.2076 13.905C28.1414 11.8371 25.3933 10.6974 22.4705 10.6965ZM28.9078 26.3401C28.6334 27.1081 27.3192 27.8095 26.6871 27.9042C26.1201 27.9886 25.4031 28.024 24.6149 27.7738C24.1369 27.6221 23.5242 27.4197 22.7391 27.081C19.4388 25.6563 17.2833 22.3343 17.1189 22.1146C16.9544 21.8952 15.7754 20.3312 15.7754 18.7121C15.7754 17.0934 16.6253 16.2975 16.9269 15.9685C17.2286 15.6392 17.5851 15.5569 17.8043 15.5569C18.0235 15.5569 18.2431 15.559 18.4348 15.5684C18.6369 15.5784 18.9081 15.4915 19.175 16.133C19.4492 16.7917 20.1072 18.4103 20.1895 18.5749C20.2717 18.7396 20.3264 18.9317 20.217 19.1513C20.1072 19.3707 19.7426 19.8444 19.3946 20.2762C19.2485 20.4571 19.0582 20.6182 19.2502 20.9475C19.4418 21.2765 20.1025 22.3537 21.0804 23.2259C22.3372 24.3464 23.3973 24.6935 23.7263 24.8584C24.055 25.0229 24.2469 24.9953 24.439 24.7761C24.6306 24.5566 25.2614 23.8157 25.4806 23.4864C25.6999 23.1571 25.9194 23.2121 26.2208 23.3219C26.5226 23.4313 28.14 24.2272 28.469 24.3917C28.7979 24.5566 29.0172 24.6388 29.0994 24.7761C29.182 24.9134 29.182 25.5717 28.9078 26.3401Z" fill="#03C27C"/>
</svg>
